<svg height="742" preserveAspectRatio="xMinYMin meet" viewBox="0 0 256 76" width="2500" xmlns="http://www.w3.org/2000/svg" xmlns:xlink="http://www.w3.org/1999/xlink"><linearGradient id="a"><stop offset="0" stop-color="#6a3894"/><stop offset=".1058" stop-color="#8a2f83"/><stop offset=".2653" stop-color="#b4256c"/><stop offset=".4092" stop-color="#d31c5d"/><stop offset=".5309" stop-color="#e51e54"/><stop offset=".6158" stop-color="#ec1e4f"/><stop offset="1" stop-color="#f8e47f"/></linearGradient><linearGradient id="b" x1="48.377%" x2="51.439%" xlink:href="#a" y1="-14.475%" y2="108.205%"/><linearGradient id="c" x1="49.461%" x2="52.042%" xlink:href="#a" y1="25.137%" y2="134.885%"/><linearGradient id="d" x1="48.221%" x2="51.662%" xlink:href="#a" y1="-15.768%" y2="108.575%"/><linearGradient id="e" x1="48.846%" x2="52.552%" xlink:href="#a" y1="14.371%" y2="133.906%"/><linearGradient id="f" x1="48.477%" x2="51.653%" xlink:href="#a" y1="-17.018%" y2="108.531%"/><linearGradient id="g" x1="48.957%" x2="52.141%" xlink:href="#a" y1="4.908%" y2="155.044%"/><linearGradient id="h" x1="48.747%" x2="51.571%" xlink:href="#a" y1="-20.569%" y2="111.805%"/><linearGradient id="i" x1="48.901%" x2="51.964%" xlink:href="#a" y1="-8.264%" y2="139.507%"/><linearGradient id="j"><stop offset="0" stop-color="#f8e47f"/><stop offset=".1057" stop-color="#f7db7c"/><stop offset=".3493" stop-color="#f3c87b"/><stop offset=".5198" stop-color="#f2c179"/><stop offset=".7096" stop-color="#f6d17b"/><stop offset="1" stop-color="#f8e47f"/></linearGradient><linearGradient id="k" x1="48.878%" x2="49.752%" xlink:href="#j" y1="-40.568%" y2="35.508%"/><linearGradient id="l" x1="61.295%" x2="47.167%" xlink:href="#j" y1="-95.754%" y2="83.377%"/><linearGradient id="m" x1="48.763%" x2="49.829%" xlink:href="#j" y1="-62.555%" y2="31.517%"/><linearGradient id="n" x1="61.892%" x2="44.032%" xlink:href="#j" y1="-134.186%" y2="133.252%"/><linearGradient id="o" x1="47.962%" x2="49.584%" xlink:href="#j" y1="-127.501%" y2="28.726%"/><linearGradient id="p" x1="48.008%" x2="49.998%" xlink:href="#j" y1="-165.229%" y2="24.96%"/><linearGradient id="q" x1="49.42%" x2="51.331%" xlink:href="#j" y1="-96.09%" y2="148.654%"/><linearGradient id="r" x1="47.285%" x2="50.255%" xlink:href="#j" y1="-269.553%" y2="94.973%"/><linearGradient id="s" x1="36.812%" x2="63.32%" xlink:href="#a" y1="136.87%" y2="-33.291%"/><linearGradient id="t" x1="51.268%" x2="111.195%" xlink:href="#a" y1="47.797%" y2="-92.982%"/><linearGradient id="u" x1="28.861%" x2="66.465%" xlink:href="#a" y1="154.57%" y2="-25.939%"/><linearGradient id="v" x1="39.406%" x2="98.6%" xlink:href="#a" y1="88.523%" y2="-60.132%"/><linearGradient id="w" x1="30.207%" x2="63.342%" xlink:href="#a" y1="198.316%" y2="-44.553%"/><linearGradient id="x" x1="23.353%" x2="83.033%" xlink:href="#a" y1="145.501%" y2="-60.884%"/><linearGradient id="y" x1="27.956%" x2="59.913%" xlink:href="#a" y1="228.377%" y2="-21.3%"/><linearGradient id="z" x1="50.047%" x2="50.949%" xlink:href="#j" y1="55.245%" y2="155.804%"/><linearGradient id="A" x1="52.935%" x2="41.003%" xlink:href="#j" y1="4.416%" y2="204.29%"/><linearGradient id="B" x1="54.558%" x2="39.844%" xlink:href="#j" y1="-13.072%" y2="224.278%"/><linearGradient id="C" x1="58.244%" x2="35.884%" xlink:href="#j" y1="-110.719%" y2="341.376%"/><linearGradient id="D" x1="48.739%" x2="50.613%" xlink:href="#j" y1="-111.609%" y2="138.354%"/><linearGradient id="E" x1="49.45%" x2="50.598%" xlink:href="#j" y1="4.043%" y2="145.152%"/><linearGradient id="F"><stop offset="0" stop-color="#7f3996"/><stop offset=".071" stop-color="#9c2f82"/><stop offset=".1599" stop-color="#b92770"/><stop offset=".2542" stop-color="#d02162"/><stop offset=".3554" stop-color="#df1e57"/><stop offset=".4682" stop-color="#e91f52"/><stop offset=".6158" stop-color="#ec1e4f"/><stop offset="1" stop-color="#f8e47f"/></linearGradient><linearGradient id="G" x1="106.724%" x2=".727%" xlink:href="#F" y1="8.252%" y2="121.341%"/><linearGradient id="H" x1="99.542%" x2="9.968%" xlink:href="#F" y1="11.089%" y2="104.952%"/><linearGradient id="I" x1="87.196%" x2="13.244%" xlink:href="#F" y1="12.426%" y2="100.149%"/><linearGradient id="J" x1="80.291%" x2="21.404%" xlink:href="#F" y1="14.091%" y2="97.156%"/><linearGradient id="K" x1="76.025%" x2="25.917%" y1="-4.778%" y2="100.047%"><stop offset="0" stop-color="#7f3996"/><stop offset=".0959" stop-color="#873a93"/><stop offset=".2469" stop-color="#9e3b90"/><stop offset=".4329" stop-color="#c23b89"/><stop offset=".6158" stop-color="#ec3e81"/><stop offset="1" stop-color="#f8e47f"/></linearGradient><linearGradient id="L" x1="54.805%" x2="35.235%" xlink:href="#F" y1="35.23%" y2="97.281%"/><linearGradient id="M" x1="56.075%" x2="41.889%" xlink:href="#F" y1="31.589%" y2="89.903%"/><linearGradient id="N" x1="54.689%" x2="32.079%" xlink:href="#F" y1="22.488%" y2="154.954%"/><linearGradient id="O" x1="56.249%" x2="40.593%" xlink:href="#F" y1="25.105%" y2="88.789%"/><linearGradient id="P" x1="55.804%" x2="33.194%" xlink:href="#F" y1="12.814%" y2="155.289%"/><linearGradient id="Q" x1="54.103%" x2="46.781%" xlink:href="#F" y1="7.856%" y2="83.491%"/><linearGradient id="R" x1="52.814%" x2="44.77%" xlink:href="#F" y1="16.019%" y2="115.366%"/><linearGradient id="S" x1="53.103%" x2="44.409%" xlink:href="#F" y1="11.805%" y2="118.907%"/><linearGradient id="T" x1="55.463%" x2="37.302%" xlink:href="#F" y1=".975%" y2="159.673%"/><linearGradient id="U" x1="54.841%" x2="39.382%" xlink:href="#F" y1="-.941%" y2="157.756%"/><linearGradient id="V" x1="54.572%" x2="44.507%" xlink:href="#F" y1="15.507%" y2="89.969%"/><linearGradient id="W" x1="54.242%" x2="41.208%" xlink:href="#F" y1="-3.009%" y2="160.547%"/><linearGradient id="X" x1="53.775%" x2="45.321%" xlink:href="#F" y1="17.448%" y2="92.293%"/><linearGradient id="Y" x1="53.991%" x2="41.86%" xlink:href="#F" y1="-4.158%" y2="155.329%"/><linearGradient id="Z" x1="52.894%" x2="45.151%" xlink:href="#F" y1="20.818%" y2="98.465%"/><linearGradient id="aa" x1="18.8%" x2="117.397%" xlink:href="#a" y1="73.647%" y2="-83.503%"/><linearGradient id="ab" x1="27.745%" x2="109.998%" xlink:href="#a" y1="80.148%" y2="-58.869%"/><linearGradient id="ac" x1="38.21%" x2="91.4%" xlink:href="#a" y1="76.922%" y2="-54.681%"/><linearGradient id="ad" x1="32.743%" x2="87.579%" xlink:href="#a" y1="82.686%" y2="-44.689%"/><linearGradient id="ae" x1="40.24%" x2="84.908%" xlink:href="#a" y1="78.535%" y2="-52.423%"/><linearGradient id="af" x1="33.922%" x2="78.718%" xlink:href="#a" y1="87.723%" y2="-34.245%"/><linearGradient id="ag" x1="41.127%" x2="78.045%" xlink:href="#a" y1="77.814%" y2="-44.174%"/><linearGradient id="ah" x1="40.866%" x2="80.114%" xlink:href="#a" y1="82%" y2="-43.425%"/><linearGradient id="ai" x1="33.909%" x2="77.477%" xlink:href="#a" y1="98.207%" y2="-29.168%"/><linearGradient id="aj" x1="40.31%" x2="78.446%" xlink:href="#a" y1="85.981%" y2="-51.021%"/><linearGradient id="ak" x1="32.376%" x2="74.783%" xlink:href="#a" y1="106.137%" y2="-27.147%"/><linearGradient id="al" x1="39.507%" x2="78.191%" xlink:href="#a" y1="90.206%" y2="-48.937%"/><linearGradient id="am" x1="31.245%" x2="72.91%" xlink:href="#a" y1="113.21%" y2="-28.086%"/><linearGradient id="an" x1="40.419%" x2="72.375%" xlink:href="#a" y1="97.375%" y2="-52.712%"/><linearGradient id="ao" x1="28.389%" x2="69.164%" xlink:href="#a" y1="127.879%" y2="-23.332%"/><linearGradient id="ap" x1="39.344%" x2="68.744%" xlink:href="#a" y1="105.266%" y2="-45.668%"/><linearGradient id="aq" x1="38.567%" x2="67.755%" xlink:href="#a" y1="109.272%" y2="-46.05%"/><linearGradient id="ar" x1="39.202%" x2="65.885%" xlink:href="#a" y1="117.022%" y2="-33.064%"/><linearGradient id="as" x1="31.855%" x2="99.209%" xlink:href="#a" y1="87.333%" y2="-50.691%"/><linearGradient id="at" x1="24.991%" x2="90.165%" xlink:href="#a" y1="105.669%" y2="-33.201%"/><linearGradient id="au"><stop offset="0" stop-color="#d4e5ee"/><stop offset=".0722" stop-color="#cddfe8"/><stop offset=".1858" stop-color="#b4cbd7"/><stop offset=".3267" stop-color="#90abbb"/><stop offset=".4878" stop-color="#5f8096"/><stop offset=".5537" stop-color="#486d86"/><stop offset=".5941" stop-color="#5d7e95"/><stop offset=".685" stop-color="#88a3b5"/><stop offset=".7734" stop-color="#aac1ce"/><stop offset=".8572" stop-color="#c1d5e0"/><stop offset=".9348" stop-color="#d0e1ea"/><stop offset="1" stop-color="#d4e5ee"/></linearGradient><linearGradient id="av" x1="139.779%" x2="-149.959%" xlink:href="#au" y1=".615%" y2="198.322%"/><linearGradient id="aw" x1="110.786%" x2="29.296%" xlink:href="#au" y1="-267.695%" y2="157.982%"/><linearGradient id="ax" x1="103.516%" x2="-26.868%" xlink:href="#au" y1="-125.978%" y2="304.088%"/><linearGradient id="ay" x1="154.582%" x2="-217.943%" xlink:href="#au" y1="-23.7%" y2="218.837%"/><linearGradient id="az" x1="99.211%" x2="-47.287%" xlink:href="#au" y1="-20.856%" y2="216.169%"/><linearGradient id="aA" x1="116.137%" x2="-120.924%" xlink:href="#au" y1="-19.298%" y2="219.081%"/><linearGradient id="aB" x1="107.112%" x2="17.807%" xlink:href="#au" y1="-1209.887%" y2="686.309%"/><linearGradient id="aC" x1="103.166%" x2="33.442%" xlink:href="#au" y1="-263.873%" y2="149.161%"/><linearGradient id="aD" x1="120.648%" x2="27.518%" xlink:href="#au" y1="-176.667%" y2="107.118%"/><linearGradient id="aE" x1="164.291%" x2="3.324%" xlink:href="#au" y1="-159.745%" y2="104.282%"/><path d="m254.802 62.05-.2-.1v-.593l-.3-.79-.598-.692-.8-.495-.1-.198-.6-.593-.898-.495-.798-.296h-.2l-.8-.693-1.098-.593-1.198-.593-1.298-.396h-.2l-.998-1.088-1.198-.99-1.2-.593-1.198-.297h-.2l-1.098-.79-1.797-.693-.8-.098-1.098-.693-1.198-.494-1.098-.198-1.198-.1-1.2.1-.898.198-.5-.9-1.497-1-1.897-.395h-1.697l-2.097.396-.6.197-1.497-.593-1.697-.495-1.797-.197h-1.698l-1.797.197h-.2l-1.797-.692-1.897-.494-1.897-.297-.998-.1-1.598-1.483-1.797-1.286-1.797-.9-1.598-.495-1.997-.1-.898.1-.8-.693-1.398-.593-1.697-.198-1 .198-1.397-.495-1.498-.396-1.398-.197h-.5l-2.096-.792-2.596-.692-2.396-.198h-.3l-2.196-1.285-2.496-.594h-1.698l-3.694-.9-2.396-.198h-.8l-1.198-1.187-1.697-.99-1.897-.494-1.897.198-1.2.296-1.597-.296-1.697-.1-1.997.1h-.1v-.297l-2.995-.692-2.796-.396-2.596-.1-.9.1v-.1l-1.996-.297-1.997-.197h-.2l-2.197-.9-2.296-.594-2.097-.297h-1.497l-2.197-.8-1.797-.396-1.897-.1h-.3l-2.096-1.384-1.997-.79-1.498-.198-1.597-.79-2.397-.593-2.096.098-2.097-.99-2.197-.494h-1.098l-2.197-1.187-2.196-.593-2.197-.1-.4.1-2.895-1.484-2.196-.79-2.297-.198h-.1l-1.198-.692-1.298-.594-1.397-.395-1.498-.1-1.198.1-1.398-1-1.697-.69-1.897-.297-1.598.1-1.897.395-.2.1-1.897-.9-1.996-.495-1.898-.1-1.497-.988-1.598-.594-1.697-.198-1.598.198-1.397.396-1.1-1.088-1.397-.9-1.698-.297-1.497.297-1.1.494-.7-.494-.7-.297-.798-.297-.6-.098-.898.098-.9.297-.898.594-.2.197-1.697-.395-1.698.1-1.497.494-1.198.9-1 1.187-.7 1.484-.5 1.582-.4 1.68-.2 1.682.1 7.516-2.896-1.088.1-1.088.2-1.186.2-2.572.2-2.374-.3-3.56-.2-.99-.3-.99-.1-.396.1-.296.3-1 .4-.988.3-1 .5-.988-1.698 1.582-.8.692-.3-.395-.698-.693-.8-.593.4 2.374.2.8-.5.693-.3.693-.3-.89-.2-.692-.2-.79v-.602l-.1-.792-.1-.692-.1-.79v-.79l.3-2.077.2-.693.2-.593-.9 1.187-.7 1.286-.5 1.285-.3 1.286-.1 1.385v1.384l.2 1.385.3 1.384.3 1.088-.5-.296-.5-.693-1.198-1.582-.498-.9-.5-1-.4-1.186-.3-1.385-.1-1.582-1.098.99-.6 1.088-.3 1.187v1.186l.2 1.187.5 1.286.6 1.286.6.99-1.1-.198-1.198-.1 2.397 1.484.7.494.698.495.6.593.998 1.088.998.99.9.99.8.9.7.79.4.495.4.494.2.297c-11.664-4.643-24.244-10.181-39.619-17.501 3.095 5.044 14.477 10.286 19.17 13.847 4.992 2.67 11.88 5.538 17.872 7.813l-1.298.296-1.298.198-.5.1h-.3l-.898.098-.9.1h-.898l-.9.1h-1.797l-3.595-.396-1.797-.395 1 .692.998.593 1 .396.998.297.6.1-1.3.395-1.298.495-1.597.9-1.198.79-1 .79-.9 1-.798.988-.6 1.187-.4 1.385.4-.495 1-.99.498-.494.6-.396.598-.396.6-.395.6-.396.698-.296.6-.297.698-.198.7-.297 1.398-.395.598-.1.7-.098 1.197-.495 1.298-.692 2.596-1.582 1.198-.693.6-.197h.1l-.9.494-.898.594-.998.593-1 .692-.898.594-1 .593-.898.593-4.993 2.967-1.198.792-1.098.593 1.098.1 1.098-.1 1-.198.998-.296 1-.396-.3.297-.7 1.088-.5 1.186-.2 1.286.2 1.286.5 1.286.798-1.484.8-1.187.8-1.088.798-.9.8-.692 1.796-1.187.9-.494.5-.297-.1.1-.3 1.285-.2 1.583.1 1.68.3 1.88.6 2.175.2-1.088.2-.99.3-.99.6-1.978.4-.9.4-.99.498-.99 1-1.78.5-1 .498-.9.6-.9.598-.988.6-1 .5-.8c.8.296 1.497.593 2.196.8l-1.298 2.176-1.198 2.374-.998 2.868-.4 1.583-.1 1.483.1 1.484.3 1.285.7 1.385 1.098 1.187 1.598.9 1.597.494.4.9.898 1.187.9.792.798.593.9.494.898.297.798.1h1l.898 1.187 1.298.99 1.498.593 1.797.1 1.398-.396.2.296 1.298 1.187 1.298.9 1.298.594 1.797.296 1.098-.1 1.098.792 1.698.692 1.497.396 1.1.8 1.797.792 2.296.494 2.097.1.1.098 1.597 1.187 1.598.9 1.498.495 1.897.197 1.697-.296.7.395 1.298.594 1.398.296 1.298.1 1.198-.198.4.296 2.096.693 2.396.296 2.596-.1.5.297 2.096.692 2.097.297 2.795-.1 1.798.594 2.196.296 2.097-.1.7.396 2.096.79 2.397.297 2.396-.297v-.1l1.198.297h1.997l2.197-.494 1.298.494 1.697.396 1.697.197h2.097l.5.198 1.996.594 2.097.395 2.296.1 2.297-.2v-.1l1.198.297 1.897.297 1.897.1.1-.198 1.298.396 2.496.395 2.695.1 2.896-.1.4.1 1.797.395 1.697.197 1.697.1.1.098 1.598.79 1.897.495h1.697l1.797-.396 1.498-.9 1.697.495 2.297.198h2.396l.5.197 2.395.396 2.297-.198 2.396-.79 1.997.198 2.496-.1 1.897-.296 1.098.198 1.398.1 3.095-.297 1 .396 1.497.198 1.298-.297 1-.495h.1l1.597.495 1.697.297h1.698l1.797-.396 1.897-.9 1.797-1.088 1.398.1 1.897-.1 1.598-.198.898.297 1.598.297 1.597.197 1.698-.1 1.597-.296.3.1 1.996.692 1.798.396h1.597l1.598-.495.798-.79.4.1 1.098.296 1.098.198 1.198-.1 1.1-.197.8-.297 1.397.1 1.498-.198 1.398-.593h.2l1.397-.1 1.198-.197 1.398-.594 1-.692h1.298l1.198-.198 1.098-.296 1.198-.495h.5l.698-.1.7-.296.2-.198.8-.1.898-.395.4-.692.1-.495h.3l.9-.9.1-.395.2.1.1-2.473-1.198-1.385zm-213.566-36.793-1.498-.593-.1-.198v-.198l.1.198-.1-.297v-.395l.3-3.56.1-1.088.1-.8.1.9.1.988.4 1.978.4 1.978.1 1.088zm-4.194 3.56h.1l-.5.297h-.6l.3-.197zm-2.596 2.77.9-.9.898-1 .4-.395.6-.297-.4.1.2-.198c.5.197 1.098.395 1.598.593l-.6.396-3.394 1.68-.7.297.5-.297zm5.192-1.385-.5.495-.698.395-.6.396 1-1.978c.4.198.798.297 1.197.396l-.4.296z" fill="#dcddde"/><g stroke="#231f20"><path d="m255.8 61.8c-20.6-2.8-96.8-6.7-130.7-12.2-27.3-4.5-54-12.6-79.5-21.1-6.6-2.2-18.2-6.7-25.7-10.8-4.7-3.6-16.1-9-19.2-14 49.4 23.4 69.3 29.8 127.2 41.6 23.5 4.8 108.9 11.7 127.9 16.5z" fill="#231f20" stroke-width=".596"/><g stroke-width=".254"><g><path d="m182.8 70.9-2.2.8-2.2.1-2.1-.3-2.2-.9-2.1-1.1-2.1-1.6-2-1.7-3.8-3.8-1.8-1.9-1.7-1.9-1.5-1.7-1.5-1.5-1.3-1.1-1.2-.8-1-.3h.8l2 .2 1.1.1 1 .1 1.1.1 1 .1.9.1 1.5 1.4 1.4 1.2 1.2 1.3 1.1 1.3 2.2 2.4 1 1.2 1 1.1 1.1 1.1 1.1 1 1.2 1 1.3.9 1.4.9 1.6.8 1.7.8z" fill="url(#b)"/><path d="m190 70.6-2.5.4-2.4.1-2.2-.2-2.1-.6-2-.8-1.7-1-1.8-1.1-1.5-1.4-1.6-1.4-1.5-1.5-2.8-3.2-1.5-1.6-1.4-1.5-1.5-1.5-1.5-1.3h1.2l.6.1h.6l.7.1.6.1.7.1h.6l.6.1 1.4.2h.7l.7.1h1.4l.7.1.5.8.6 1 .9 1.2.8 1.2 1.1 1.3 1.1 1.4 1.2 1.4 1.2 1.3 2.5 2.5 1.4 1.1 1.3.9 1.2.8 1.3.5 1.3.3z" fill="url(#c)"/><path d="m194.8 70.7-1.5.1-1.4.2-1.3-.1-1.3-.2-1.4-.3-1.3-.5-1.2-.7-1.4-.9-1.3-.9-1.4-1.2-1.3-1.4-1.4-1.5-1.5-1.8-1.5-2-1.6-2.2-1.6-2.4h1l.9.1 1 .1 1.8.2 1 .1h2.1l1 .9.8 1 1.8 2 .8 1 .9 1.1.8.9.9 1.1.8 1 1.8 2 .9.9 1 .9 1 .8 1 .9z" fill="url(#d)"/><path d="m199.9 70.4-1.1.6-1.3.2-1.2-.1-1.3-.5-1.3-.8-2.6-2.2-1.4-1.4-2.6-3-1.2-1.5-1.3-1.5-1.1-1.4-1.1-1.3-2-2 6.2.6.7.9.8.9.7 1 2.1 2.7.7 1 3.2 3.6 1 .9.9.8 1 .9z" fill="url(#e)"/><path d="m210.2 69.1-1.8 1.1-1.7.8-1.7.4h-1.6l-1.6-.3-1.5-.6-1.5-.8-1.4-1-2.8-2.6-1.3-1.6-1.4-1.6-1.3-1.7-1.2-1.7-1.3-1.8-1.2-1.6 1.1.1.8.1h.6l1 .2h1.3l1 .1 2.2 3 1.1 1.4 1.2 1.2 2.4 2.2 1.2.9 1.2.8 1.1.7 1.2.7 1.1.4 1 .4 1.1.4.9.2 1 .1z" fill="url(#f)"/><path d="m215.6 68.7-1.9.3-1.8.1-1.7-.1-1.7-.3-1.6-.3-1.6-.5-1.4-.7-1.4-.8-1.4-.9-1.3-1-1.3-1.1-1.2-1.2-1.2-1.3-2.2-2.8-1-1.5h1.1l1.3.1 1.2.2h1.3l1 .1.9.1h.6l.3.1 1.5 1.5.6.7.8.8.9.8 1 1 1.1.9 1.2 1 1.1.9 1.3 1 1.3.8 1.4.8 1.4.7z" fill="url(#g)"/><path d="m222.7 69.1-1.5.3-1.5.1-1.6-.1-1.6-.3-1.6-.5-3-1.4-1.5-1-2.8-2-1.3-1.1-1.3-1.2-3.5-3.5-1-1.2h.7l.9.1h1.9l1 .1.9.1.8.1.6.1v.1l.2.3.6.5.8.6 1 .9 1.2.9 2.6 2 1.4 1 1.4 1.1 1.4.9 1.2.9 1.2.8 1.1.7.8.4z" fill="url(#h)"/><path d="m230.7 69.1-1 .9-1.2.4h-1.5l-1.7-.4-1.9-.7-1.9-1-2-1.1-2-1.3-2-1.4-3.6-2.8-1.5-1.2-1.3-1.1-1-.9-.7-.5-.3-.3.8.1h.8l.9.1.8.1 1 .1h.9l.9.1h1l1.1.7 1 .6 1.1.7 3 2.1 1.1.7 1 .7 1 .8 3 2.1 1.1.6 1 .6 1 .7z" fill="url(#i)"/><path d="m236.5 69.2-1 .3-1 .2-1 .1-1-.2-1-.3-1-.4-1.1-.6-1.2-.7-1.3-.8-1.3-.9-1.5-1.1-1.6-1.1-1.8-1.2-1.9-1.3-2.1-1.4-2.3-1.5.9.1h2.1l1 .1h.9l.7.1.5.1h.1l1 1 .7.6.9.8 1 .9 1 .8 1.3 1 1.2.9 1.3.9 1.3.8 1.3.9 1.3.7 1.3.5 1.2.4z" fill="url(#k)"/><path d="m240.7 68.5-1.3.6-1.4.2-1.6-.1-1.5-.4-1.7-.6-1.5-.8-1.7-.9-1.5-1-2.8-2.2-1.3-1-1.1-1.1-1-.9-.8-.7-.6-.5-.3-.4.9.1h.9l.9.1.8.1.9.1h.8l1 .1.9.1.7.6.8.7.6.6.8.7 1.5 1.5.8.7.9.7 1.6 1.2.9.6.8.5.9.5.9.4.9.3z" fill="url(#l)"/><path d="m245.9 66.9-1.2.8-1.2.5-1.1.3h-1.2l-1.2-.2-1.1-.4-1.2-.5-1.1-.7-1.2-.7-1.1-1-1.1-.9-3.3-3-1-1-1.1-.9h.7l.6.1 1.6.2.9.1h.9l2 .2.2.7.4.7.5.6.5.7.6.6.6.5.6.6 1.6 1 .8.4.9.4.8.3 1 .2.9.2z" fill="url(#m)"/><path d="m250.5 66-1 .4-1.1.3-1.1.2h-1.2l-2.4-.2-1.3-.4-1.2-.3-1.2-.6-1.1-.5-1-.7-.9-.7-.8-.8-.7-.9-.5-1-.4-1 .7.1h.7l.8.1.7.1h.8l.8.1.9.1h1l.4.6.5.6.4.5.9.9.6.4.5.4.5.3 1.2.6 1.4.6 1.4.4.9.2z" fill="url(#n)"/><path d="m252.9 65.2-.4.4-.5.2-.7.1h-.7l-1.6-.2-1-.3-.9-.3-.9-.4-1-.5-.9-.5-1.6-1.2-.7-.7-.6-.7-.4-.8.5.1h.5l.5.1.6.1h.5l.5.1h.8v.2l.5.5.9.6 1.1.8 1.4.7 1.4.8 1.4.6z" fill="url(#o)"/><path d="m254.5 63.6-.1.8-.3.5-.4.2-.7.2-.7-.2-.9-.2-.9-.4-1.8-1-.9-.6-.9-.5-.7-.6-.6-.4-.5-.4-.3-.2v-.1l4.5.5.4.2.5.3.7.4.8.3.8.4.8.3.7.3z" fill="url(#p)"/><path d="m249.3 61.2h1l.9.1.8.1h.7l.7.1h.8l.8.2.8.1-.1 1.1-.6.6h-.8l-1-.3-1.1-.6-1.1-.5-1-.6z" fill="url(#q)"/><path d="m249.5 60.6 1 .2.8.1.8.2.8.1.7.2.7.1 1.6.4.1-1.2-.5-.9-.8-.2-1.1-.1-1.2.2-1.2.3-1 .4z" fill="url(#r)"/><path d="m188.9 36.9-2.6-.9-2.4-.7-2.3-.2-2.2.2-2.1.4-1.9.7-1.8 1-1.8 1.1-1.8 1.3-1.7 1.4-1.7 1.5-1.6 1.5-1.6 1.4-1.7 1.4-1.6 1.4-1.7 1.2.6.1.7.1h.6l.6.2h.6l.7.1h.7l.6.1h.6l2.1.3h.7l2.1.3.6-.8.8-1 .8-1.1 1.1-1.2 1.1-1.3 1.2-1.3 1.4-1.3 1.3-1.2 1.5-1.2 1.4-1 1.5-.9 1.5-.8 1.4-.6 1.5-.3 1.4-.1z" fill="url(#s)"/><path d="m193.3 37.9-1.5-.5-1.4-.3-1.3-.3-1.4-.1-1.4.1-1.4.3-1.3.4-1.4.7-1.5.8-1.4 1-1.5 1.3-1.6 1.4-1.7 1.7-1.7 1.9-1.8 2.2-1.9 2.4h1l1 .2h.8l.9.1.8.1.8.2 1 .1 1.2.2 1.1-.9.9-.9 1.1-1 .9-1 2-2 .9-1 1-.9 1-1 1.1-.8.9-.9 1.1-.9 1.1-.8 1.2-.6 1.1-.6z" fill="url(#t)"/><path d="m198.1 39.2-1.1-.9-1.2-.5-1.3-.1-1.4.3-1.4.6-1.5.8-1.5 1-3 2.6-3 2.8-1.4 1.5-3.6 3.6-1.1.9 6.4.7.8-.9.8-1 .7-.9.9-.9.8-1 .8-.9.9-1 .8-.9.9-.8.9-.9 1-.8 1.1-.8 2.2-1.4 1.3-.6z" fill="url(#u)"/><path d="m207.7 43.3-1.7-1.7-1.7-1.2-1.7-.8-1.6-.5-1.6-.1-1.6.3-1.6.6-1.5.7-1.5 1.1-1.5 1.2-1.5 1.4-1.4 1.5-1.4 1.6-2.8 3.4-1.4 1.6 1.1.1.9.1h.8l.7.1.7.2.7.1.9.1 1.1.2 1.2-1.6 1.1-1.4 2.4-2.4 1.3-.9 1.1-.9 1.1-.7 1.2-.5 1.1-.5 1-.4 1.2-.2 1-.3 2-.2z" fill="url(#v)"/><path d="m214.5 44.8-1.9-.7-1.8-.5-1.8-.3-1.7-.1h-1.7l-3.2.6-1.5.5-1.5.7-1.4.8-1.5.9-1.3 1.1-1.4 1.1-1.2 1.3-1.3 1.4-1.2 1.5 1.2.2 2.8.4 1.4.1 1.3.2 1 .1.8.1h.3l1.9-1.9.8-.7.9-.7 1-.9 1.1-.7 1.1-.8 1.3-.8 2.8-1.4 1.5-.6 1.6-.5z" fill="url(#w)"/><path d="m223.1 45.9-1.5-.6-1.6-.5-1.7-.2h-1.6l-1.7.2-1.7.3-1.6.6-1.7.6-3.2 1.6-3 2-1.3 1-1.4 1.1-1.2 1.1-1.1 1.1.8.1.9.1 1 .1 1.1.1 1.2.2.9.1h1.6v-.1l.2-.3 1.5-1 1-.6 1.3-.8 2.8-1.6 4.5-2.4 1.4-.7 1.3-.6 1.1-.4 1-.3z" fill="url(#x)"/><path d="m231.3 47.6-.8-1.3-1.2-.8-1.6-.2h-1.7l-1.9.4-2.1.6-2.2.9-2.2 1-2.2 1.1-2 1.1-2 1.2-1.7 1.1-1.5.9-1.1.7-.7.5-.4.2.8.2 3 .3 2.2.2 1.1.2 1 .1 2.2-1 1.1-.6 1-.6 1.1-.5 1-.6 2.2-1.2 1-.5 1.1-.6 1.1-.5 1-.5 1.1-.5 1.1-.4 1.1-.5z" fill="url(#y)"/><path d="m241.7 50.4-1.3-1-1.4-.5-1.5-.2h-1.7l-1.7.3-1.7.5-1.7.6-1.7.8-1.5.9-1.6.8-1.4 1-1.2.8-1.1.8-.9.7-.7.4-.3.3 1.8.2.8.2h.7l1.6.2 1.8.2 1.6-1 .9-.7 2.7-1.8 1-.7.9-.6.9-.5 2-1 .9-.3 1-.3 1-.2h.9z" fill="url(#z)"/><path d="m237.9 48.7-1-.7-1.1-.4-1-.3-1-.1-1 .1-1.2.2-1.2.4-1.3.5-1.4.6-1.4.7-1.6.9-1.8.9-1.9 1-2.1 1.1-4.8 2.3 3 .3 1.1.2.9.1.7.1.6.1.2-.1.1-.1.4-.3.5-.5.7-.5.9-.6 1.1-.7 1.1-.8 1.2-.7 1.3-.8 1.4-.8 1.4-.6 1.5-.6 1.4-.5 1.5-.3 1.4-.1z" fill="url(#A)"/><path d="m246.4 53.3-1.1-1.1-1.1-.9-1.1-.6-1.1-.3-1.2-.1-1.2.1-1.3.3-1.2.4-1.3.7-1.2.6-2.6 1.6-1.3.9-1.2.8-1.2.9-1.2.8.6.1h.8l.9.2.9.1 1 .1 1.1.2.9.1 1 .1.4-.8.4-.6.5-.7 1.1-1.1 1.4-.8 1.6-.6.9-.3.8-.1 2-.2h.9l1 .1z" fill="url(#B)"/><path d="m253.6 57.2-.3-.5-.5-.4-.6-.4-.7-.2-.9-.2h-2.9l-1 .2-2 .6-.9.4-.9.5-.8.6-.7.6-.5.7.5.1.6.1.7.1.6.2h.6l.5.1h.4l.3-.1.5-.4 1-.5 1.2-.5 1.3-.4 1.5-.5 1.5-.2z" fill="url(#C)"/><path d="m255 59.6v-1l-.2-.7-.4-.4-.7-.3-.7-.2-1.8.2-1.1.3-1 .3-1 .4-.9.3-.8.4-.7.3-.6.2-.3.3h-.1l4.7.8.4-.1.6-.2.7-.2.8-.3.8-.1.9-.2h.7z" fill="url(#D)"/><path d="m251.1 55.7-.9-.8-1-.6-1.1-.5-1.2-.4-1.3-.2-1.2-.2h-1.3l-1.3.2-1.2.2-1.2.4-2.2 1-1.8 1.6-.6.9-.5 1 1.4.2 2.4.3 1.8.2 1 .2.4-.6.8-.8.6-.4.5-.4.7-.3.6-.3.7-.3.7-.2.8-.2 1.4-.2h2.3z" fill="url(#E)"/><path d="m43.7 27.8-.1.2-.3.4-.4.8-.5.9-.6 1.1-.6 1.3-1 2.8-.3 1.4-.1 1.4v1.4l.3 1.3.7 1.2 1 1 1.4.8 1.8.6-.3-.9-.4-1.8-.1-1.1-.1-1v-1.1l.4-4.4.2-1.1.2-1 .4-1.8.3-.9.2-.7-.3-.2h-.2l-.3-.1-.2-.1-.3-.1-.2-.1z" fill="url(#G)"/><path d="m45.7 28.6-.8 3.2-.6 2.9-.3 2.5v2.2l.1 2 .3 1.6.5 1.4.5 1.2.7.9.8.7.7.6.8.4.8.3.7.1h1.2l-.3-.9-.4-.9-.3-1.1-.2-1-.2-1.2-.2-1.1-.2-1.2-.1-1.2-.1-1.3v-1.2l.1-1.3.1-1.2.2-1.3.2-1.2.3-1.2.4-1.2-.7-.3-1.4-.4-.6-.2-.5-.2-.6-.2-.5-.1z" fill="url(#H)"/><path d="m50.4 30.1-.3 1.1-.4 1.5-.2 1.6-.1 1.8-.1 2v2l.2 2 .3 1.9.4 1.8.5 1.7.8 1.4.9 1.2 1.1.9 1.3.4 1.4.1 1.7-.5-.6-1-.7-1.1-.5-1.2-.5-1.1-.3-1.2-.4-1.2-.4-2.4-.2-1.3v-2.5l.1-1.2.1-1.3.2-1.2.6-2.6-.6-.2-1.4-.4-.7-.3-.7-.2-.5-.2-.6-.2z" fill="url(#I)"/><path d="m65.2 54.2-1.5.1-1.6-.2-1.3-.6-1.2-.8-1.2-1.1-1-1.3-.8-1.5-.7-1.7-.6-1.8-.5-2-.3-1.9-.1-2v-2l.2-2 .3-1.9.5-1.8.7.2.6.3.7.1.7.3.7.2.8.2.7.3.7.2v2.6l.1 1.5v1.5l.2 3.2.1 1.7.2 1.6.3 1.6.2 1.4.3 1.4.4 1.3.5 1 .6.9.6.6z" fill="url(#J)"/><path d="m61.1 33.5.6.3.6.2.5.1.6.1.5.2 1.2.4.5.2.2 2.4.1 1.4v4.5l.1 1.6v1.5l.2 1.5.1 1.5.3 1.4.3 1.3 1 2.4.7.9.8.7-1.7-.4-1.4-.5-1.2-.9-1-.9-.8-1.1-.6-1.3-.5-1.4-.3-1.4-.3-1.7-.2-1.7v-1.7l-.1-1.9v-1.8l-.1-1.9v-2z" fill="url(#K)"/><path d="m76.5 58.4-2.3-.1-2-.5-1.6-.7-1.3-1-1.1-1.3-.8-1.5-.6-1.6-.4-1.8-.4-3.8-.1-2v-5.7l-.1-1.8-.1-1.6.6.2.6.1.5.2 1.2.4.5.1.6.2.7.1-.1.2-.1.4-.1.7-.2.8-.1 1-.1 1.2-.1 1.3.1 1.5.1 1.6.3 1.8 1.2 3.6.9 2 1.2 2 1.4 2z" fill="url(#L)"/><path d="m84.5 60.9-1.6.3-1.6-.1-1.5-.5-1.5-.9-1.5-1.1-1.4-1.3-1.2-1.6-1.2-1.8-1-2-.9-2.1-.7-2.2-.5-2.2-.2-2.3-.1-2.3.2-2.2.5-2.3 5.5 1.8v.9l-.1 1.1.1 1.2.1 1.4.2 1.5.3 1.6.2 1.6 1 3.4 1.4 3.2.9 1.6.9 1.5 1.1 1.4 1.2 1.3z" fill="url(#M)"/><path d="m75.7 38 .9.3 1.1.2 1.2.5 1.3.3 2.4.8 1.1.2.8.2.2 2.8.3 4.5.2 1.6.1 1.5.6 3 .3 1.4.5 1.4.5 1.2.6 1.3 1.6 2 1 .9-1.2.1h-1.2l-1.2-.3-1.2-.5-1.3-.8-1.2-.9-1.1-1.2-1.2-1.4-1.1-1.6-.9-1.9-.9-2-.7-2.3-.6-2.5-.5-2.7-.3-3z" fill="url(#N)"/><path d="m98 63.2-2.6.1-2.2-.2-1.9-.6-1.5-1-1.3-1.2-1.1-1.5-.7-1.6-.6-1.9-.5-1.8-.3-2.1-.1-2-.2-1.9-.1-2-.1-1.8-.1-1.7-.2-1.5.8.1 1.4.4.6.2.7.2.6.2.8.2.9.2.2 1.6.1 1.5.4 3 .4 2.8.3 1.4.3 1.3.4 1.3.5 1.3 1.2 2.4.8 1.2.9 1.2z" fill="url(#O)"/><path d="m105.1 64.5-2.3.1-2.1-.3-1.8-.6-1.6-1-1.3-1.2-1.2-1.5-.9-1.7-.8-1.8-.7-1.8-.5-2-.5-1.9-.2-2-.3-1.9-.4-3.4-.1-1.4.8.2.7.2.6.2.7.1.6.2.6.1 1.6.4.3 2.3.4 2.1.4 2 .4 1.9.5 1.6.5 1.7.6 1.4.6 1.3.5 1.2.7 1.1.7 1 .6.8.7.9.7.6.8.6z" fill="url(#P)"/><path d="m111.7 65.4-2.2.1-2-.3-1.7-.6-1.6-1-1.4-1.2-1.2-1.4-1.1-1.6-.9-1.8-.8-1.8-.7-1.9-.5-1.9-.4-1.9-.5-1.8-.2-1.8-.3-1.6-.2-1.4.7.2.7.1 2.1.6.7.1 1.4.4.1 1.1.2 1.2.2 1.3.4 1.4.4 1.5 1.8 4.5.8 1.6 1.6 2.8.9 1.2.9 1.3.9 1 1 .9z" fill="url(#Q)"/><path d="m119 66.7-2.3.3-2.1-.3-1.9-.7-1.7-1.2-1.7-1.5-1.4-1.7-2.4-4-.9-2.2-.9-2.1-.7-2-.5-1.9-.4-1.6-.3-1.4-.2-.9v-.6l.9.1.8.2.8.3.9.1.8.3.7.1.8.2.7.1.3 1 .3 1.2.4 1.3.4 1.5 1 3.2 1.2 3.4.7 1.6 1.6 3 .9 1.2.9 1.1 1 .9 1.1.7z" fill="url(#R)"/><path d="m124.3 66.4-2.1.5h-1.8l-1.7-.4-1.6-.8-1.4-1.1-1.2-1.4-1.1-1.6-1-1.8-.8-1.8-.8-1.9-.5-2-.6-1.8-.5-1.8-.3-1.6-.4-1.4-.3-1.1.7.2h.6l.6.1.5.1.6.2 1.5.3.2 1.3.6 2.8.4 1.3.4 1.4.6 1.4.5 1.3.7 1.2.7 1.3 1.8 2.4.9 1 1.1 1.1 1.1.9 1.3.9z" fill="url(#S)"/><path d="m131 67.5h-1.8l-1.7-.2-1.6-.4-1.6-.6-1.4-.8-1.5-1-1.3-1.2-1.3-1.3-1.1-1.4-1-1.6-1-1.7-.8-1.8-.7-2-.6-2-.5-2.1-.4-2.1.8.1.7.1.8.2.8.1.7.2.7.1.8.1.7.2.4 1.2.2 1.3.4 1.2.3 1.3.3 1.2.4 1.2 1 2.4.6 1.2.7 1.2.9 1.2 1 1.1 1.2 1.1 1.4 1.2 1.6 1.2z" fill="url(#T)"/><path d="m140.4 68.6-2.3.1-2.2-.1-2-.3-2-.6-1.8-.8-1.7-1-1.5-1.1-1.4-1.4-1.3-1.5-1.2-1.6-1-1.8-.9-1.8-.8-2-.6-2-.5-2.1-.3-2.1.6.1.7.2 2.1.3.8.2.7.1.8.2.2 1.4.4 1.5.4 1.4.6 1.4.7 1.4.8 1.4.9 1.4.9 1.3 1.1 1.2 1.2 1.2 1.2 1.1 1.3 1.1 1.4.9 1.5.9z" fill="url(#U)"/><path d="m145.6 69.1-2-.1-1.8-.3-1.9-.4-1.8-.7-3.4-1.8-1.5-1.1-1.5-1.3-1.3-1.4-1.3-1.5-1.1-1.7-1-1.7-.8-1.8-.7-1.8-.6-1.9-.3-2 .6.1h.6l.5.1.6.1h.5l.6.1.7.2.8.1.8 1.7 1.4 3 .6 1.4.7 1.4 1.4 2.4.7 1.1.9 1.1.9 1 1 1 1.2 1 1.3.9 1.6 1 1.6.9z" fill="url(#V)"/><path d="m154.9 69.7-2.9.1-2.6-.1-2.4-.4-2.2-.6-2.1-.9-1.8-1.1-1.7-1.2-1.5-1.4-1.4-1.5-1.3-1.6-1.1-1.7-2-3.6-.9-1.8-.8-1.9-.8-1.8.5.1.7.1 1.8.2.9.2.8.1.7.1.6.1 1.4 3.2.9 1.6.9 1.4 1 1.4 1 1.3 1.1 1.2 1.2 1.2 2.6 2.2 1.4 1 1.5 1 1.5.8 1.6.9 1.6.7z" fill="url(#W)"/><path d="m160.4 70.5h-1.5l-1.7-.3-1.7-.4-1.8-.6-1.8-.8-1.8-.9-1.9-1.1-1.8-1.2-1.7-1.4-1.7-1.5-1.6-1.6-1.5-1.8-1.3-1.8-1.2-1.9-1.1-2-.9-2.1 3.6.4h.8l.7.2.6.1.3.2 1.1.8 1 .8 1.1 1.1 1.1 1 1.1 1.2 1.2 1.2 1.2 1.3 1.1 1.3 2.4 2.6 1.3 1.3 1.2 1.3 3.9 3.6z" fill="url(#X)"/><path d="m168.9 70.5-1.5 1-1.6.4h-1.5l-1.7-.4-1.6-.8-1.6-1.1-1.7-1.4-1.7-1.6-3.4-3.6-1.9-2-1.8-2-3.6-3.8-1.9-1.8-1.9-1.6h.7l.7.2h.9l.9.2.9.1 1 .2.8.1.8.2 1.4 1.3 1.5 1.3 2.8 2.8 1.3 1.4 1.4 1.4 1.3 1.4 2.6 2.6 1.3 1.2 1.2 1 1.2.9 1.2.8 1.2.7 1.2.6z" fill="url(#Y)"/><path d="m175.5 71.3h-2.4l-2.2-.3-2.1-.5-2-.8-1.8-.9-1.7-1.2-1.6-1.3-1.5-1.4-1.5-1.5-1.5-1.6-1.4-1.5-1.4-1.7-3-3.2-3.2-2.8h.6l.7.1.8.1 1.8.2h.7l.6.1h.3l1 .2 1 .5 1 .6 1 .9 1.1 1.1 1.1 1.2 1.2 1.3 1.1 1.4 1.4 1.4 1.3 1.5 1.5 1.5 1.6 1.4 1.7 1.5 1.8 1.3 1.9 1.3z" fill="url(#Z)"/><path d="m45.9 23.3v-.2l-.1-.7v-1l-.1-1.2-.1-1.4.2-3.2.1-1.7.4-1.6.4-1.5.6-1.4.9-1.1 1-.8 1.3-.4 1.5-.1 1.8.5-.5.5-.6.7-1 1.8-.4 1.1-.4 1-1.2 3.6-.9 3.6-.2 1.2-.2 1.1-.2 1-.2.9h-.3l-.2-.1-.3-.1-.4-.2z" fill="url(#aa)"/><path d="m48 24.2.8-3.8.8-3.2.8-2.7.8-2.3.8-1.8.9-1.5.8-1 .7-.8.8-.5.7-.2.8-.1.6.1.7.2.6.3.5.4.5.3-.9.8-.8.9-.7.8-1.4 1.8-1.2 2-1.5 3.3-.5 1.2-.4 1.2-.3 1.3-.4 1.3-.3 1.3-.3 1.4-.7-.1h-.5l-.6-.3h-.3l-.4-.2z" fill="url(#ab)"/><path d="m50.9 25.3.2-1.4.3-1.6.5-1.7.6-1.9.7-1.9.9-1.9.9-1.8 1.1-1.7 1.1-1.5 1.1-1.3 1.3-1 1.2-.6 1.4-.2 1.3.2 1.3.7 1.3 1.4-1 .7-1 .9-2.7 2.7-.7 1-.7 1.1-.7 1-.6 1.2-.5 1.2-.6 1.2-.8 2.6-.3 1.4-.3 1.5-.2 1.5-.6-.2-.7-.2-.8-.3-.7-.2-1.4-.6-.5-.2z" fill="url(#ac)"/><path d="m73.7 10-1.4-.9-1.4-.5-1.5-.2-1.4.2-1.5.4-1.4.8-1.3 1-1.3 1.3-1.1 1.4-1.2 1.6-1 1.8-.9 1.9-.7 1.9-.6 2.1-.5 2.1-.2 2.2.7.2.7.1.7.3.7.2.8.3 1.4.4.8.1.5-1.3.5-1.5.5-1.4.6-1.5.5-1.5.7-1.5.6-1.5.7-1.4.7-1.3.7-1.2.8-1.2.9-1 .9-.9.9-.7 1-.5z" fill="url(#ad)"/><path d="m80.1 11.7-2.3-.9-1.9-.6h-1.8l-1.6.3-1.4.6-1.2 1-1.1 1.2-1 1.5-.8 1.6-.8 1.8-.8 1.9-.7 1.9-.6 1.9-.7 1.9-.7 1.8-.7 1.7 1.2.2.6.2.5.2 1.2.4.7.2.6.1.1-.2v-.6l.2-.7.2-1.1.2-1.2.5-1.4.4-1.5 1.4-3.2.9-1.5 1.1-1.6 1.2-1.5 1.5-1.4 1.6-1.1 1.9-1.1 2.1-.8z" fill="url(#ae)"/><path d="m88.3 13-1.3-1-1.5-.7-1.7-.2-1.6.1-1.7.3-1.8.7-1.7 1-1.7 1.1-1.6 1.5-1.5 1.6-1.3 1.9-1.3 2-1 2.2-.8 2.3-.5 2.4-.3 2.6 6 1.5.3-1 .5-1.1.4-1.3.6-1.3.7-1.4.7-1.5.8-1.4.9-1.5 1-1.4 1.1-1.4 1.2-1.3 1.2-1.2 1.3-1.1 1.5-1 1.5-.8z" fill="url(#af)"/><path d="m72.9 32.5.9.2 1.1.2 1.1.3 2.4.8 1.1.3 2 .6-.2-.1.8-1.4.7-1.5.6-1.5.6-1.6.7-1.6.6-1.4.6-1.6.8-1.6.8-1.4.8-1.2 1-1.3 1-1.1.9-1 1.2-.8 1.2-.6 1.2-.5-1.1-.7-1.1-.5-1.2-.4-1.4-.1-1.4.1-1.4.4-1.5.6-1.5.9-1.5 1.1-1.5 1.4-1.5 1.7-1.5 2-1.4 2.3-1.4 2.6-1.3 3.1z" fill="url(#ag)"/><path d="m102.1 17.2-2.4-1.3-2.1-.7-2-.2-1.8.3-1.6.7-1.5 1-1.3 1.4-1.2 1.6-1 1.8-1 1.9-.9 2.1-1.6 4-.8 1.9-.7 1.8-.7 1.5.8.2.7.1.7.2.6.1 1.4.4.7.1.9.2.8-1.6.7-1.6 1.4-3 .6-1.4.8-1.3.8-1.4.7-1.2.9-1.2 1.8-2.2 1.1-1 1.2-.9 1.2-.8 1.4-.8z" fill="url(#ah)"/><path d="m109.4 19.3-2.2-1.2-2-.5-2-.2-1.8.3-1.7.7-1.6 1.1-1.5 1.3-1.4 1.5-1.3 1.7-1.2 1.8-1.2 1.9-.9 1.9-1 2-.8 1.7-.7 1.7-.6 1.4 1.6.4.7.2.6.1.7.2.7.1.9.1.9.2 1-2.3 1.1-2.2 2-3.8.9-1.6.9-1.4 1.8-2.6 1.8-1.8 1-.8 1-.6.9-.5 1.1-.4 1.1-.2z" fill="url(#ai)"/><path d="m114.8 20.9-2.1-1-1.9-.5h-1.9l-1.8.4-1.6.7-1.6 1-1.5 1.2-1.4 1.5-1.2 1.6-1.1 1.8-1.2 1.8-1.8 3.6-.8 1.7-.7 1.6-.6 1.5.7.2.6.1.7.1.6.2 1.2.2.7.2.8.1.3-1.1 1.2-2.6 1.6-2.8 2-2.8 1.1-1.4 1.1-1.3 1.2-1.3 1.3-1.1 1.2-1 1.3-.9 1.2-.8 1.2-.6 1.2-.3z" fill="url(#aj)"/><path d="m121.4 22.6-2.1-1.2-2.1-.5h-2.1l-2 .6-1.9.9-1.9 1.4-1.7 1.6-1.7 1.7-1.5 1.9-1.3 1.9-1.2 1.9-1 1.8-.8 1.5-.7 1.4-.3 1-.2.6.9.1.7.2.8.2.7.2.8.1.7.1.8.2.7.1 1.8-3.6.8-1.4.9-1.6.9-1.5 1-1.5 1.1-1.6 1.1-1.5 1.1-1.3 1.3-1.2 1.2-1 1.3-.8 1.2-.6 1.4-.2z" fill="url(#ak)"/><path d="m126.2 24.4-1.9-1.3-1.9-.7-1.7-.1-1.8.3-1.6.7-1.6 1-1.4 1.3-1.4 1.6-1.3 1.7-1.2 1.8-1.1 1.8-1.1 1.9-.9 1.7-.8 1.7-.6 1.4-.6 1.1.7.1.6.2 1 .4.5.1.5.2.4.1.6.1.5-1.4.6-1.5 1.4-2.8.8-1.4.8-1.2.9-1.3 1-1.2 1.1-1.2 1.1-1.1 1.2-.9 1.3-.9 2.8-1.4 1.5-.4 1.6-.4z" fill="url(#al)"/><path d="m132.3 25.8-1.7-.6-1.7-.4-1.8-.2-1.6.2-1.7.3-1.6.5-1.5.9-1.6.9-1.5 1.2-1.4 1.4-1.3 1.5-1.3 1.7-1.2 1.9-2.1 4.2-.9 2.2.8.2.8.1.7.2.8.2.7.2.8.2.7.2.8.1 1-2.6.6-1.3.5-1.4.6-1.2.7-1.3.7-1.2.8-1.2 1-1.1 1.1-1.1 1.2-1 1.3-1 1.6-.8 1.6-.7 2-.7z" fill="url(#am)"/><path d="m140.9 27.8-2.2-.9-2.2-.6-2.1-.3h-2l-1.9.3-1.9.5-1.8.8-1.6.9-1.6 1.3-1.5 1.4-1.3 1.5-1.3 1.8-1.2 1.9-.9 2.1-1 2.1-.8 2.2.7.1.7.2 4 .5.8.2.5-1.7.5-1.5.7-1.5.8-1.5.9-1.3 1-1.3 1-1.2 2.4-2.2 1.4-.8 1.5-.9 1.5-.7 1.6-.5 1.7-.5z" fill="url(#an)"/><path d="m145.1 28.3-1.9-.3-2-.2-1.9.1-1.9.2-1.8.5-1.8.6-1.7.7-1.6 1-1.5 1.1-1.5 1.3-1.2 1.4-1.3 1.5-1 1.8-.9 1.9-.8 2-.6 2.1.7.1 2.4.4.5.1.7.2.8.1 1-1.7.9-1.6.8-1.5.8-1.4.8-1.3.8-1.2.7-1.2 1.8-2 1.1-.9 1.1-.8 1.3-.8 1.5-.6 1.7-.6 1.9-.5z" fill="url(#ao)"/><path d="m154.4 29.5-2.9-.7-2.8-.4-2.5-.1-2.3.2-2.1.5-2 .7-1.8.9-1.7 1.1-1.5 1.3-1.4 1.5-1.3 1.6-1.2 1.7-1.1 1.7-1.1 1.9-.9 1.8-.9 1.9.4.1 1.4.2.7.2.8.1.7.2.6.1h.5l.9-1.7.9-1.6 1.1-1.5 1.1-1.4 1.2-1.4 1.2-1.2 1.3-1.1 1.4-1 1.5-1 1.5-.8 3.2-1.6 3.4-1.2 1.8-.5z" fill="url(#ap)"/><path d="m159.9 30.1-1.6-.3-1.7-.1-1.9.1-1.9.3-1.9.4-2 .6-2 .8-1.9.9-2 1.1-1.9 1.3-1.8 1.4-1.7 1.6-1.6 1.7-1.5 1.9-1.2 2-1.1 2.2 1.6.2.8.2.8.1.7.2.6.2h.8l1.1-.7 1.2-.8 1.2-1 1.3-1 1.3-1.1 1.3-1.2 2.8-2.4 1.5-1.2 1.4-1.2 3-2.4 1.6-1.1 1.5-1 1.7-.9z" fill="url(#aq)"/><path d="m167.7 32.3-1.5-1.5-1.6-.8-1.6-.4-1.7.1-1.7.5-1.9.9-1.8 1.2-2 1.3-2 1.6-2 1.7-2.1 1.8-2 1.8-2.1 1.8-2.1 1.7-2.1 1.6-2.1 1.4.6.1.8.1h.9l1 .1.9.1h1.9l.8-.1 1.5-1.1 1.6-1.2 1.5-1.3 1.4-1.2 1.4-1.3 2.6-2.4 1.4-1.2 1.4-1 1.3-1 1.4-.9 1.5-.8 1.5-.6 1.6-.5 1.6-.3z" fill="url(#ar)"/><path d="m173.5 33-2.4-.6-2.3-.2-2.2.1-2 .4-1.9.7-1.9.9-1.8 1.1-1.7 1.2-3.4 2.8-1.7 1.5-1.6 1.6-1.7 1.4-1.7 1.5-1.8 1.2-1.8 1.3h.6l.7.1.9.2h.9l.8.1.8.2h.6l.3.1h1.1l1-.3 1.1-.6 1.2-.7 1.2-.9 1.2-1.1 4.2-3.9 1.6-1.4 3.4-2.6 2-1.2 1.9-1.2 2.1-.9z" fill="url(#as)"/><path d="m180.8 35-2.1-1.2-2.3-.5h-2.2l-2.3.5-2.2.8-2.3 1.3-2.2 1.4-2.2 1.6-2 1.7-2 1.8-1.9 1.6-1.8 1.5-1.5 1.3-1.5 1-1.3.6-1.1.2 1 .1.9.2 1.2.1 1.1.2 1.2.1 1.1.2 1.2.1h.9l1.7-1.2 1.4-1.2 1.4-1.1 1.2-1.2 1.2-1.1 1.1-1.1 1.2-1 1.1-1 1.1-.9 1.2-.9 1.3-.8 1.4-.8 1.5-.7 1.6-.6 1.9-.5z" fill="url(#at)"/></g><g><path d="m39.7 11.1-.2-.5-.3-.7-.2-.6-.4-1.4-.2-1.4-.1-.8-.1-.7v-2.2l.2-1.4.2-.7.2-.6-1 1.2-.7 1.3-.5 1.3-.3 1.4-.1 1.4v1.4l.2 1.4.3 1.4.3 1.3.5 1.4.5 1.3.5 1.4.6 1.2.5 1.3.6 1.2.5 1.2-.1-.3-.1-.4v-.9l-.1-.7v-2l-.1-.8v-1.6l-.1-.7v-.7l-.2-.7-.1-.7z" fill="url(#av)"/><path d="m22 35.3 1.1-.6 2.2-1.4 3-1.8.9-.6 1-.6.9-.6 1-.6.9-.7 1-.5.9-.6 1-.5 1.1-.6 1-.6-.9.9-.9 1-1 .9-.9.9-1 .9-3 2.4-1 .7-1.1.6-1 .5-2 .8-1.1.1-1 .1z" fill="url(#aw)"/><path d="m30.7 12 .8.5.7.5.8.5.7.6.7.5.6.6.7.6 1.2 1.2.6.7.6.6.5.7.6.6 1.5 2.1-.2-.7-.9-2.4-.8-1.6-.4-.7-.6-.8-.5-.7-.8-.6-.7-.6-.8-.5-1-.4-.9-.3-1.2-.3-1.2-.1z" fill="url(#ax)"/><path d="m39.3 5 .3 1.2.1 1.2.3 1.1.2 1.1.1 1.1.1 1 .2 1.1.1 1 .2 1.1.2 2 .2 1.1.2 1 .2 1.1.2 1 .2 1.1.2-1.3.1-1.2.2-1.3.1-1.3v-1.2l.1-1.2-.1-1.2v-1.2l-.2-1.2-.1-1-.3-1.1-.8-1.8-.6-.8-.6-.7-.8-.7z" fill="url(#ay)"/><path d="m33.1 3.1-1 1-.7 1.1-.3 1.2v1.2l.2 1.2.5 1.3.6 1.3.8 1.3.8 1.2 2 2.4 1 1 .9 1.1.8.8.7.9.6.6-.1-1.8-.3-1.5-.3-1.3-.4-1.1-.5-1-.6-.9-1.2-1.6-.6-.7-1.2-1.6-.5-.9-.8-2.2-.3-1.4-.1-1.6z" fill="url(#az)"/><path d="m40.6 21.7v-2.3l.1-1.2v-1.2l.3-3.3.1-1 .4-2.2.3-1.1.2-1 .3-1 .4-1.1.4-1 .4-1.1-1.7 1.6-1.4 1.6-.9 1.5-.7 1.4-.5 1.3-.2 1.2-.1 1.3.1 1.1.6 2 .4.9.4.8.4.9.6 1.4z" fill="url(#aA)"/><path d="m23.5 25.8.9.1 1 .2.9.1.9.2h1l.9.1h1.8l.9-.1h.9l1.8-.2h1l.8-.1 1-.2.8-.1-.7.4-2.4.9-.9.3-.9.2-.9.3-.9.1h-2.9l-1-.2-1-.3-1-.4-1-.6z" fill="url(#aB)"/><path d="m28.9 30.5-.7.1-.6.1-1.4.4-.7.3-.7.2-.6.3-.7.3-.7.4-1.8 1.2-.5.5-.5.4-.4.5-.5.5.5-1.4.6-1.2.7-1 1-1 1-.8 1.2-.8 2.6-1.2 1.4-.4 1.4-.5 1.5-.4 1.4-.3 1.5-.3 1.4-.3 1.3-.2 1.2-.3-.6.2-.9.5-1 .7-1.3.7-1.3.9-2.6 1.4z" fill="url(#aC)"/><path d="m26.3 40.9-.6-1.3-.1-1.3.1-1.3.5-1.2.7-1.1.9-1.1 1.1-1 1.3-.9 1.2-1 2.8-1.6 1.3-.7 1.2-.7 1.2-.5 1-.6.7-.4-.8 1.7-.8 1.4-.9 1.1-.8 1-.8.7-.9.7-.9.5-.9.6-.8.5-1.8 1.2-.8.7-.8.8-.8 1.1-.8 1.2-.7 1.5z" fill="url(#aD)"/><path d="m40.9 26.6-.6 1-.7 1-.6.9-.6 1-.5.9-.5 1-.5.9-1 2-.4 1-.4.9-.9 3-.3 1.1-.2 1.1-.6-2.2-.3-2v-1.7l.2-1.5.3-1.3.5-1.2.7-1 .7-.8 1.6-1.4.9-.5.8-.5 1.4-.8.6-.5z" fill="url(#aE)"/></g></g></g></svg>