<svg xmlns="http://www.w3.org/2000/svg" viewBox="0 0 2500 2575" xmlns:v="https://vecta.io/nano"><filter id="A" height="200%" width="200%" x="-50%" y="-50%"><feOffset dy="2" in="SourceAlpha"/><feGaussianBlur stdDeviation="2"/><feColorMatrix result="C" values="0 0 0 0 0 0 0 0 0 0 0 0 0 0 0 0 0 0 0.273992301 0"/><feMerge><feMergeNode in="C"/><feMergeNode in="SourceGraphic"/></feMerge></filter><linearGradient id="B" gradientUnits="userSpaceOnUse" x1="1250" x2="1250" y1="74.775" y2="2324.775"><stop offset="0" stop-color="#29abe2"/><stop offset=".476" stop-color="#28a9e1"/><stop offset=".664" stop-color="#23a2dc"/><stop offset=".801" stop-color="#1a96d4"/><stop offset=".913" stop-color="#0e85c9"/><stop offset="1" stop-color="#0071bc"/></linearGradient><path d="M2500 2075c0 275-225 500-500 500H500c-275 0-500-225-500-500V575C0 300 225 75 500 75h1500c275 0 500 225 500 500z" fill="#115a91"/><path d="M2000 350c124.1 0 225 100.9 225 225v1250c0 124.1-100.9 225-225 225H500c-124.1 0-225-100.9-225-225V575c0-124.1 100.9-225 225-225z" fill="#fff"/><path d="M2000 350c124.1 0 225 100.9 225 225v1250c0 124.1-100.9 225-225 225H500c-124.1 0-225-100.9-225-225V575c0-124.1 100.9-225 225-225zm0-275H500C225 75 0 300 0 575v1250c0 275 225 500 500 500h1500c275 0 500-225 500-500V575c0-275-225-500-500-500z" fill="url(#B)"/><g filter="url(#A)"><path d="M1950 600v1200h-625v-300h350V875h-350V600z" fill="#4d4d4d"/></g><g filter="url(#A)"><path d="M1175 600v275H825v625h350v300H550V600z" fill="#4d4d4d"/></g></svg>