<svg xmlns="http://www.w3.org/2000/svg" width="2443" height="2500" viewBox="0 0 256 262" preserveAspectRatio="xMidYMid" xmlns:v="https://vecta.io/nano"><path d="M136.442 1.515l114.7 53.622c2.027.948 4.685 1.593 4.688 4.463.004 2.875-2.65 3.515-4.682 4.464a76682.54 76682.54 0 0 1-114.45 53.437c-5.814 2.707-11.784 2.672-17.605-.04A104726.907 104726.907 0 0 1 4.403 63.907C2.436 62.987-.04 62.29.038 59.494c.072-2.617 2.44-3.297 4.332-4.182L119.94 1.344c4.062-1.88 12.27-1.753 16.502.17zm-8.562 260.047c-2.767 0-4.84-1.05-8.794-2.53L4.628 205.686C2.6 204.74-.024 204.07 0 201.182c.025-2.873 2.652-3.507 4.68-4.47l19.038-8.893c6.35-2.943 12.657-2.902 19.025.083l75.876 35.465c6.28 2.936 12.506 2.875 18.778-.063a70166.124 70166.124 0 0 1 76.108-35.573c5.992-2.797 12.063-2.875 18.083-.147l20.214 9.405c.997.47 2.008.998 2.843 1.7 1.797 1.515 1.82 3.566-.013 5.035-1.115.893-2.45 1.55-3.757 2.16l-113.527 52.922c-2.944 1.364-6.7 2.757-9.468 2.757zm-.134-70.823c-1.265 0-6.18-1.342-8.978-2.64L4.783 134.907c-2.04-.954-4.7-1.57-4.753-4.412-.056-3.015 2.728-3.618 4.828-4.617l19.247-9.014c6.104-2.804 12.218-2.738 18.317.1l76.623 35.746c5.915 2.752 11.922 2.73 17.842-.025l76.86-35.844c5.924-2.76 11.9-2.76 17.838-.054l20.19 9.414c.923.434 1.87.892 2.66 1.52 2.04 1.62 2.023 3.76-.04 5.38-.794.625-1.737 1.086-2.66 1.518l-115.148 53.725c-2.64 1.227-7.578 2.385-8.842 2.385z"/></svg>