<svg id="b2e1d227-7df7-4c24-ad3e-a61c3e485ea8" data-name="Layer 1" xmlns="http://www.w3.org/2000/svg" viewBox="0 0 245 345"><title>bugsnag-monogram-full</title><circle cx="122.5" cy="223.8" r="13.92" fill="#000d47"/><path d="M122.5,340.52A116.85,116.85,0,0,1,5.78,223.8V165.92a8.69,8.69,0,0,1,8.68-8.69h41.4l-.14-134L23.14,43.28v76.3a8.68,8.68,0,0,1-17.36,0V42.29A15.67,15.67,0,0,1,13.21,29L49.3,6.79A15.6,15.6,0,0,1,73.08,20.08l.15,137.15H122.5A66.57,66.57,0,1,1,55.94,223.8l-.06-49.2H23.14v49.2a99.36,99.36,0,1,0,99.36-99.36H107.44a8.68,8.68,0,0,1,0-17.36H122.5a116.72,116.72,0,0,1,0,233.44ZM73.25,174.6l0,49.19a49.2,49.2,0,1,0,49.2-49.19Z" fill="#000d47"/></svg>