<svg xmlns="http://www.w3.org/2000/svg" fill="none" height="2500" viewBox="204.925 153.577 757.617 860.543" width="2500" xmlns:v="https://vecta.io/nano"><path d="M962.54 407.983c0-14.237-3.034-27.074-9.336-37.81-6.068-10.736-15.17-19.605-27.307-26.607l-302.72-174.35c-27.308-15.638-53.45-15.17-80.523.7L241.57 343.565c-24.74 14.237-36.644 36.177-36.644 64.652V759.25c0 14.004 3.034 26.374 8.87 37.11 6.07 10.97 15.405 20.306 27.775 27.54l301.086 173.65c27.074 15.868 53.448 16.568 80.523.7l302.72-174.35c12.603-7.235 21.706-16.338 27.774-27.54 5.835-10.737 8.87-23.107 8.87-37.11z" fill="#9a4993"/><g fill="#6a1577"><path d="M584.667 582.333l-371.34 213.794c6.07 10.97 15.405 20.306 27.775 27.542l301.086 173.65c27.074 15.872 53.45 16.572 80.523.7l302.72-174.35c12.603-7.236 21.706-16.338 27.774-27.542z"/><path d="M474.735 645.584c21.707 37.81 62.318 63.252 108.765 63.252 46.913 0 87.758-25.674 109.23-63.952l-108.064-62.55z"/></g><path d="M962.542 407.983c0-14.237-3.035-27.074-9.336-37.81l-368.54 212.16 369.005 213.795c5.835-10.737 8.87-23.107 8.87-37.11z" fill="#813084"/><g fill="#fff"><path d="M692.73 644.884c-21.472 38.044-62.317 63.952-109.23 63.952-46.68 0-87.29-25.44-108.764-63.252-10.503-18.438-16.572-39.444-16.572-62.084 0-69.32 56.016-125.336 125.336-125.336 46.213 0 86.592 25.207 108.298 62.55l109.464-63.018c-43.645-75.154-124.87-125.802-217.995-125.802-139.107 0-251.605 112.732-251.605 251.605 0 45.513 12.136 88.46 33.376 125.336 43.412 75.388 125.102 126.27 218.462 126.27 93.594 0 175.284-51.114 218.696-126.97zm138.406-120.9h-24.974V644.65h24.974zm55.316 0H861.48V644.65h24.974z"/><path d="M906.76 544.29H786.09v24.974H906.76zm0 55.082H786.09v24.974H906.76z"/></g></svg>