<svg xmlns="http://www.w3.org/2000/svg" width="192" height="192" xmlns:v="https://vecta.io/nano"><path fill="#36a2eb" d="M161.27 96.556c-22.368.44-17.71 14.6-33.473 18.18-16.014 3.638-18.542-39.11-34.552-39.11s-19.56 41.526-39.608 70.034l-.572.807L96.05 171.28l65.22-37.65V96.556z"/><path fill="#ffce56" d="M161.27 95.267c-7.488-9.6-12.567-20.658-23.494-20.658-19.337 0-14.25 31.545-35.62 31.545s-23.62-33.93-47.832-2.035C46.6 114.282 40.4 125.614 35.522 136.337l60.53 34.943 65.22-37.65V95.267z"/><path opacity=".8" fill="#fe6184" d="M30.83 108.334c7.338-20.32 10.505-36.78 24.514-36.78 21.37 0 26.458 60.04 44.78 53.93s16.282-38.67 44.78-38.67c5.424 0 10.962 3.323 16.37 8.698v38.113l-65.22 37.65-65.222-37.65v-25.294z"/><path fill="#e7e9ed" d="M96 176l-69.292-40V56L96 16l69.292 40v80L96 176zm-61.15-44.7l61.15 35.3 61.15-35.3V60.7L96 25.4 34.85 60.7v70.6z"/></svg>