<svg xmlns="http://www.w3.org/2000/svg" width="256" height="246" preserveAspectRatio="xMidYMid" xmlns:v="https://vecta.io/nano"><defs><linearGradient x1="99.140087%" y1="112.708084%" x2="33.8589812%" y2="37.7549606%" id="A"><stop stop-color="#0052cc" offset="18%"/><stop stop-color="#2684ff" offset="100%"/></linearGradient><linearGradient x1="0.92569163%" y1="-12.5823074%" x2="66.1800713%" y2="62.3057471%" id="B"><stop stop-color="#0052cc" offset="18%"/><stop stop-color="#2684ff" offset="100%"/></linearGradient></defs><path d="M9.26 187.33l-8.127 13.287a8.13 8.13 0 0 0 2.722 11.052l52.823 32.506c1.854 1.145 4.1 1.497 6.207.977s3.935-1.867 5.05-3.74l7.802-13.043c20.926-34.538 41.974-30.312 79.925-12.2l52.376 24.908c1.984.944 4.265 1.045 6.324.28s3.72-2.332 4.606-4.343l25.152-56.886a8.13 8.13 0 0 0-4.063-10.646l-52.823-25.11c-71.19-34.58-131.692-32.344-177.973 42.95z" fill="url(#A)"/><path d="M246.115 58.232l8.127-13.287a8.13 8.13 0 0 0-2.722-11.052L198.696 1.386C196.827.127 194.52-.3 192.323.2s-4.082 1.906-5.207 3.86l-7.802 13.043C158.388 51.65 137.34 47.424 99.39 29.3L47.176 4.515c-1.984-.944-4.265-1.045-6.324-.28s-3.72 2.332-4.606 4.343L11.094 65.465a8.13 8.13 0 0 0 4.063 10.646l52.823 25.11c71.352 34.538 131.854 32.222 178.135-43z" fill="url(#B)"/></svg>