<svg xmlns="http://www.w3.org/2000/svg" width="2222" height="2500" viewBox="0 0 256 288" preserveAspectRatio="xMinYMin meet" xmlns:v="https://vecta.io/nano"><path d="M255.57 84.72c-.002-4.83-1.035-9.098-3.124-12.76-2.052-3.602-5.125-6.62-9.247-9.008L141.1 4.134c-9.17-5.294-18.06-5.1-27.163.27L12.385 62.94C4.064 67.757.015 75.13.013 84.71L0 203.076c.002 4.724.99 8.91 2.988 12.517 2.053 3.71 5.17 6.813 9.386 9.254l101.56 58.536c9.106 5.373 17.997 5.565 27.17.27l102.105-58.817c4.217-2.44 7.333-5.544 9.386-9.252 1.994-3.608 2.985-7.793 2.987-12.518L255.57 84.72" fill="#5c8dbc"/><g fill="#1a4674"><path d="M128.182 143.51L2.988 215.593c2.053 3.71 5.17 6.813 9.386 9.254l101.56 58.536c9.106 5.373 17.997 5.565 27.17.27l102.105-58.817c4.217-2.44 7.333-5.544 9.386-9.252L128.182 143.51"/><path d="M91.1 164.86c7.285 12.718 20.98 21.296 36.7 21.296 15.807 0 29.58-8.687 36.828-21.54l-36.437-21.107L91.1 164.86"/></g><path d="M255.57 84.72c-.002-4.83-1.035-9.098-3.124-12.76l-124.263 71.55 124.413 72.074c1.994-3.608 2.985-7.793 2.987-12.518L255.57 84.72" fill="#1b598e"/><path d="M248.728 148.66h-9.722v9.724h-9.724v-9.724h-9.72v-9.72h9.72v-9.722h9.724v9.722h9.722v9.72m-35.475 0h-9.72v9.724H193.8v-9.724h-9.722v-9.72h9.722v-9.722h9.722v9.722h9.72v9.72m-48.622 15.956c-7.248 12.854-21.02 21.54-36.828 21.54-15.7 0-29.405-8.578-36.7-21.296a42.062 42.062 0 0 1-5.574-20.968c0-23.34 18.923-42.263 42.264-42.263 15.6 0 29.232 8.47 36.553 21.06l36.94-21.272C186.602 76.07 159.2 59.02 127.8 59.02c-46.876 0-84.875 38-84.875 84.874 0 15.378 4.1 29.8 11.24 42.238 14.646 25.48 42.137 42.637 73.634 42.637 31.555 0 59.1-17.226 73.714-42.78l-36.886-21.37" fill="#fff"/></svg>