<svg xmlns="http://www.w3.org/2000/svg" height="38" viewBox="0 0 481 89" width="300" xmlns:v="https://vecta.io/nano"><defs><linearGradient x1="66" y1="50" x2="60" y2="99" id="A" gradientUnits="userSpaceOnUse"><stop offset="0" stop-color="#fff"/><stop offset="1" stop-color="#fff" stop-opacity="0"/></linearGradient></defs><path d="M0 0h481v89H0z" fill="#b03931"/><g transform="translate(181)"><ellipse cx="-4.5" cy="308" rx="310" ry="266" fill="url(#A)" opacity=".3"/><g fill="#fff"><ellipse rx="12" ry="11" transform="matrix(1.430781 0 0 1.430781 83.217726 32.792769)"/><ellipse rx="12" ry="11" transform="matrix(.459728 0 0 .459728 102.782334 15.497389)"/><path d="M13.33 12.167c-1.195.148-2.132 1.102-2.136 2.257l.075 58.97c0 .893.242 2.735 2.754 2.735l22.583-.1c6.455-.012 10.78-.122 13.354-.447h.06c2.464-.342 5.074-.973 7.913-1.894 4.934-1.543 9.31-3.822 13.07-6.866 3.683-2.95 6.537-6.44 8.543-10.368s3.017-8.08 3-12.386c-.01-5.993-1.824-11.604-5.46-16.653s-8.603-8.915-14.714-11.476c-6.212-2.634-14.312-3.834-24.36-3.816l-24.387.036c-.105.001-.204-.012-.306 0zM26.455 24.3l10.512-.015c4.913-.01 8.408.14 10.39.413 2 .276 4.21.86 6.542 1.76 2.3.88 4.324 1.958 6.055 3.3 4.76 3.702 7.006 8.083 7.016 13.883.01 5.94-2.158 10.566-6.796 14.446-1.427 1.178-3.013 2.176-4.763 3.002-1.654.77-3.812 1.434-6.537 2.007-2.57.514-6.47.807-11.55.816l-10.818.016-.05-39.627z"/></g></g></svg>