<svg xmlns="http://www.w3.org/2000/svg" width="2500" height="2383" viewBox="0 0 256 244" preserveAspectRatio="xMinYMin meet" xmlns:v="https://vecta.io/nano"><defs><linearGradient x1="49.997%" y1="-19.516%" x2="49.997%" y2="129.625%" id="A"><stop stop-color="#0994dc" offset="0%"/><stop stop-color="#66cef5" offset="35.001%"/><stop stop-color="#66cef5" offset="35.001%"/><stop stop-color="#127bca" offset="84.616%"/><stop stop-color="#127bca" offset="100%"/></linearGradient><linearGradient x1="50.001%" y1="-19.516%" x2="50.001%" y2="129.624%" id="B"><stop stop-color="#0e76bc" offset="0%"/><stop stop-color="#36aee8" offset="36%"/><stop stop-color="#36aee8" offset="36%"/><stop stop-color="#00adef" offset="84.616%"/><stop stop-color="#00adef" offset="100%"/></linearGradient><linearGradient x1="49.999%" y1="110.922%" x2="49.999%" y2="-6.214%" id="C"><stop stop-color="#1c63b7" offset="0%"/><stop stop-color="#33bdf2" offset="50%"/><stop stop-color="#33bdf2" stop-opacity=".42" offset="100%"/></linearGradient><linearGradient x1="50.001%" y1="-19.515%" x2="50.001%" y2="129.627%" id="D"><stop stop-color="#166ab8" offset="0%"/><stop stop-color="#36aee8" offset="39.999%"/><stop stop-color="#36aee8" offset="39.999%"/><stop stop-color="#0798dd" offset="84.616%"/><stop stop-color="#0798dd" offset="100%"/></linearGradient><linearGradient x1="49.999%" y1="-19.521%" x2="49.999%" y2="129.627%" id="E"><stop stop-color="#124379" offset="0%"/><stop stop-color="#1487cb" offset="39%"/><stop stop-color="#1487cb" offset="39%"/><stop stop-color="#165197" offset="78.023%"/><stop stop-color="#165197" offset="100%"/></linearGradient><linearGradient x1="0%" y1="50.001%" y2="50.001%" id="F"><stop stop-color="#33bdf2" stop-opacity=".698" offset="0%"/><stop stop-color="#1dacd8" offset="100%"/></linearGradient><linearGradient x1="50.01%" y1="94.686%" x2="50.01%" y2="-3.025%" id="G"><stop stop-color="#136ab4" offset="0%"/><stop stop-color="#59caf5" stop-opacity=".55" offset="60%"/><stop stop-color="#59caf5" stop-opacity=".235" offset="100%"/></linearGradient><linearGradient x1="-.001%" y1="50%" x2="99.999%" y2="50%" id="H"><stop stop-color="#05a1e6" stop-opacity=".247" offset="0%"/><stop stop-color="#05a1e6" offset="100%"/></linearGradient><linearGradient x1="49.998%" y1="124.314%" x2="49.998%" y2="-9.421%" id="I"><stop stop-color="#318ed5" offset="0%"/><stop stop-color="#38a7e4" offset="100%"/></linearGradient><linearGradient x1="49.999%" y1="91.2%" x2="49.999%" y2="-76.785%" id="J"><stop stop-color="#05a1e6" offset="0%"/><stop stop-color="#05a1e6" stop-opacity=".55" offset="100%"/></linearGradient><linearGradient x1="50%" y1="100.01%" x2="50%" y2=".01%" id="K"><stop stop-color="#1959a6" offset="0%"/><stop stop-color="#05a1e6" offset="50%"/><stop stop-color="#05a1e6" offset="50%"/><stop stop-color="#7ec5ea" offset="91.759%"/><stop stop-color="#7ec5ea" offset="100%"/></linearGradient><linearGradient x1="59.804%" y1="94.568%" x2="38.471%" y2="5.755%" id="L"><stop stop-color="#165096" offset="0%"/><stop stop-color="#0d82ca" offset="100%"/></linearGradient><linearGradient x1="49.995%" y1="76.998%" x2="49.995%" y2="-3.299%" id="M"><stop stop-color="#05a1e6" offset="0%"/><stop stop-color="#0495d6" offset="87.363%"/><stop stop-color="#0495d6" offset="100%"/></linearGradient><linearGradient x1="65.263%" y1="-4.161%" x2="34.263%" y2="105.844%" id="N"><stop stop-color="#38a7e4" stop-opacity=".33" offset="0%"/><stop stop-color="#0e88d3" offset="96.153%"/><stop stop-color="#0e88d3" offset="100%"/></linearGradient><linearGradient x1="50.017%" y1="-.296%" x2="50.017%" y2="101.882%" id="O"><stop stop-color="#168cd4" offset="0%"/><stop stop-color="#1c87cc" offset="50%"/><stop stop-color="#154b8d" offset="100%"/></linearGradient><linearGradient x1="16.674%" y1="205.565%" x2="87.813%" y2="-19.836%" id="P"><stop stop-color="#97d6ee" offset="0%"/><stop stop-color="#55c1ea" offset="70.329%"/><stop stop-color="#55c1ea" offset="100%"/></linearGradient><linearGradient x1="6.89%" y1="6.3%" x2="75.783%" y2="116.771%" id="Q"><stop stop-color="#7accec" offset="0%"/><stop stop-color="#3fb7ed" offset="100%"/></linearGradient><linearGradient x1="49.997%" y1="6.363%" x2="49.997%" y2="127.961%" id="R"><stop stop-color="#1da7e7" offset="0%"/><stop stop-color="#37abe7" stop-opacity="0" offset="100%"/></linearGradient></defs><path d="M214.27 128.006c0-.43-.12-.737-.36-.937-.27-.216-.733-.33-1.38-.33h-.928v2.552h1.12c1.035 0 1.546-.43 1.546-1.284zm1.447 5.32h-1.276l-.814-1.795c-.413-.9-.855-1.35-1.337-1.35h-.687v3.145h-1.052v-7.484h2.107c.936 0 1.64.203 2.122.626a1.79 1.79 0 0 1 .614 1.41c0 .516-.167.95-.503 1.3-.327.363-.798.6-1.4.736v.032c.417.098.834.556 1.24 1.382l.985 1.992v-.004zm2.33-3.668c0-1.473-.502-2.716-1.504-3.702s-2.233-1.48-3.68-1.48c-1.494 0-2.737.495-3.722 1.5s-1.477 2.233-1.477 3.693c0 1.493.512 2.74 1.526 3.734 1.002.993 2.23 1.484 3.672 1.484a5.01 5.01 0 0 0 3.673-1.5c1-1 1.513-2.233 1.513-3.717zm.708-.033c0 1.653-.568 3.04-1.7 4.155-1.14 1.125-2.54 1.685-4.212 1.685-1.685 0-3.084-.552-4.196-1.636-1.113-1.1-1.665-2.482-1.665-4.16 0-1.64.565-3.018 1.693-4.15s2.536-1.693 4.217-1.693c1.648 0 3.03.54 4.15 1.615 1.15 1.104 1.722 2.494 1.722 4.183zM58.8 150.495h-3.628v-20.76c0-1.64.108-3.635.3-6h-.08c-.34 1.377-.65 2.375-.925 2.993l-10.543 23.757h-1.767L31.593 126.9c-.297-.66-.6-1.718-.924-3.166h-.078c.1 1.24.173 3.248.173 6.032v20.72h-3.497V119.58h4.785l9.484 21.556c.716 1.624 1.178 2.86 1.403 3.702h.15l1.48-3.792 9.7-21.466h4.54v30.914zm11.157-.001h-3.525v-22.076h3.525v22.076zm.6-30a2.21 2.21 0 0 1-.683 1.64 2.24 2.24 0 0 1-1.644.67 2.28 2.28 0 0 1-1.628-.645c-.45-.434-.67-.986-.67-1.665a2.19 2.19 0 0 1 .67-1.623 2.24 2.24 0 0 1 1.628-.655c.646 0 1.198.213 1.644.655a2.18 2.18 0 0 1 .683 1.623zm21.42 28.968c-1.693 1.04-3.714 1.554-6.05 1.554-3.165 0-5.713-1.05-7.66-3.15-1.9-2.036-2.842-4.666-2.842-7.9 0-3.615 1.035-6.543 3.12-8.768 2.074-2.23 4.863-3.34 8.372-3.34 1.918 0 3.62.376 5.108 1.12v3.628c-1.648-1.157-3.4-1.73-5.26-1.73-2.25 0-4.077.785-5.496 2.352-1.476 1.603-2.225 3.746-2.225 6.42 0 2.57.683 4.6 2.04 6.102 1.362 1.493 3.174 2.24 5.46 2.24 1.93 0 3.738-.634 5.43-1.897v3.357zM108.85 132c-.622-.48-1.518-.712-2.7-.712-1.435 0-2.642.642-3.62 1.938-1.108 1.448-1.66 3.452-1.66 6.012v11.255h-3.534v-22.076h3.534v4.552h.085c.52-1.612 1.32-2.85 2.392-3.73 1.002-.802 2.135-1.207 3.382-1.207.94 0 1.64.102 2.12.3V132zm19.693 7.496c0-2.826-.638-4.985-1.914-6.466-1.24-1.423-2.97-2.135-5.198-2.135-2.196 0-3.96.72-5.276 2.16-1.394 1.537-2.1 3.7-2.1 6.527 0 2.642.663 4.715 2 6.195 1.33 1.5 3.12 2.233 5.366 2.233 2.323 0 4.102-.756 5.32-2.26 1.195-1.472 1.792-3.554 1.792-6.253m3.623-.125c0 3.518-.993 6.344-2.973 8.462-1.987 2.127-4.662 3.2-8.024 3.2-3.312 0-5.95-1.063-7.884-3.2-1.894-2.05-2.847-4.756-2.847-8.122 0-3.84 1.076-6.8 3.235-8.903 1.996-1.95 4.666-2.932 8.012-2.932 3.292 0 5.864 1.026 7.717 3.06 1.836 2.044 2.764 4.858 2.764 8.436m17.524 5.217c0 1.807-.675 3.304-2.03 4.498-1.476 1.292-3.504 1.94-6.056 1.94-2.1 0-3.922-.438-5.476-1.33v-3.8c1.73 1.407 3.64 2.115 5.738 2.115 2.797 0 4.2-1.03 4.2-3.084 0-.863-.308-1.58-.93-2.13-.62-.565-1.828-1.24-3.623-2.03-1.85-.8-3.166-1.64-3.942-2.502-.933-1.023-1.403-2.35-1.403-3.987 0-1.833.732-3.358 2.18-4.573s3.316-1.828 5.606-1.828c1.755 0 3.325.344 4.72 1.035v3.558c-1.456-1.05-3.12-1.575-5-1.575-1.17 0-2.1.292-2.8.86-.707.58-1.063 1.32-1.063 2.224 0 .978.298 1.738.888 2.282.523.503 1.635 1.117 3.312 1.832 1.885.8 3.247 1.608 4.077 2.446 1.076 1.06 1.62 2.4 1.62 4.05m21.595-5.092c0-2.826-.638-4.985-1.918-6.466-1.235-1.423-2.97-2.135-5.194-2.135-2.196 0-3.96.72-5.284 2.16-1.4 1.537-2.082 3.7-2.082 6.527 0 2.642.663 4.715 1.988 6.195 1.345 1.5 3.137 2.233 5.378 2.233 2.327 0 4.102-.756 5.32-2.26 1.194-1.472 1.792-3.554 1.792-6.253m3.63-.125c0 3.518-1.002 6.344-2.985 8.462-1.98 2.127-4.654 3.2-8.016 3.2-3.317 0-5.955-1.063-7.9-3.2-1.893-2.05-2.846-4.756-2.846-8.122 0-3.84 1.083-6.8 3.23-8.903 1.996-1.95 4.67-2.932 8.02-2.932 3.293 0 5.86 1.026 7.7 3.06 1.84 2.044 2.776 4.858 2.776 8.436m15.57-18.454c-.695-.385-1.467-.58-2.347-.58-2.474 0-3.7 1.558-3.7 4.68v3.402h5.173v2.994h-5.173V150.5H180.9v-19.1h-3.754v-2.994h3.754v-3.578c0-2.43.745-4.336 2.258-5.7 1.296-1.194 2.883-1.787 4.768-1.787 1.093 0 1.943.13 2.56.385v3.2zm13.947 29.354c-.834.48-1.947.716-3.32.716-3.852 0-5.778-2.172-5.778-6.515V131.42h-3.787v-2.998h3.787v-5.386l3.54-1.145v6.53h5.558v2.998h-5.558v12.457c0 1.48.242 2.54.748 3.153.512.634 1.346.945 2.524.945.88 0 1.64-.236 2.286-.712v3.014zM13.414 236.653c0 1.73-.617 3.226-1.864 4.5s-2.753 1.894-4.524 1.894c-1.73 0-3.202-.634-4.408-1.894S.8 238.383.8 236.653c0-1.78.6-3.28 1.808-4.523s2.678-1.865 4.408-1.865c1.77 0 3.28.626 4.524 1.9s1.864 2.764 1.864 4.498m79.117 5.084H81.007l-41.833-64.604a29.646 29.646 0 0 1-2.536-5.088h-.344c.298 1.73.45 5.443.45 11.132v58.56h-9.5v-81.053h12.33l40.582 63.586c1.616 2.523 2.72 4.33 3.28 5.42h.226c-.377-2.332-.573-6.307-.573-11.918v-57.087h9.443v81.053zm60.905 0h-42.958v-81.053h41.093v8.6h-31.6v26.962h29.282v8.593H119.97v28.316h33.465v8.593zm65.16-72.463H195.24v72.464h-9.497v-72.464h-23.4v-8.593h56.236v8.593z"/><path d="M89.3 20.69c9.164 28.026 12.636 78.022 39.436 78.022a32.97 32.97 0 0 0 6.171-.594c-24.362-5.68-27.25-55.132-42.115-80.74a123.34 123.34 0 0 0-3.493 3.313" fill="url(#A)"/><path d="M92.802 17.376c14.866 25.61 17.753 75.06 42.115 80.74 1.914-.35 3.832-.883 5.754-1.554C118.804 85.85 112.76 37.828 95.877 14.7a105.2 105.2 0 0 0-3.075 2.667" fill="url(#B)"/><path d="M114.22 2.145c-2.036 0-4.102.2-6.175.594-5.423 1.022-10.932 3.357-16.485 6.9 1.517 1.497 2.96 3.2 4.318 5.08 5.648-4.687 11.26-8.15 16.85-10.232a37.568 37.568 0 0 1 6.285-1.747 19.364 19.364 0 0 0-4.793-.585" fill="#14559a"/><path d="M157.74 86.687l6.724-5.893c-9.312-27.896-12.645-78.607-39.633-78.607a31.94 31.94 0 0 0-5.82.54c24.583 6.114 27.732 59.598 38.73 83.96" fill="url(#C)"/><path d="M119.013 2.728a19.382 19.382 0 0 0-4.793-.584l10.613.04a31.6 31.6 0 0 0-5.82.544" fill="#3092c4"/><path d="M157.27 92.613c-1.055-1.006-2.057-2.1-3.043-3.288-4.54 3.214-9.062 5.652-13.557 7.238a20.881 20.881 0 0 0 5.055 1.722 21.42 21.42 0 0 0 4.306.426c5.043 0 9.03-.597 12.425-2.225-1.87-1-3.583-2.32-5.186-3.873" fill="#1969bc"/><path d="M112.727 4.48c22.018 11.516 23.932 63.668 41.5 84.844 1.196-.845 2.366-1.724 3.5-2.638-10.998-24.362-14.143-77.85-38.72-83.96a38.06 38.06 0 0 0-6.29 1.754" fill="url(#D)"/><path d="M95.877 14.7c16.882 23.118 22.927 71.14 44.794 81.853 4.495-1.586 9.018-4.024 13.557-7.238-17.57-21.176-19.483-73.328-41.5-84.844-5.6 2.078-11.202 5.54-16.85 10.228" fill="url(#E)"/><path d="M78.508 20.014c-2.646 5.983-5.35 13.847-8.617 24.112C76.4 34.97 82.868 27.08 89.3 20.7c-.887-2.728-1.84-5.243-2.867-7.485-2.765 2.125-5.414 4.4-7.934 6.8" fill="url(#F)"/><path d="M88.79 11.48a90.096 90.096 0 0 0-2.344 1.726c1.027 2.24 1.975 4.756 2.863 7.484a135.88 135.88 0 0 1 3.492-3.313c-1.247-2.143-2.572-4.122-4.01-5.897" fill="#2b74b1"/><path d="M91.56 9.63a76.239 76.239 0 0 0-2.772 1.848c1.44 1.775 2.764 3.754 4.016 5.9a93.62 93.62 0 0 1 3.075-2.67c-1.357-1.87-2.8-3.583-4.318-5.08" fill="#125a9e"/><path d="M241.747.01c-12.453 48.025-38.463 86.598-60.27 96.323h-.04a34.66 34.66 0 0 1-1.178.503c-.054.033-.103.037-.144.056-.114.046-.22.082-.335.128-.054.032-.102.043-.15.062-.184.066-.364.12-.544.193-.078.033-.15.053-.225.08-.088.034-.18.063-.27.088-.082.032-.168.056-.262.092-.078.032-.16.046-.233.078-.16.046-.306.085-.466.14-.066 0-.127.036-.196.054-.1.032-.2.055-.316.085-.073.032-.134.043-.212.06-.1.032-.233.062-.344.088l-.417.092a8.88 8.88 0 0 0 3.12.548c20.678 0 41.526-37.056 76.023-98.68h-13.545l.005.01z" fill="url(#G)"/><path d="M65.4 4.094c.013 0 .03-.032.037-.032.017 0 .042 0 .05-.032h.026l.335-.128c.03 0 .045 0 .066-.032.03 0 .057-.033.086-.037l.36-.127h.02l.793-.28c.038 0 .074-.032.12-.032l.34-.1c.053-.033.106-.033.155-.05l.343-.1c.05 0 .094-.033.13-.036l1.137-.294c.053 0 .098-.033.155-.036a2.19 2.19 0 0 1 .332-.066c.05-.032.106-.032.163-.05.1-.032.217-.036.336-.062h.077l.692-.128h.14c.1-.032.208-.036.32-.056.06 0 .122-.032.18-.032.102 0 .204-.033.306-.046.054 0 .106 0 .168-.033l.744-.065-2.2-.115c-23.286 0-55.37 43.207-69.822 99.16h2.785c4.625-8.248 8.78-16.05 12.58-23.376 10.12-39.633 30.737-66.66 49.05-73.822" fill="url(#H)"/><path d="M78.5 20.014a96.72 96.72 0 0 1 7.933-6.81 37.464 37.464 0 0 0-1.889-3.652c-2.13 2.585-4.077 5.996-6.044 10.462m1.912-15.592c1.52 1.276 2.883 3.03 4.13 5.133l1.202-1.346c-1.73-1.615-3.598-2.94-5.627-3.938a2.69 2.69 0 0 0 .249.118s.032.032.046.032" fill="#0d82ca"/><path d="M16.35 77.915C37.584 36.998 47.644 11.102 65.4 4.092c-18.31 7.166-38.93 34.194-49.05 73.823" fill="url(#I)"/><path d="M85.753 8.208L84.55 9.554a37.992 37.992 0 0 1 1.893 3.651 90.096 90.096 0 0 1 2.344-1.725 31.882 31.882 0 0 0-3.035-3.272" fill="#127bca"/><path d="M26 101.107c-.13.033-.262.033-.385.046h-.073c-.11 0-.226.033-.328.033h-.053c-.266.032-.528.032-.78.052h-.082c21.49-.6 31.314-11.36 36.2-26.967l9.414-30.16C60.9 56.78 51.848 71.883 42.757 88.802c-4.384 8.154-11.05 11.56-16.768 12.3" fill="url(#J)"/><path d="M26 101.1c5.717-.728 12.383-4.13 16.767-12.3 9.09-16.914 18.138-32.02 27.13-44.69 3.272-10.27 5.972-18.13 8.622-24.113-17.925 17.062-35.92 45.432-52.52 81.086" fill="url(#K)"/><path d="M16.35 77.916c-3.8 7.324-7.955 15.127-12.58 23.376h8.1A198.004 198.004 0 0 1 16.35 77.92" fill="#05a1e6"/><path d="M72.264 2.326c-.066 0-.115.032-.172.032-.098.033-.2.033-.303.043-.06 0-.118 0-.18.033-.1.032-.212.035-.32.056-.05 0-.098 0-.14.032l-.7.12h-.078c-.12.033-.226.05-.336.066-.057.032-.114.032-.168.045-.1.033-.22.046-.327.066-.057.032-.102.032-.155.035l-1.137.295c-.04 0-.082.032-.13.04l-.344.1c-.05.033-.106.033-.155.046l-.34.1c-.044 0-.08.032-.122.032l-.8.278-.36.125c-.05.032-.093.04-.15.062-.115.036-.23.082-.336.124-.04.033-.082.036-.1.053-17.757 7-27.818 32.905-49.05 73.822-1.962 7.694-3.457 15.5-4.478 23.373h1.137l7.8-.033h3.57c.253-.032.515-.032.78-.053h.05c.1 0 .22-.032.327-.032h.078c.118 0 .253-.032.384-.046 16.6-35.654 34.594-64.024 52.52-81.086C80.5 15.59 82.443 12.18 84.57 9.6c-1.244-2.102-2.606-3.86-4.127-5.136 0 0-.04 0-.044-.033-.087-.035-.168-.078-.254-.12s-.16-.083-.25-.128c-.084-.035-.165-.075-.245-.118-.106-.033-.192-.08-.286-.12l-.225-.098a9.57 9.57 0 0 1-.47-.197c-.07-.032-.135-.05-.2-.075a6.68 6.68 0 0 1-.353-.14c-.057-.033-.122-.04-.188-.063l-.486-.167h-.04c-.188-.062-.372-.108-.564-.16-.045-.033-.082-.033-.127-.04l-.474-.133c-.04 0-.078-.033-.1-.033-.39-.1-.786-.186-1.183-.258-.04 0-.08-.033-.122-.033a6.98 6.98 0 0 0-.511-.082c-.042-.032-.066-.032-.102-.032a13.62 13.62 0 0 0-.606-.079h-.106c-.164-.032-.315-.035-.466-.052-.258.032-.503.046-.745.07" fill="url(#L)"/><path d="M193.104 26.598L182.83 59.364c11.2-15.426 22.252-34.832 32.767-57.226-12.265 3.852-18.81 12.67-22.494 24.46" fill="url(#M)"/><path d="M183.187 95.516l-1.7.818c21.807-9.725 47.817-48.298 60.27-96.323h-2.524c-28.6 51.108-37.812 85.322-56.036 95.505" fill="url(#N)"/><path d="M168.948 91.223c4.744-5.79 8.61-15.635 13.885-31.86-6.086 8.36-12.212 15.545-18.343 21.406 0 .032 0 .032-.032.052 1.337 4.008 2.805 7.545 4.478 10.4" fill="#079ae1"/><path d="M168.948 91.223c-1.615 1.97-3.325 3.472-5.227 4.584l-1.267.68a18.375 18.375 0 0 0 6.653 2.097l1.088.095h.066c.167 0 .343 0 .523.032h1.775c.065 0 .133 0 .2-.032.127 0 .26 0 .392-.033h.194c.134 0 .28-.032.425-.046h.032c.043 0 .09-.032.13-.032.15-.033.308-.046.454-.07h.135l.5-.085h.083l1.018-.216c-2.814-1.03-5.17-3.46-7.198-6.92" fill="#1969bc"/><g fill="#1e5cb3"><path d="M128.746 98.71c2.04 0 4.102-.2 6.172-.597 1.914-.347 3.832-.88 5.754-1.55a20.92 20.92 0 0 0 5.05 1.722 21.46 21.46 0 0 0 4.311.425h-21.287z"/><path d="M150.033 98.71c5.04 0 9.03-.597 12.42-2.225a18.38 18.38 0 0 0 6.654 2.099l1.088.094h.066c.167 0 .343 0 .523.033h.612-21.363z"/></g><path d="M171.408 98.71h1.166c.07 0 .134 0 .2-.032.127 0 .26 0 .397-.033h.193c.134 0 .28-.032.42-.045h.036c.043 0 .085-.032.128-.032.15-.033.307-.046.453-.07.05 0 .09 0 .14-.032l.512-.08h.082l1.017-.216a8.883 8.883 0 0 0 3.12.548l-7.86.032-.006-.04z" fill="#1d60b5"/><path d="M164.47 80.823V80.8a98.108 98.108 0 0 1-6.723 5.893 77.224 77.224 0 0 1-3.513 2.638c.985 1.178 1.987 2.282 3.043 3.29 1.603 1.553 3.316 2.862 5.185 3.872l1.264-.68c1.905-1.112 3.615-2.613 5.23-4.584-1.672-2.855-3.14-6.392-4.478-10.4" fill="#175fab"/><path d="M231.232.01h-12.7l-2.01.098-.937 2.005c-10.514 22.394-21.556 41.8-32.766 57.226-5.272 16.223-9.14 26.067-13.884 31.858 2.028 3.46 4.388 5.893 7.193 6.924.082-.033.148-.033.22-.05h.046c.05 0 .102-.032.155-.032.114-.033.237-.053.352-.088.073-.033.134-.036.208-.06.107-.032.217-.055.315-.08.066-.033.13-.043.196-.056.164-.053.31-.092.467-.14a1.33 1.33 0 0 1 .233-.079c.1-.032.18-.055.262-.094.094-.033.188-.05.27-.085.073-.033.15-.053.22-.082.184-.066.364-.12.548-.193.05 0 .1-.046.152-.056.1-.046.225-.082.335-.13.04-.033.1-.036.143-.053l1.178-.503h.04a33.42 33.42 0 0 0 1.706-.818c18.227-10.183 27.43-44.397 56.04-95.505h-7.99l.01-.004z" fill="url(#O)"/><path d="M73.01 2.257c.045 0 .086 0 .13.032.11 0 .222 0 .332.036h.1l.606.08c.037 0 .07 0 .102.032l.51.085c.037 0 .086.033.127.033l1.178.26c.036 0 .074.033.106.033l.475.134c.05 0 .085.032.13.04l.56.16c.01 0 .02 0 .042.032l.5.167c.067.032.128.046.19.062l.352.144c.065 0 .13.046.2.07l.466.195.23.1c.1.046.183.088.28.12l.25.118.25.128c2.028.998 3.897 2.327 5.627 3.94a18.272 18.272 0 0 1 1.995-1.812C83.965 3.76 79.68 2.23 74.735 2.23a23.36 23.36 0 0 0-1.726.076" fill="#7dcbec"/><path d="M85.753 8.208a31.884 31.884 0 0 1 3.035 3.272A70.897 70.897 0 0 1 91.56 9.63a29.254 29.254 0 0 0-3.815-3.235 17.858 17.858 0 0 0-1.992 1.812" fill="#5ec5ed"/><path d="M72.198 6.285l1.726.07c4.944 0 9.23-1.53 13.013-4.2 3.992 3.15 8.817 4.25 15.52 4.25h-32.46c.75 0 1.48-.045 2.2-.1" fill="url(#P)" transform="matrix(1 0 0 -1 .81 8.541)"/><path d="M102.457 9.63c-6.703 0-11.528-1.1-15.52-4.25a29.485 29.485 0 0 0 3.812-3.234c5.557 3.533 11.062 5.873 16.49 6.895a33.46 33.46 0 0 0 6.17.589h-10.952z" fill="url(#Q)" transform="matrix(1 0 0 -1 .81 11.776)"/><path d="M182.83 59.372l10.277-32.774c3.7-11.795 10.22-20.612 22.485-24.46.324-.66.63-1.338.945-2.004-19.994 1.198-29.34 11.37-34.042 26.43-8.224 26.296-13.206 43.342-18.003 54.204 6.127-5.856 12.253-13.046 18.338-21.397" fill="url(#R)"/><path d="M212.165 91.706H209.9v7.043h-.924v-7.043H206.7v-.838h5.464v.838zm9.277 7.04h-.92v-5.292l.075-1.53c-.095.36-.173.6-.245.77l-2.683 6.052h-.45l-2.7-6.007c-.08-.167-.158-.438-.243-.814h-.032c.032.317.043.83.043 1.542v5.28h-.884v-7.88h1.22l2.417 5.5c.183.413.298.732.356.945h.035l.38-.97 2.467-5.475h1.16v7.88h-.006z"/></svg>