<svg xmlns="http://www.w3.org/2000/svg" width="186.525" height="243.713" xmlns:v="https://vecta.io/nano"><path d="M131.64 51.9C114.49 34.77 98.13 18.43 93.26 0 88.4 18.43 72.026 34.77 54.88 51.9 29.16 77.613 0 106.743 0 150.434a93.263 93.263 0 1 0 186.525 0c0-43.688-29.158-72.82-54.885-98.524m-92 120.256c-5.718-.194-26.823-36.57 12.33-75.303l25.91 28.3a2.215 2.215 0 0 1-.173 3.305c-6.182 6.34-32.534 32.766-35.81 41.903-.676 1.886-1.663 1.815-2.256 1.794m53.623 47.943a32.075 32.075 0 0 1-32.075-32.075 33.423 33.423 0 0 1 7.995-21.187c5.784-7.072 24.076-26.964 24.076-26.964l24.033 26.896a31.368 31.368 0 0 1 8.046 21.254 32.076 32.076 0 0 1-32.075 32.075m61.392-52.015c-.69 1.512-2.26 4.036-4.376 4.113-3.773.137-4.176-1.796-6.965-5.923-6.122-9.06-59.552-64.9-69.545-75.7-8.8-9.5-1.238-16.195 2.265-19.704L93.26 53.656s38.255 36.296 54.2 61.096 10.444 46.26 7.205 53.342" fill="#009cde"/></svg>