<svg xmlns="http://www.w3.org/2000/svg" viewBox="0.171 0.201 512 512" height="48" width="48" xmlns:v="https://vecta.io/nano"><defs><filter height="1.088" y="-.044" width="1.089" x="-.045" id="A" color-interpolation-filters="sRGB"><feGaussianBlur stdDeviation="8.785"/></filter><linearGradient y2="499.348" x2="452.774" y1="116.239" x1="139.22" spreadMethod="pad" id="B" gradientUnits="userSpaceOnUse"><stop offset="0" stop-color="#8381c5"/><stop offset=".566" stop-color="#7e55b3" stop-opacity=".996"/><stop offset="1" stop-color="#a52ecb" stop-opacity=".992"/></linearGradient><linearGradient y2="67.675" x2="174.692" y1="393.916" x1="444.955" id="C" gradientUnits="userSpaceOnUse"><stop offset="0" stop-color="#411f5d"/><stop offset="1" stop-color="#5b2a85"/></linearGradient></defs><path d="M491.67 257.76c0 131.794-105.76 238.635-236.222 238.635S19.226 389.554 19.226 257.76 124.986 19.124 255.448 19.124 491.67 125.965 491.67 257.76z" transform="matrix(.98685 0 0 .98685 3.034404 2.52504)" opacity=".405" fill="#211f46" fill-opacity=".996" stroke="#0a0b1b" stroke-width="8.533" filter="url(#A)"/><path d="M488.238 256.895c0 130.06-104.37 235.497-233.115 235.497S22.008 386.956 22.008 256.895 126.377 21.398 255.123 21.398s233.115 105.435 233.115 235.497z" fill="url(#B)" stroke="url(#C)" stroke-width="13.338"/><path d="M175 422.31s19.738 1.396 45.13-.842c10.283-.906 49.327-4.74 78.517-11.143 0 0 35.6-7.617 54.63-14.633 19.923-7.342 30.764-13.573 35.643-22.402-.213-1.81 1.502-8.224-7.685-12.078-23.49-9.852-50.73-8.07-104.634-9.213-59.777-2.054-79.663-12.06-90.256-20.118-10.158-8.175-5.05-30.793 38.474-50.715 21.924-10.61 107.87-30.187 107.87-30.187l-94.013-44.9c-9.73-4.763-25.303-11.936-28.678-20.614-3.827-8.33 9.038-15.507 16.225-17.562 23.145-6.676 55.818-10.825 85.555-11.29 14.947-.234 17.373-1.196 17.373-1.196 20.624-3.42 34.2-17.532 28.545-39.88-5.078-22.8-31.862-36.214-57.314-31.574-23.968 4.37-81.738 21.15-81.738 21.15 71.408-.618 83.36.574 88.697 8.037 3.152 4.407-1.432 10.45-20.476 13.56-20.733 3.386-63.83 7.464-63.83 7.464-41.345 2.455-70.468 2.62-79.203 21.113-5.707 12.082 6.085 22.763 11.254 29.45 21.84 24.29 53.388 37.39 73.695 47.036 7.64 3.63 30.06 10.484 30.06 10.484-65.878-3.623-113.4 16.605-141.276 39.896-31.53 29.163-17.58 63.924 47.012 85.327 38.152 12.642 57.072 18.587 113.98 13.462 33.52-1.807 38.804-.732 39.138 2.02.47 3.872-37.23 13.492-47.524 16.46-26.185 7.553-94.828 22.804-95.17 22.878z" fill="#fff" fill-rule="evenodd"/></svg>