<svg xmlns="http://www.w3.org/2000/svg" xmlns:xlink="http://www.w3.org/1999/xlink" viewBox="0 0 81 71" fill="#fff" fill-rule="evenodd" stroke="#000" stroke-linecap="round" stroke-linejoin="round"><use xlink:href="#B" x=".5"/><defs><linearGradient id="A" x1="50%" y1="0%" x2="50%" y2="100%"><stop offset="0%" stop-color="#4387fd"/><stop offset="100%" stop-color="#4683ea"/></linearGradient></defs><symbol id="B" overflow="visible"><g stroke="none"><path d="M79.25 37.5q1.5-2.5 0-5L61.5 2q-1.5-2-4-2h-35q-2.5 0-4 2L.75 32.5q-1.5 2.5 0 5L18.5 68q1.5 2 4 2h35q2.5 0 4-2z" fill="url(#A)"/><path d="M73.824 46.824L47.5 20.5l-1 5.25-5.25-5.25-1.25 5-5-5-1.25 4.75H30.5l-1 3.25-4.5 1.75 4.25 4.25L25 36.25l4.5 4.5-4.5 1.5L52.75 70h4.75q2.5 0 4-2z" fill="#000" fill-opacity=".07"/><path d="M35 24v-3.25q0-.75-.75-.75h-1q-.75 0-.75.75V24h-3.25q-.75 0-.75.75v3h-3q-.75 0-.75.75v1q0 .75.75.75h3v3.5h-3q-.75 0-.75.75v1q0 .75.75.75h3v3.5h-3q-.75 0-.75.75v1q0 .75.75.75h3v3q0 .75.75.75h3.25v3.25q0 .75.75.75h1q.75 0 .75-.75V46h3.75v3.25q0 .75.75.75h1q.75 0 .75-.75V46H45v3.25q0 .75.75.75h1q.75 0 .75-.75V46h3.25q.75 0 .75-.75v-3h3q.75 0 .75-.75v-1q0-.75-.75-.75h-3v-3.5h3q.75 0 .75-.75v-1q0-.75-.75-.75h-3v-3.5h3q.75 0 .75-.75v-1q0-.75-.75-.75h-3v-3q0-.75-.75-.75H47.5v-3.25q0-.75-.75-.75h-1q-.75 0-.75.75V24h-3.75v-3.25q0-.75-.75-.75h-1q-.75 0-.75.75V24zm1.25 6.5q-.75 0-.75.75v7.5q0 .75.75.75h7.5q.75 0 .75-.75v-7.5q0-.75-.75-.75zm-4.5-4q-.75 0-.75.75v15.5q0 .75.75.75h16.5q.75 0 .75-.75v-15.5q0-.75-.75-.75z"/></g></symbol></svg>