<svg xmlns="http://www.w3.org/2000/svg" xmlns:xlink="http://www.w3.org/1999/xlink" viewBox="0 0 38.25 85" fill="#fff" fill-rule="evenodd" stroke="#000" stroke-linecap="round" stroke-linejoin="round"><use xlink:href="#A" x="1.125" y="2.5"/><symbol id="A" overflow="visible"><g fill="#da4648" stroke="none"><path d="M17.834 63.128c-4.668 0-8.275-.704-10.01-1.124-1.186-.287-2.138-.584-2.862-.89l2.313 3.968.905 12.4c0 1.4 4.398 2.517 9.823 2.517s9.823-1.127 9.823-2.517l.716-12.534 2.19-3.845c-.727.31-1.687.6-2.89.9-1.734.42-5.34 1.124-10.01 1.124zM30.806 22.78c-3.426.48-7.973.745-12.803.745S8.626 23.26 5.2 22.78c-1.697-.238-3.04-.52-3.99-.834-.227-.075-.61-.204-.98-.41L2.35 41.153a16.69 16.69 0 0 1 .33-1.011c.25-.69.537-1.362.864-2.02a17.91 17.91 0 0 1 1.069-1.865c.385-.586.795-1.125 1.23-1.617s.88-.916 1.338-1.27.92-.632 1.386-.832a3.5 3.5 0 0 1 1.386-.3c.527 0 1.037.145 1.53.434s.953.758 1.382 1.405c.098.145.16.29.187.44a2.4 2.4 0 0 1 .039.419c0 .3-.074.555-.222.734s-.323.27-.526.27c-.186 0-.358-.098-.517-.294s-.338-.477-.535-.842c-.185-.33-.39-.57-.612-.718s-.465-.222-.726-.222c-.405 0-.838.17-1.3.507s-.917.784-1.368 1.338a14.65 14.65 0 0 0-1.299 1.902 19.88 19.88 0 0 0-1.099 2.191c-.32.748-.572 1.485-.76 2.212s-.282 1.38-.282 1.958c0 .193.013.39.04.594s.075.388.148.553a1.11 1.11 0 0 0 .295.408.7.7 0 0 0 .473.16c.214 0 .458-.072.73-.217s.555-.334.847-.568.587-.5.882-.796.57-.596.825-.9.48-.594.678-.873.345-.522.443-.73l.808-2.43c.098-.262.227-.448.387-.558s.323-.166.49-.166c.08 0 .162.014.243.04a.61.61 0 0 1 .217.129c.064.06.114.134.152.227a.86.86 0 0 1 .056.325 4.74 4.74 0 0 1-.087.93c-.058.3-.132.572-.222.848s-.2.553-.3.832a20.54 20.54 0 0 0-.321.874c-.023.035-.065.143-.126.325l-.22.688-.282.925-.313 1.044-.31 1.044-.265.925-.196.692-.096.33a2.16 2.16 0 0 1-.139.367 2.43 2.43 0 0 1-.226.382c-.087.12-.182.22-.287.3s-.21.12-.32.12c-.185 0-.32-.062-.404-.186s-.126-.352-.126-.682v-.145c0-.048.003-.1.01-.155.006-.1.05-.317.13-.62l.29-1.028.365-1.19.352-1.1a17.32 17.32 0 0 1-.999 1.028c-.36.34-.727.648-1.104.92s-.756.494-1.138.667-.75.258-1.104.258c-.405 0-.755-.1-1.047-.27-.053-.033-.103-.07-.152-.105l1.18 12.435c.307.774 6.096 2.675 13.728 2.675s13.427-1.903 13.73-2.676l1.697-14.784-.408.378c-.487.454-.946.846-1.378 1.173a6.21 6.21 0 0 1-1.264.759 3.27 3.27 0 0 1-1.321.269c-.44 0-.78-.097-1.02-.29s-.36-.458-.36-.796v-.077c0-.024.003-.054.01-.088.023-.206.113-.444.27-.713s.345-.548.564-.837a23.08 23.08 0 0 1 .704-.879l.69-.842c.21-.265.386-.508.525-.728s.21-.4.21-.537c0-.083-.03-.148-.087-.197s-.154-.072-.287-.072c-.232 0-.47.06-.717.18s-.5.283-.73.486-.475.436-.704.698a10.32 10.32 0 0 0-.643.816 11.09 11.09 0 0 0-.547.853c-.165.286-.306.55-.422.8l-.148.32-.208.465-.24.532-.23.517-.186.434-.118.264c-.03.062-.077.18-.143.35l-.23.605-.274.73-.27.723-.22.6a5.65 5.65 0 0 0-.122.351c-.058.18-.126.347-.204.507s-.168.298-.27.42-.217.217-.348.29-.277.11-.44.11c-.21 0-.38-.05-.517-.15s-.204-.29-.204-.573a1.81 1.81 0 0 1 .052-.424c.035-.145.078-.288.13-.43a12.26 12.26 0 0 1 .161-.413l.152-.388.956-2.072.934-2.056.18-.42-.054.054c-.377.365-.752.687-1.125.966s-.745.5-1.112.667-.726.248-1.074.248a1.38 1.38 0 0 1-.595-.114c-.16-.076-.287-.18-.382-.3s-.164-.286-.204-.465c-.014-.06-.022-.125-.03-.19-.102.08-.204.157-.308.23-.36.255-.713.46-1.06.615s-.66.233-.938.233-.504-.093-.678-.28-.26-.503-.26-.95c0-.317.046-.686.14-1.106a5.65 5.65 0 0 1-.564.816c-.226.276-.484.527-.773.755a3.86 3.86 0 0 1-.973.553 3.18 3.18 0 0 1-1.173.212 2.09 2.09 0 0 1-.552-.072c-.177-.048-.332-.13-.465-.248s-.24-.274-.322-.47-.122-.443-.122-.74c0-.007.01-.112.035-.315s.097-.524.222-.96.317-1.004.577-1.7.63-1.54 1.104-2.532c.122-.262.262-.45.42-.563s.332-.17.517-.17a.95.95 0 0 1 .252.036c.087.024.168.062.244.114s.136.117.183.196.07.17.07.274c0 .07-.01.135-.026.196-.03.118-.09.27-.187.46l-.335.65-.404.79a11.33 11.33 0 0 0-.395.878c-.122.303-.226.61-.313.925s-.136.618-.148.915c0 .124.03.237.087.34s.154.155.287.155c.376 0 .736-.124 1.078-.372s.657-.556.947-.925a8.88 8.88 0 0 0 .786-1.189c.235-.424.43-.81.586-1.162a5.9 5.9 0 0 0 .291-.754c.084-.27.175-.517.274-.744s.21-.417.34-.57a.6.6 0 0 1 .478-.227.59.59 0 0 1 .496.238c.122.16.182.348.182.568 0 .124-.04.295-.117.512s-.177.465-.296.744l-.387.894a15.79 15.79 0 0 0-.386.966c-.12.327-.217.648-.296.96s-.117.605-.117.873c0 .248.127.372.382.372.18 0 .403-.062.67-.186s.546-.298.838-.522a6.24 6.24 0 0 0 .22-.175c.082-.338.177-.65.29-.935l.617-1.602.574-1.457 2.633-6.666c.104-.27.245-.458.42-.57s.355-.165.535-.165a.77.77 0 0 1 .491.176c.148.117.222.307.222.57a1.17 1.17 0 0 1-.074.393c-.05.138-.11.286-.187.444l-.517 1.188-.643 1.53-.704 1.72-.704 1.74-.643 1.607-.517 1.318c-.064.16-.126.343-.186.553s-.09.398-.09.563c0 .103.017.186.052.248s.1.093.2.093c.122 0 .274-.043.456-.13s.38-.2.59-.34a9.44 9.44 0 0 0 .66-.486 20.54 20.54 0 0 0 .682-.568c.226-.197.442-.393.647-.59a23.97 23.97 0 0 0 .552-.543.39.39 0 0 1 .133-.089 18.63 18.63 0 0 0 .266-.862l.19-.527c.08-.228.174-.45.278-.672a2.88 2.88 0 0 1 .352-.574c.13-.162.27-.243.422-.243.232 0 .4.053.504.16s.156.264.156.47a1.73 1.73 0 0 1-.017.196c-.012.1-.026.184-.043.284a5.72 5.72 0 0 1-.057.284 1.31 1.31 0 0 1-.056.196c.214-.234.446-.467.695-.698s.507-.44.773-.625a4.46 4.46 0 0 1 .817-.455 2.14 2.14 0 0 1 .834-.175 2.01 2.01 0 0 1 .569.083c.188.055.357.136.504.243a1.27 1.27 0 0 1 .361.403c.093.162.14.35.14.563 0 .283-.07.584-.213.904s-.32.642-.534.966-.446.64-.695.946l-.7.837-.548.64c-.147.176-.225.295-.23.357 0 .083.026.15.078.202s.14.077.26.077c.1 0 .244-.055.434-.165s.46-.3.804-.574a40.03 40.03 0 0 0 1.312-1.096l1.27-1.114 2.298-21.37c-.37.205-.755.334-.982.41-.95.315-2.293.596-3.99.834zM18 17.71c-9.935 0-18 1.116-18 2.492s8.054 2.492 18 2.492 18-1.116 18-2.492-8.054-2.492-18-2.492zm7.183 3.22c0 .323-.957.585-2.138.585s-2.138-.262-2.138-.585.957-.585 2.138-.585 2.138.262 2.138.585z"/><path d="M21.33 20.67c-.01.017-.016.034-.016.052 0 .21.77.378 1.72.378s1.72-.17 1.72-.378l2.248-9.152 8.94-9.477c.198-.224-.186-.89-.823-1.46S33.795-.13 33.58.087L24.04 10.17l-2.708 10.5z"/></g></symbol></svg>