<svg xmlns="http://www.w3.org/2000/svg" width="32" height="32" fill="none" xmlns:v="https://vecta.io/nano"><path d="M16 31.186A15.19 15.19 0 0 0 31.187 16 15.19 15.19 0 0 0 16 .814 15.19 15.19 0 0 0 .814 16 15.19 15.19 0 0 0 16 31.186z" fill="#fff"/><path d="M16 0C7.163 0 0 7.163 0 16s7.163 16 16 16 16-7.163 16-16S24.837 0 16 0zm0 1.627c7.938 0 14.373 6.435 14.373 14.373S23.938 30.373 16 30.373 1.627 23.938 1.627 16 8.062 1.627 16 1.627z" fill="#4000bf"/><path fill-rule="evenodd" d="M16.18 4.6c6.3 0 11.4 5.1 11.4 11.4s-5.1 11.4-11.4 11.4S4.79 22.3 4.79 16c0-1.537.305-3.004.857-4.342.806 1.098 2.106 1.8 3.573 1.8A4.43 4.43 0 0 0 13.65 9.04c0-1.466-.713-2.767-1.8-3.573 1.338-.552 2.804-.857 4.342-.857z" fill="url(#A)"/><defs><linearGradient id="A" x1="16.181" y1="27.39" x2="16.181" y2="4.61" gradientUnits="userSpaceOnUse"><stop stop-color="#7400e1"/><stop offset="1" stop-color="#4000bf"/></linearGradient></defs></svg>