<svg xmlns="http://www.w3.org/2000/svg" height="64" width="64" fill="#8a4182" xmlns:v="https://vecta.io/nano"><path d="M29.517 26.5h4.957l1.23-1.695v-13.28h-7.42v13.28l1.23 1.694"/><path d="M30.904 52.395h2.056V42.3h-2.056zm-18.33-13.41l-.635-1.955 9.6-3.118.635 1.955-9.6 3.118M24.96 23.62l-5.932-8.167 1.664-1.21 5.932 8.167-1.664 1.208m14.173.075l-1.664-1.208 5.933-8.167 1.664 1.208-5.933 8.168m12.244 15.413l-9.6-3.12.635-1.956 9.6 3.12-.635 1.956m-15.24-11.4l1.532 4.715 1.993.646 12.63-4.103-2.292-7.056-12.63 4.104-1.232 1.693m.902 6.67l-4.01 2.913.001 2.095 7.805 10.743 6.003-4.36-7.807-10.744zm-6.066 2.914l-4-2.914-1.993.65-7.805 10.743 6.002 4.36 7.806-10.743v-2.094m-4.646-4.87l1.53-4.714-1.232-1.695-12.63-4.103-2.293 7.056 12.63 4.104 1.99-.647M32.002 0c-17.645 0-32 14.353-32 31.995C.002 49.643 14.357 64 32.002 64s31.996-14.357 31.996-32.005C63.998 14.353 49.645 0 32.002 0zm0 6.478c14.1 0 25.517 11.422 25.517 25.516S46.092 57.52 32.002 57.52c-14.095 0-25.52-11.427-25.52-25.526S17.906 6.478 32.002 6.478"/></svg>