<svg xmlns="http://www.w3.org/2000/svg" width="115" height="115" fill-rule="evenodd" xmlns:v="https://vecta.io/nano"><path d="M0 26.775V63.57c0 27.094 22.223 49.056 49.636 49.056h12.4c27.415 0 49.636-21.963 49.636-49.056V26.775c0-6.775-5.555-12.266-12.4-12.266H12.4C5.555 14.51 0 20 0 26.775" fill="#fea620"/><path d="M18.613 57.436c0 20.32 16.667 36.794 37.23 36.794S93.07 77.756 93.07 57.436H74.453c0 10.16-8.332 18.397-18.6 18.397S37.23 67.595 37.23 57.436V39.038H18.613v18.398zM79.1 28.92l-4.343 17.784L92.76 51.3l4.655-17.783L79.1 28.92z" fill="#fff"/></svg>