<svg xmlns="http://www.w3.org/2000/svg" viewBox="0 0 1080 1080" xmlns:v="https://vecta.io/nano"><path d="M1080 1079.96c0 .02-.02.04-.04.04H.04c-.02 0-.04-.02-.04-.04V.04C0 .02.02 0 .04 0h1079.93c.02 0 .04.02.04.04v1079.92z" fill="#fff"/><path d="M1062 1061.96c0 .02-.02.04-.04.04H18.04c-.02 0-.04-.02-.04-.04V18.04c0-.02.02-.04.04-.04h1043.93c.02 0 .04.02.04.04v1043.92z" fill="#d00000"/><path d="M303 823.67c0 .8.46 1.9 1 2.44l17.87 17.87c.56.56 1.66 1 2.44 1h61.15c.8 0 1.9-.46 2.44-1l17.87-17.87c.56-.56 1-1.66 1-2.44V629.64c0-.8.47-1.88 1.04-2.42l77.7-74.2c.57-.54 1.4-.46 1.84.2l196.3 290.6c.44.65 1.45 1.2 2.23 1.2h86.63c.8 0 1.73-.57 2.1-1.27l15.72-30.46c.36-.7.3-1.8-.16-2.45l-229.6-332.8c-.45-.65-.36-1.63.2-2.2l211.18-210.2c.56-.56 1-1.65 1-2.44v-3.88a8.39 8.39 0 0 0-.57-2.75l-12.18-28c-.3-.72-1.22-1.3-2-1.3h-85.63c-.8 0-1.9.46-2.44 1l-262.3 263.3c-.56.56-1 .37-1-.42V249.6c0-.8-.44-1.9-.98-2.48l-17.53-18.8a3.77 3.77 0 0 0-2.41-1.05h-61.57a3.77 3.77 0 0 0-2.41 1.05l-17.95 19.38c-.54.58-.97 1.7-.97 2.48v573.5z" fill="#fff"/></svg>