<svg xmlns="http://www.w3.org/2000/svg" viewBox="0 0 128 128" xmlns:v="https://vecta.io/nano"><defs><clipPath id="A"><path d="M.02-.02H128v127.98H.02z" fill="none"/></clipPath></defs><g clip-path="url(#A)"><path d="M109.62 38a1 1 0 0 1-.83-.47l-14.44-25a1 1 0 0 0-.84-.53H34.6a1 1 0 0 0-.83.47l-15 26a0 0 0 0 0 0 0L4.3 63.5a1 1 0 0 0 0 1l29.45 51a1 1 0 0 0 .83.47H93.5a1 1 0 0 0 .84-.47l14.45-25a1 1 0 0 1 .83-.47h18a1.08 1.08 0 0 0 1.08-1.08v-49.9a1.08 1.08 0 0 0-1.1-1.06h-18z" fill="#4d4d4d"/><path d="M22 61.35L5.9 67.2l-1.6-2.75a1 1 0 0 1 0-1l7.3-12.66z" fill="#e1e1e1"/><path d="M118.06 66.03l10.63-1.52v12.34l-10.63-10.82z" fill="#c8c8c8"/><path d="M118.05 66l10.64 10.82V88.9a1.07 1.07 0 0 1-1.06 1.1h-12.38z" fill="#c2c2c2"/><path d="M118.06 66.03l-2.8 23.94h-14.88l-4.5-10.86 22.2-13.08z" fill="#c7c7c7"/><path d="M118.06 66.03l10.63-12.95V64.5l-10.63 1.52z" fill="#cecece"/><path d="M128.7 39.06v14L118.05 66l-8-28h17.58a1.08 1.08 0 0 1 1.06 1.06z" fill="#d3d3d3"/><path d="M100.37 89.97h-7.85l-2.04-2.92 5.38-7.94 4.5 10.86z" fill="#c6c6c6"/><path d="M118.06 66.03L88.6 53.58l15.5-15.6h5.93l8.03 28.05z" fill="#d5d5d5"/><path d="M88.6 53.58l7.25 25.52 22.2-13.1z" fill="#d0d0d0"/><path d="M92.52 89.97H90.4l.1-2.92 2.04 2.92z" fill="#bfbfbf"/><path d="M104.1 37.98l-15.5 15.6-2.8-13.95 5.98-1.65h12.3z" fill="#d9d9d9"/><path d="M88.6 53.58l-35.73 8.24 37.6 25.23z" fill="#d4d4d4"/><path d="M88.6 53.58l1.87 33.47 5.37-7.95z" fill="#d0d0d0"/><path d="M85.82,39.63L52.88,61.82l35.74-8.24Z" fill="#d9d9d9"/><path d="M52.88 61.82l-15.5 28.15h-8.82l-6.52-28.62 30.84.47z" fill="#d8d8d8"/><path d="M37 38L22 61.35l-3.8-22 .53-.92a1 1 0 0 1 .88-.43H37z" fill="#e2e2e2"/><path d="M28.56 90h-9a1 1 0 0 1-.84-.48L5.9 67.2 22 61.35z" fill="#d8d8d8"/><path d="M22.04 61.35l-10.42-10.5 6.6-11.45 3.8 21.96z" fill="#e4e4e4"/><g fill="#dedede"><path d="M69.2 37.98H43.1l9.77 23.84 32.94-22.2-9.93-1.65h-6.7z"/><path d="M39.03 37.98H37L22.04 61.35l30.84.47-9.77-23.84h-4.08z"/></g><path d="M83.3 89.97h7.08l.1-2.92-7.17 2.92z" fill="#c5c5c5"/><path d="M90.48 87.05l-37.6-25.23 6.77 28.15H83.3l7.17-2.92z" fill="#d0d0d0"/><path d="M37.38 89.97h22.27l-6.77-28.15-15.5 28.15z" fill="#d1d1d1"/><path d="M85.92 37.98l-.1 1.65 5.98-1.65h-5.88z" fill="#ddd"/><path d="M75.9 37.98l9.93 1.65-.92-1.65h-9z" fill="#e3e3e3"/><path d="M84.9 37.98l.92 1.65.1-1.65H84.9z" fill="#e2e2e2"/><path d="M58.8 38.43L44.27 63.6a.85.85 0 0 0-.1.41H34l20-34.54a.78.78 0 0 1 .3.29h0l4.52 7.85a.87.87 0 0 1-.02.83z" fill="#00b8e3"/><path d="M58.78 90.45l-4.5 7.82a.88.88 0 0 1-.31.29L34 64h10.16a.77.77 0 0 0 .1.39.09.09 0 0 0 0 0l14.5 25.14a.85.85 0 0 1 .02.92z" fill="#33c6e9"/><path d="M54 29.46L34 64l-5 8.66-4.75-8.26a.77.77 0 0 1-.1-.39.85.85 0 0 1 .1-.41l4.83-8.38 14.7-25.43a.85.85 0 0 1 .74-.44h9a.89.89 0 0 1 .48.11z" fill="#008aaa"/><path d="M54 98.55a.89.89 0 0 1-.43.11h-9a.85.85 0 0 1-.74-.44L29 72.67 34 64z" fill="#00b8e3"/><path d="M94.05 64L74.1 98.55a.93.93 0 0 1-.3-.29h0l-4.53-7.86a.87.87 0 0 1 0-.8L83.8 64.44a.84.84 0 0 0 .12-.44h10.14z" fill="#008aaa"/><g fill="#00b8e3"><path d="M103.92 64a.84.84 0 0 1-.12.44L84.27 98.26a.86.86 0 0 1-.73.4h-9a.93.93 0 0 1-.44-.11l24.95-43.2 4.75 8.23a.84.84 0 0 1 .12.42z"/><path d="M94.05 64H83.9a.84.84 0 0 0-.12-.43L69.3 38.44a.85.85 0 0 1 0-.87l4.52-7.82a.93.93 0 0 1 .3-.29z"/></g><path d="M99.05 55.34h0l-5 8.65L74.1 29.46a.93.93 0 0 1 .44-.11h9a.86.86 0 0 1 .73.4z" fill="#33c6e9"/></g></svg>