<svg xmlns="http://www.w3.org/2000/svg" xmlns:xlink="http://www.w3.org/1999/xlink" viewBox="0 0 66 65" fill="#fff" fill-rule="evenodd" stroke="#000" stroke-linecap="round" stroke-linejoin="round"><use xlink:href="#A" x=".5" y=".5"/><symbol id="A" overflow="visible"><path d="M42.328 0C30.807-.017 21.3 8.988 20.67 20.49 8.895 21-.298 30.852.007 42.633s9.995 21.143 21.78 21.043h33.487A8.69 8.69 0 0 0 64 55.005V21.608C63.973 9.66 54.276-.008 42.328 0zM19.034 54.132c-4.492-1.164-8.014-4.65-9.222-9.13-.107-.43-.177-.87-.2-1.313h9.432zm2.606.4V34.066h8.894V54.53zm20.827 0h-8.86V17.258h8.86zm12.087-1.865a1.86 1.86 0 0 1-1.844 1.886h-7.133V24.46h8.978z" stroke="none" fill="#4651ff" fill-rule="nonzero"/></symbol></svg>