<svg xmlns="http://www.w3.org/2000/svg" xmlns:xlink="http://www.w3.org/1999/xlink" viewBox="0 0 350.625 85" fill="#fff" fill-rule="evenodd" stroke="#000" stroke-linecap="round" stroke-linejoin="round"><use xlink:href="#A" x="10.313" y="2.5"/><symbol id="A" overflow="visible"><path d="M193.144 3.9c1.007-1.785 2.548-3.31 4.56-3.877l2.727-.008c1.234.572 2.318 1.47 2.988 2.667.53 1.2.244 2.46-.028 3.68-.352.737-.62 1.514-.874 2.29l-.58 1.426-9.652 24.205-.31.897c3.578-2.696 7.093-5.486 10.78-8.033l1.14-.606c1.254-.515 2.622-.42 3.944-.33.936.538 1.824 1.18 2.372 2.138a5.48 5.48 0 0 1-.76 5.292c-.718.9-1.586 1.657-2.448 2.41a16.04 16.04 0 0 0-1.155.854c-1.955 1.346-3.825 2.815-5.717 4.247l.948 1.426.57.874c.43.783.916 1.532 1.42 2.272.6 1.085 1.302 2.107 1.992 3.137.264.475.536.948.83 1.41l.6.865c.553 1.025 1.138 2.047 1.46 3.177.207.834-.147 1.654-.3 2.462-.857 1.36-1.983 2.608-3.487 3.25-1.035.34-2.077.387-3.104-.008-.63-.444-1.29-.885-1.7-1.557l-6.006-9.078-.573-.86c-1.206-2.092-2.678-4.01-3.904-6.086.026.09.074.276.096.367a11.72 11.72 0 0 0-.658 1.438 24.27 24.27 0 0 0-.553 1.429 19.88 19.88 0 0 0-.57 1.423c-.204.467-.394.942-.565 1.423a18.49 18.49 0 0 0-.565 1.423c-1.013 2.397-1.822 4.888-3.118 7.154-1.067 1.187-2.142 2.522-3.762 2.932-.718.094-1.424.484-2.156.28-.58-.145-1.163-.242-1.75-.333-.854-.743-1.873-1.452-2.207-2.596-.71-1.603.244-3.268.684-4.805.207-.47.406-.942.584-1.423a33.69 33.69 0 0 0 .562-1.423 32.22 32.22 0 0 0 .57-1.423 36.34 36.34 0 0 0 .567-1.423c.2-.472.39-.945.567-1.426.202-.467.39-.942.565-1.42.2-.47.392-.945.567-1.423a32.48 32.48 0 0 0 .567-1.426c.2-.467.392-.942.567-1.423.2-.467.392-.942.567-1.423a27.95 27.95 0 0 0 .567-1.42c.202-.47.392-.945.567-1.426.2-.47.392-.942.568-1.423a28.23 28.23 0 0 0 .567-1.423c.2-.47.392-.942.567-1.423.202-.47.392-.942.567-1.423a26.32 26.32 0 0 0 .565-1.423c.204-.47.394-.945.567-1.423a27.83 27.83 0 0 0 .567-1.426c.202-.467.394-.942.567-1.423a27.08 27.08 0 0 0 .567-1.423c.2-.467.392-.942.568-1.423a27.04 27.04 0 0 0 .567-1.423c.2-.467.392-.942.565-1.423l1.135-2.847a25.69 25.69 0 0 0 .57-1.423c.202-.47.392-.942.567-1.423a25.62 25.62 0 0 0 .565-1.423 25.8 25.8 0 0 0 .567-1.423c.2-.47.394-.942.567-1.423a22.81 22.81 0 0 0 .565-1.423 81.46 81.46 0 0 0 1.234-3.117zM17.214 7.18c3.27-1.13 6.77-1.05 10.177-.882.556.11 1.107.256 1.674.3 1.88.57 3.708 1.304 5.408 2.303 2.136 1.566 4.06 3.47 5.368 5.8l.985 2.542c.462 1.956.4 3.968.343 5.964-.187 2.223-.857 4.364-1.495 6.5-.34.74-.62 1.51-.863 2.286-.448.89-.758 1.847-1.25 2.716.877-1.156 1.986-2.104 2.954-3.18 1.58-1.9 3.425-3.576 5.1-5.4 1.972-2.38 4.35-4.4 6.304-6.786 3.547-3.48 6.727-7.313 10.376-10.695a77.23 77.23 0 0 0 1.748-1.156c1.456-.823 3.13-.79 4.75-.65 1.268.63 2.52 1.554 3.027 2.932.47 1.073.26 2.27.26 3.402-.42.766-.794 1.557-1.214 2.323-.2.288-.397.58-.587.877-1.18 1.196-2.17 2.565-3.396 3.718-1.393 1.455-2.868 2.84-4.145 4.404-1.92 2.052-4.003 3.96-5.805 6.12l-4.34 4.472c-1.524 1.848-3.3 3.464-4.94 5.207l.53 1.153c.335 1.062.672 2.124 1.126 3.143.355 1.05.678 2.115 1.135 3.13.355 1.05.678 2.115 1.135 3.13.355 1.05.678 2.115 1.135 3.128.355 1.053.678 2.118 1.135 3.13.352 1.05.684 2.112 1.132 3.13.253.78.514 1.563.88 2.303l.122.518c.335.857.604 1.74.962 2.6a15.61 15.61 0 0 0 .522 1.133c.914 1.41 2.647 2.078 4.27 2.104l251.675-.003c.757-.008 1.478.28 2.233.342l1.8.888c.482.54.85 1.16 1.206 1.793.043 1.102.048 2.206-.014 3.31-.128.3-.247.598-.352.905-.692 1.224-1.722 2.21-2.914 2.94-1.2.364-2.39.89-3.654.928l-254.243.003c-1.027.03-2.003-.367-3.033-.327-1.05-.398-2.173-.66-3.107-1.315-1.21-.715-1.895-1.98-2.698-3.083l-1.013-2.038c-.22-.572-.445-1.144-.715-1.697l-.12-.512-1.836-4.885c-.36-1.056-.675-2.132-1.163-3.14l-.125-.513c-.335-.865-.6-1.756-.982-2.6-.252-.774-.516-1.546-.85-2.286-.355-1.05-.68-2.115-1.138-3.128-.355-1.05-.684-2.112-1.132-3.126-.255-.78-.516-1.56-.88-2.297l-.125-.515c-.335-.865-.6-1.756-.982-2.6-.252-.774-.516-1.546-.854-2.286-.4-1.238-.834-2.465-1.345-3.66l-.204 1.102a12.55 12.55 0 0 0-.624 1.432 28.07 28.07 0 0 0-.562 1.423 28.08 28.08 0 0 0-.57 1.42 29.27 29.27 0 0 0-.568 1.423 31.13 31.13 0 0 0-.57 1.423c-.2.47-.392.945-.562 1.43-.525 1.116-.976 2.263-1.4 3.416a21.84 21.84 0 0 0-.57 1.423c-.204.467-.397.942-.57 1.423-.204.467-.394.942-.567 1.423a22.81 22.81 0 0 0-.57 1.42c-.204.47-.394.942-.567 1.42-.204.473-.394.945-.568 1.43-.24.552-.457 1.113-.678 1.674l-.55 1.153c-.896 1.457-1.91 2.88-3.38 3.806l-.56.313c-1.104.296-2.213.79-3.38.606-.482-.103-.953-.236-1.438-.316-.848-.48-1.646-1.053-2.312-1.77-.207-.4-.423-.817-.647-1.218-.267-1.93.116-3.854.928-5.61.204-.467.397-.94.573-1.42.204-.47.394-.942.567-1.423.204-.47.394-.942.568-1.423.204-.467.397-.94.57-1.42.2-.47.394-.942.567-1.42.2-.472.394-.945.57-1.423.198-.473.392-.945.567-1.423.2-.47.392-.945.57-1.423.2-.47.392-.945.562-1.43.73-1.583 1.342-3.217 1.977-4.84.204-.47.4-.942.573-1.423a25.58 25.58 0 0 0 .567-1.423 23.47 23.47 0 0 0 .567-1.42c.204-.47.397-.942.57-1.423a25.61 25.61 0 0 0 .568-1.423c.2-.47.394-.942.57-1.423.2-.47.392-.942.567-1.42.2-.47.392-.945.567-1.426.83-1.96 1.55-3.963 2.09-6.024.403-1.494.627-3.154.057-4.63-.888-1.543-2.377-2.696-4.114-3.1-1.816-.256-3.714-.117-5.408.64a14.96 14.96 0 0 0-1.129.569c-2.928 1.848-5.44 4.72-6.17 8.2-.258.817-.153 1.69-.29 2.53.076 1.14.145 2.294.723 3.316.8 1.35 1.997 2.448 3.416 3.117.587.256 1.175.52 1.793.7.868.456 1.663 1.04 2.335 1.754l.255.618a27.04 27.04 0 0 0 .372.9c.41 2.702-1.43 5.23-3.822 6.285-2.182.635-4.57.52-6.76-.023a17.22 17.22 0 0 0-1.419-.598c-.474-.305-.962-.584-1.453-.854-2.233-1.517-3.847-3.723-5.198-6.023-.272-.683-.528-1.372-.84-2.035C.2 33.905-.14 31.173.054 28.434c.377-2.13.67-4.304 1.467-6.342.306-.66.567-1.34.84-2.015.4-.658.803-1.315 1.172-2l1.14-1.708c1.872-2.405 4.06-4.566 6.57-6.303l.868-.592c1.115-.61 2.253-1.173 3.396-1.725a36.28 36.28 0 0 0 1.705-.578zm288.837 7.757c1.427-.567 2.973-.515 4.48-.413.914.435 1.697 1.082 2.37 1.836l.258.612c.116.305.244.612.38.914.082.922-.11 1.82-.343 2.707-.2.572-.403 1.15-.582 1.73-.465.92-.916 1.85-1.265 2.82l-.48.837c1.18.21 2.386.148 3.58.228.298.125.604.242.917.35.777.5 1.63 1.056 1.88 2.018.53 1.196.2 2.525-.074 3.74-.704 1.628-2.244 2.545-3.802 3.21-2.066.507-4.193.305-6.3.34l-.105.65a13.37 13.37 0 0 0-.627 1.449 26.51 26.51 0 0 0-.562 1.423 24.27 24.27 0 0 0-.567 1.423c-.204.47-.394.945-.567 1.423-.204.47-.394.945-.567 1.423-.204.47-.394.945-.568 1.426a21.17 21.17 0 0 0-.565 1.421 24.46 24.46 0 0 0-.573 1.42c-.2.5-.406.985-.56 1.495l-.377.382c2.47.105 4.974-.225 7.402.35l1.742.885.967 1.503c-.006 1.144.207 2.354-.264 3.436-.227.612-.62 1.14-.968 1.682-.743.547-1.5 1.093-2.32 1.497-2.394.643-4.897.32-7.343.398-2.466-.09-4.985.265-7.394-.398-1.495-.652-2.8-1.708-3.504-3.214-.148-1.2-.607-2.408-.14-3.6.238-1.332.803-2.55 1.322-3.786a27.92 27.92 0 0 0 .562-1.423 28.12 28.12 0 0 0 .57-1.423c.2-.47.39-.942.565-1.423.202-.47.392-.942.567-1.423.202-.47.392-.942.565-1.423.786-1.848 1.44-3.752 2.284-5.577-1.895.122-4.2-.282-5.15-2.15-.13-.74-.46-1.466-.323-2.23.11-.584.252-1.16.312-1.75.7-1.51 2.003-2.573 3.507-3.217 1.64-.507 3.36-.36 5.05-.438.953-.376.942-1.745 1.416-2.573a27.13 27.13 0 0 0 .567-1.423c.2-.47.394-.942.57-1.423.202-.47.394-.948.56-1.435l.846-1.72c.8-.94 1.674-1.82 2.647-2.58zM86.717 25.644c1.38-.137 2.77-.046 4.15-.006 1.197.42 2.395.843 3.495 1.486 1.138 1.013 2.213 2.115 2.928 3.482.332 1.307.75 2.633.616 4-.2 1.55-.704 3.035-1.214 4.503-1.54 3.524-2.917 7.122-4.307 10.706 2.55.077 5.132-.225 7.64.333.925.4 1.72 1.025 2.372 1.793.6 1.463.34 3.054-.068 4.53-.738.928-1.583 1.768-2.602 2.38-.593.18-1.18.382-1.75.623-4.494.134-8.997.128-13.49.006-.95-.507-1.966-.937-2.766-1.674-.582-.638-.962-1.423-1.367-2.172-.043-.623-.108-1.244-.267-1.845.18-.592.236-1.2.267-1.825l.176-.265c.13-.478.287-.948.428-1.423.42-.934.792-1.9 1.155-2.847.204-.47.397-.942.57-1.423a23.55 23.55 0 0 0 .567-1.423c.204-.467.397-.94.57-1.418a33.72 33.72 0 0 0 .57-1.426 28.93 28.93 0 0 0 .567-1.42c.596-1.176.894-2.46.758-3.78-.45-.478-.97-.877-1.53-1.216-.394-.03-.783-.063-1.172-.105-2.338-.196-4.134 1.563-5.382 3.33-.33.54-.633 1.1-.93 1.66-2.227 5.064-4.14 10.262-6.225 15.39-.366.578-.72 1.164-1.036 1.77-.95 1.13-2.074 2.115-3.467 2.647-.508.063-1.007.16-1.5.28-.738.202-1.444-.188-2.168-.273-.92-.393-1.688-1.033-2.33-1.79l-.358-.626c-.216-1.625-.03-3.265.64-4.765a21.45 21.45 0 0 0 .582-1.423 25.62 25.62 0 0 0 .565-1.423c.2-.47.392-.942.567-1.423a28.18 28.18 0 0 0 .568-1.423 25.73 25.73 0 0 0 .564-1.423 23.51 23.51 0 0 0 .567-1.423 21.78 21.78 0 0 0 .565-1.423l5.1-12.827.565-1.136c.766-1.238 1.924-2.104 3.23-2.7 1.495-.06 3.056-.26 4.48.327.933.57 1.662 1.38 2.224 2.314L81.046 28c.78-.43 1.526-.914 2.307-1.34 1.1-.398 2.2-.797 3.365-1.013zm32.668.322c2.22-.504 4.505-.416 6.767-.34 1.254.142 2.468.515 3.663.914 1.217.547 2.33 1.284 3.43 2.032a89.87 89.87 0 0 1 2.012 2.018 43.82 43.82 0 0 0 1.152 1.737l.874 1.716c.38 1.2.664 2.45.888 3.698.074 1.13.025 2.263.037 3.396.077 1.44-.488 2.798-.635 4.216a57.81 57.81 0 0 0-.868 2.59c-1.407 3.234-3.328 6.283-6.015 8.597-1.575 1.142-3.283 2.1-5.16 2.622-3.27.58-6.61.364-9.92.333-2.273-.24-4.647-.643-6.5-2.092-1.73-1.503-3.12-3.365-4.03-5.474-.09-.293-.2-.584-.292-.87-1.03-3.797-.82-7.83.29-11.586a14.16 14.16 0 0 0 .576-1.452 57.16 57.16 0 0 1 1.14-2.286c1.632-2.684 3.816-4.98 6.307-6.872l.874-.592c.928-.507 1.873-.98 2.823-1.443.865-.273 1.73-.558 2.588-.862zm31.78 1.278c1.793-.746 3.632-1.494 5.587-1.628 2.292-.062 4.642-.21 6.823.632 1.728.746 3.334 1.788 4.6 3.2 2.063 2.73 2.62 6.385 1.736 9.656a17.11 17.11 0 0 0-.593 1.418c-.2.3-.394.603-.582.91l-1.155 1.18a45.77 45.77 0 0 0-1.166.609c-1.864.732-4.196.393-5.493-1.227-.6-1.238-.238-2.644-.462-3.95-.097-.5-.136-1.028-.16-1.546-.363-.686-.916-1.372-1.733-1.472-1.084-.026-2.258-.18-3.21.473-1.35.64-2.267 1.847-3.095 3.046-.233.367-.454.734-.675 1.105-.468.996-.894 2.038-.953 3.15-.448 1.768-.153 3.78.956 5.25 1.19 1.247 3.016 1.463 4.627 1.745l11.082.028c.95.102 1.88.37 2.806.615.51.376 1.016.76 1.49 1.2l.31.643c.074.564.207 1.12.315 1.68-.153.845-.335 1.688-.596 2.51-.326.387-.633.788-.928 1.198a25.84 25.84 0 0 0-1.169.894l-.56.305c-1.035.35-2.074.757-3.19.677-5.334-.003-10.67.11-16.002-.07-.386-.145-.78-.245-1.177-.34-.56-.25-1.132-.467-1.705-.675a24.76 24.76 0 0 1-2.307-1.643c-.814-.65-1.345-1.563-2.05-2.314a67.2 67.2 0 0 1-1.441-2.852c-1.518-4.52-1.092-9.488.58-13.903l1.155-2.28c.31-.46.587-.94.86-1.42 1.614-2.19 3.55-4.148 5.74-5.756a38.18 38.18 0 0 0 1.734-1.039zm76.843-1.59c2.945-.16 5.984-.25 8.77.89 2.837 1.25 5.23 3.405 6.778 6.098l.377.834a15.18 15.18 0 0 0 .593 1.446c1.158 3.985.724 8.252-.573 12.152-.22.47-.417.95-.58 1.443-.45.962-.925 1.9-1.422 2.847-1.535 2.516-3.5 4.78-6.026 6.342l-1.705.863c-.6.18-1.175.376-1.748.595-3.254.578-6.58.36-9.87.34-.942.048-1.83-.345-2.77-.336-.922-.347-1.898-.575-2.744-1.093-1.592-.954-2.81-2.394-3.907-3.863l-1.157-2.275c-1.17-3.348-1.152-6.977-.57-10.433.125-.4.216-.79.31-1.187a52.35 52.35 0 0 0 .559-1.716 69.71 69.71 0 0 1 1.717-3.413l.596-.865c.295-.38.582-.766.85-1.164 1.427-1.53 2.857-3.083 4.574-4.293l.865-.592c2.2-1.273 4.58-2.203 7.082-2.62zm30.375.3c1.748-.567 3.96-.752 5.413.592.686.55 1.11 1.33 1.507 2.095.065 1.22.028 2.445-.352 3.618-.423.937-.8 1.893-1.158 2.855-.2.467-.4.942-.57 1.423-.204.467-.397.94-.565 1.423a74.14 74.14 0 0 0-1.135 2.847c-.207.467-.4.942-.57 1.423a17.15 17.15 0 0 0-.559 1.432l-.406.91-.264.8-.278.85-.323.846c-.247.734-.315 1.523.114 2.212.687.643 1.648.538 2.517.538 1.308.07 2.57-.416 3.725-.993 1.305-.877 2.33-2.146 2.77-3.672a36.5 36.5 0 0 0 .562-1.429 34.47 34.47 0 0 0 .567-1.423c.2-.47.39-.945.567-1.423a36.12 36.12 0 0 0 .567-1.423c.2-.47.39-.945.567-1.423.2-.473.39-.945.567-1.426a36.17 36.17 0 0 0 .565-1.421 32.29 32.29 0 0 0 .57-1.423c.2-.473.39-.95.556-1.438.44-.968.905-1.924 1.42-2.852l.585-.888c.87-1.028 1.992-1.793 3.192-2.39a22.17 22.17 0 0 1 3.339-.006c.91.44 1.694 1.085 2.366 1.836l.26.61a16.33 16.33 0 0 0 .375.902c.162 1.85-.678 3.567-1.214 5.292a19.97 19.97 0 0 0-.584 1.423 26.55 26.55 0 0 0-.565 1.423c-.204.47-.394.942-.567 1.423a26.43 26.43 0 0 0-.57 1.421c-.2.47-.392.945-.567 1.423a18.63 18.63 0 0 0-.559 1.429c-.945 2.112-1.78 4.273-2.593 6.436 2.846.065 5.754-.28 8.512.62.528.512 1.152.985 1.436 1.694.162.538.2 1.107.36 1.654-.202.897-.278 1.82-.576 2.693-.536.843-1.223 1.57-2.08 2.084l-1.163.59c-1.833.555-3.762.373-5.65.407-2.542-.02-5.084.057-7.624-.07-1.067-.48-1.95-1.25-2.704-2.13l-.074-.492c-.585.584-1.19 1.147-1.802 1.7l-1.155.56a15.44 15.44 0 0 0-.894.35c-3.544.137-7.096.128-10.64-.003a16.76 16.76 0 0 0-.908-.336c-1.146-.518-2.292-1.107-3.178-2.02-.92-.888-1.484-2.052-2.03-3.19-.41-1.38-.403-2.824-.318-4.25.272-1.35.743-2.647 1.19-3.948a19.83 19.83 0 0 0 .582-1.423c.202-.47.392-.942.565-1.423.2-.47.394-.942.57-1.423.2-.47.39-.942.567-1.423.202-.47.392-.942.568-1.423.2-.47.392-.942.567-1.423.2-.47.392-.942.567-1.423a27.9 27.9 0 0 0 .567-1.423c.2-.47.392-.942.57-1.42.2-.475.392-.95.553-1.44.363-.77.746-1.53 1.13-2.29.826-1.293 1.927-2.394 3.212-3.225zM119.302 36.3c1.013-.71 2.2-1.122 3.42-1.267.687-.017 1.337.253 2.014.32 1.138.552 2.05 1.494 2.633 2.613.854 2.983.22 6.314-1.532 8.862-.68 1.073-1.623 1.975-2.76 2.542-1.92.803-4.137.777-6.066.014-.763-.552-1.577-1.167-1.9-2.092-.738-2.24-.3-4.703.726-6.786.817-1.643 1.958-3.143 3.467-4.204h0zm108.04-.67c1.172-.37 2.437-.865 3.663-.4 1.532.225 2.656 1.477 3.334 2.792.678 2.34.372 4.88-.593 7.094-.213.396-.434.788-.667 1.17l-.56.848c-.556.85-1.294 1.57-2.173 2.08-1.004.558-2.14.638-3.25.79-1.725-.125-3.8-.416-4.727-2.106-1.288-2.32-.64-5.15.43-7.42 1-2.004 2.505-3.84 4.542-4.848zm93.14 13.7c1.424-.905 3.087-1.073 4.735-.908.31.122.624.236.948.342 1.32.655 2.42 1.68 3.19 2.938.715 1.605.868 3.402.292 5.078-.204.387-.4.78-.587 1.173-.644.73-1.34 1.406-2.048 2.064-1.733.897-3.84.917-5.66.293l-.57-.322c-1.538-.96-2.605-2.556-2.973-4.33-.05-.82-.017-1.645 0-2.468l.355-.92.56-1.164c.576-.603 1.163-1.196 1.762-1.776z" fill="#e42e16" stroke="none"/></symbol></svg>