<svg width="134" height="30" viewBox="0 0 134 30" fill="none" xmlns="http://www.w3.org/2000/svg"><path d="M22.9748 5.15047C17.8613 4.78317 12.1655 4.78318 7.05191 5.15047C5.98148 5.22736 5.17043 6.047 5.08995 7.04886C4.83183 10.2618 4.79749 15.0754 5.03417 18.2851C5.11235 19.3453 6.04316 20.2553 7.30242 20.2553H11.25V25.125L7.31047 25.1222C3.69648 25.1222 0.452584 22.4435 0.172373 18.6436C-0.082732 15.1842 -0.0474974 10.1202 0.2306 6.65848C0.509305 3.18919 3.29904 0.532477 6.70265 0.288002C12.0488 -0.0959998 17.978 -0.0960013 23.3241 0.288001C26.7277 0.532475 29.5175 3.18919 29.7962 6.65848C30.0743 10.1202 30.0621 15.1842 29.807 18.6436C29.5268 22.4435 26.2904 25.1331 22.6764 25.1331L18.7776 25.1303L11.25 30L11.25 25.125L18.7776 20.2553H22.677C23.9362 20.2553 24.867 19.3453 24.9452 18.2851C25.1819 15.0754 25.1949 10.2618 24.9368 7.04886C24.8563 6.047 24.0453 5.22736 22.9748 5.15047Z" fill="#FE5000"/><path d="M37.4619 21.4045H49.2429V18.4465H41.0319V3.5545H37.4619V21.4045Z" fill="#1B1B20"/><path d="M50.9504 21.4045H54.4184V8.1445H50.9504V21.4045ZM50.6699 4.6765C50.6699 5.824 51.5114 6.691 52.6844 6.691C53.8574 6.691 54.6989 5.824 54.6989 4.6765C54.6989 3.529 53.8574 2.662 52.6844 2.662C51.5114 2.662 50.6699 3.529 50.6699 4.6765Z" fill="#1B1B20"/><path d="M68.0163 8.1445H64.5483L61.6923 17.86L58.8363 8.1445H55.3683L59.8818 21.4045H63.5028L68.0163 8.1445Z" fill="#1B1B20"/><path d="M74.205 21.7105C77.1375 21.7105 79.509 19.951 79.968 17.5285H76.9335C76.602 18.4465 75.684 19.2115 74.205 19.2115C72.1905 19.2115 71.4 17.86 71.4 16.3045V15.973H80.07V13.6525C80.07 10.465 78.081 7.8385 74.154 7.8385C70.176 7.8385 68.034 10.3885 68.034 13.984V15.7945C68.034 19.5175 70.4565 21.7105 74.205 21.7105ZM71.4 13.3975C71.4 11.6125 72.165 10.2865 74.154 10.2865C76.0155 10.2865 76.8825 11.536 76.8825 13.1935V13.525H71.4V13.3975Z" fill="#1B1B20"/><path d="M89.287 21.7615C93.8005 21.7615 96.58 18.7015 96.7585 15.055H93.4435C93.214 17.0695 91.939 18.829 89.287 18.829C86.3035 18.829 85.0285 16.789 85.0285 13.933V11.026C85.0285 8.17 86.3035 6.13 89.287 6.13C91.939 6.13 93.214 7.8895 93.4435 9.904H96.7585C96.58 6.2575 93.8005 3.1975 89.287 3.1975C83.9065 3.1975 81.484 6.64 81.484 11.2045V13.7545C81.484 18.319 83.9065 21.7615 89.287 21.7615Z" fill="#1B1B20"/><path d="M98.6439 21.4045H102.112V13.5505C102.112 11.7655 103.106 10.8475 104.662 10.8475C106.345 10.8475 107.084 11.944 107.084 13.474V21.4045H110.552V12.913C110.552 9.7765 108.742 7.8385 105.86 7.8385C104.152 7.8385 102.8 8.578 102.112 9.7255V2.7895H98.6439V21.4045Z" fill="#1B1B20"/><path d="M117.172 21.7105C118.702 21.7105 120.385 21.073 120.997 20.1805V21.4045H124.337V12.9385C124.337 9.853 122.068 7.8385 118.753 7.8385C115.897 7.8385 113.831 9.2155 113.066 11.791H116.279C116.636 11.077 117.376 10.5415 118.574 10.5415C120.002 10.5415 120.869 11.4595 120.869 12.6835V14.494C120.257 13.984 119.084 13.372 117.503 13.372C114.316 13.372 112.148 14.698 112.148 17.5795C112.148 20.155 114.188 21.7105 117.172 21.7105ZM118.064 19.4155C116.611 19.4155 115.514 18.7015 115.514 17.4775C115.514 16.2535 116.534 15.5905 118.166 15.5905C119.722 15.5905 120.869 16.279 120.869 17.452C120.869 18.574 119.594 19.4155 118.064 19.4155Z" fill="#1B1B20"/><path d="M130.818 21.4045H133.215V18.5995H131.812C130.894 18.5995 130.563 18.2425 130.563 17.3755V10.9495H133.393V8.1445H130.563V4.5235H127.069V8.1445H125.182V10.9495H127.069V17.6305C127.069 19.9765 128.268 21.4045 130.818 21.4045Z" fill="#1B1B20"/></svg>