<svg xmlns="http://www.w3.org/2000/svg" xmlns:xlink="http://www.w3.org/1999/xlink" viewBox="0 0 265.625 85" fill="#fff" fill-rule="evenodd" stroke="#000" stroke-linecap="round" stroke-linejoin="round"><use xlink:href="#A" x="7.813" y="2.5"/><symbol id="A" overflow="visible"><path d="M.6 69.385c0-5.88 4.844-10.616 10.86-10.616s10.86 4.735 10.86 10.616S17.468 80 11.45 80 .6 75.266.6 69.385zm42.374.115c0-4.16 3.426-7.5 7.682-7.5s7.682 3.35 7.682 7.5-3.426 7.508-7.682 7.508-7.682-3.35-7.682-7.508zm36.512 0c0-1.9 1.555-3.4 3.488-3.4s3.487 1.52 3.487 3.4-1.555 3.4-3.487 3.4-3.488-1.52-3.488-3.4zm-30.9-22.357c-1.9 0-3.324-1.45-3.324-3.25V30.07c0-4.77-2.334-8.433-7.567-8.433s-8.416 3.94-8.416 8.503v13.756c0 1.798-1.273 3.25-3.324 3.25-1.98 0-3.324-1.45-3.324-3.25V30.07c0-4.77-2.546-8.433-7.78-8.433-5.375 0-8.204 3.94-8.204 8.503v13.756c0 1.798-1.344 3.25-3.324 3.25-1.9 0-3.324-1.45-3.324-3.25v-24.54c0-1.936 1.273-3.318 3.324-3.318 2.263 0 3.324 1.52 3.324 3.318v2.212c1.9-3.664 5.8-5.807 9.972-5.807 5.092 0 8.9 2.5 10.82 6.152 2.758-4.148 6.8-6.152 11.8-6.152 8.557 0 12.66 5.737 12.66 13.825v14.308c-.001 1.798-1.343 3.25-3.323 3.25h0zm12.66-43.41c2.122 0 3.9 1.728 3.9 3.802s-1.768 3.802-3.9 3.802-3.9-1.728-3.9-3.802 1.768-3.802 3.9-3.802h0zm0 43.4c-1.98 0-3.324-1.45-3.324-3.25v-24.6c0-1.797 1.414-3.25 3.324-3.25s3.324 1.45 3.324 3.25v24.6c-.001 1.798-1.344 3.25-3.324 3.25h0zM83.3 27.234l8.416-10.23a2.82 2.82 0 0 1 2.193-.968c1.84 0 3.04 1.175 3.04 2.834 0 .622-.212 1.244-.778 1.866L86.917 31.52l9.406 10.852c.495.553.778 1.106.778 1.936 0 1.6-1.414 2.834-2.97 2.834-1 0-1.768-.346-2.334-1.038l-8.487-10.3-8.487 10.3c-.566.7-1.344 1.038-2.334 1.038-1.556 0-2.97-1.245-2.97-2.834 0-.83.283-1.383.778-1.936l9.406-10.852-9.265-10.783c-.566-.623-.778-1.245-.778-1.866 0-1.66 1.202-2.834 3.04-2.834a2.82 2.82 0 0 1 2.192.968l8.416 10.23zm36.3 20.186c-4.738 0-8.628-2.42-10.9-5.944v15.346c0 1.798-1.344 3.248-3.324 3.248s-3.324-1.45-3.324-3.248V19.285c0-1.797 1.132-3.25 3.182-3.25s3.253 1.52 3.253 3.318v2.35c2.122-3.594 6.365-5.945 11.103-5.945 8.133 0 14.78 6.635 14.78 15.83 0 9.538-6.648 15.83-14.78 15.83h0zm-1.343-26.268c-5.73 0-9.547 4.907-9.547 10.438s3.82 10.438 9.547 10.438 9.476-4.216 9.476-10.438-3.748-10.438-9.476-10.438h0zm51.193 22.742c0 1.798-1.273 3.25-3.324 3.25-1.98 0-3.252-1.45-3.252-3.25v-1.52c-1.98 2.903-5.73 5.047-10.324 5.047-9.903 0-15.63-7.05-15.63-15.83 0-8.64 6.366-15.83 16.337-15.83 10.184 0 16.196 6.498 16.196 15.83l-.002 12.304zM153.184 21.3c-5.658 0-9.62 4.632-9.62 10.3 0 5.945 3.324 10.3 9.62 10.3 5.87 0 9.618-4.908 9.618-10.3 0-6.36-3.96-10.3-9.618-10.3h0zm36.28-5.54c8.557 0 14.85 6.36 14.85 14.447v13.686c0 1.798-1.485 3.25-3.324 3.25s-3.324-1.45-3.324-3.25V29.447c0-4.355-3.536-7.742-8.203-7.742s-8.134 3.386-8.134 7.742v14.447c0 1.798-1.485 3.25-3.324 3.25s-3.324-1.45-3.324-3.25V30.208c0-8.088 6.224-14.447 14.782-14.447h0zm49.433 15.9c0 1.106-.636 2.212-2.545 2.212h-21.145c.353 4.77 3.677 8.364 9.547 8.364 3.678 0 5.87-1.245 8.204-3.387.566-.553 1.344-1.038 2.192-1.038 1.485 0 2.76 1.038 2.76 2.696 0 .7-.354 1.312-.85 1.865-2.687 3.04-7.498 5.047-12.6 5.047-10.538 0-16.126-7.2-16.126-15.83 0-9.056 6.72-15.83 15.84-15.83 8.913.003 14.7 7.053 14.7 15.9h0zm-14.7-10.713c-4.88 0-8.204 3.386-8.84 7.673h17.397c-.565-4.148-3.748-7.673-8.557-7.673h0zm22.5 26.196c-1.98 0-3.324-1.45-3.324-3.25V3.25c0-1.798 1.344-3.25 3.324-3.25S250 1.45 250 3.25v40.645c.001 1.798-1.343 3.25-3.323 3.25h0z" stroke="none" fill="#33547d"/></symbol></svg>