<svg xmlns="http://www.w3.org/2000/svg" xmlns:xlink="http://www.w3.org/1999/xlink" viewBox="0 0 180.625 85" fill="#fff" fill-rule="evenodd" stroke="#000" stroke-linecap="round" stroke-linejoin="round"><use xlink:href="#B" x="5.313" y="2.5"/><defs><linearGradient id="A" x1="0%" y1="100%" x2="100%" y2="0%"><stop offset="0%" stop-color="#d81e75"/><stop offset="100%" stop-color="#ff5fa8"/></linearGradient></defs><symbol id="B" overflow="visible"><g stroke="none"><path d="M91.44 3.436v73.35c.082 1.85 1.613 3.285 3.427 3.2h71.866c.885-.002 1.73-.37 2.346-1.02a3.38 3.38 0 0 0 .92-2.427C170.018 40 130.85.134 94.957.072 93.08.02 91.51 1.52 91.44 3.436z" fill="url(#A)"/><path d="M0 56.757v20.03c.005.873.356 1.707.973 2.312a3.13 3.13 0 0 0 2.303.898h71.956a2.98 2.98 0 0 0 2.265-.898 3.11 3.11 0 0 0 .88-2.312V3.344a3.27 3.27 0 0 0-.88-2.35c-.593-.63-1.4-.988-2.265-.993H55.608c-1.825-.006-3.318 1.48-3.356 3.344v20.03c.016.87-.313 1.712-.913 2.332s-1.42.966-2.273.96H29.442c-1.825.017-3.3 1.522-3.316 3.384v20.03c.006.87-.334 1.708-.94 2.32a3.13 3.13 0 0 1-2.284.931H3.276C1.45 53.37-.006 54.894 0 56.757z" fill="#d81e75"/><path d="M75.232 0H55.608c-1.825-.006-3.318 1.48-3.356 3.344v20.03c.016.87-.313 1.712-.913 2.332s-1.42.966-2.273.96H29.442c-1.825.017-3.3 1.522-3.316 3.384v49.947h49.106a2.98 2.98 0 0 0 2.265-.898 3.11 3.11 0 0 0 .88-2.312V3.344a3.27 3.27 0 0 0-.88-2.35c-.593-.63-1.4-.988-2.265-.993z" fill="#f38" opacity=".8"/><path d="M75.233 0H55.608c-1.825-.006-3.318 1.48-3.356 3.344v76.653h22.98a2.98 2.98 0 0 0 2.265-.898c.598-.61.917-1.45.88-2.312V3.344a3.27 3.27 0 0 0-.88-2.35c-.593-.63-1.4-.988-2.265-.993z" fill="#ff5fa8" opacity=".8"/></g></symbol></svg>