<svg xmlns="http://www.w3.org/2000/svg" width="2500" height="2500" viewBox="0 0 256 256" preserveAspectRatio="xMinYMin meet" xmlns:v="https://vecta.io/nano"><path d="M237.248 18.752c12.04 12.04 18.29 27.122 18.748 45.247v128c-.457 18.12-6.707 33.207-18.748 45.247s-27.127 18.29-45.25 18.752H64c-18.125-.46-33.207-6.71-45.247-18.752S.46 210.12 0 192V64c.46-18.125 6.71-33.207 18.752-45.247S45.874.46 64 0h127.998c18.124.46 33.21 6.71 45.25 18.752zm-17.655 103c-4.023-4.002-6.114-9.024-6.28-15.066V64c-.128-6.042-2.202-11.072-6.22-15.09s-9.054-6.093-15.095-6.22h-21.312v106.626L85.315 42.687H64c-6.042.128-11.072 2.198-15.09 6.22s-6.093 9.05-6.22 15.1v42.688c-.167 6.042-2.258 11.064-6.28 15.066-4.02 3.997-9.05 6.08-15.09 6.246 6.04.17 11.072 2.253 15.1 6.25 4.024 4.002 6.115 9.024 6.28 15.066V192c.128 6.037 2.198 11.072 6.22 15.09s9.05 6.093 15.1 6.22h21.317V106.687l85.37 106.627h21.312c6.04-.128 11.076-2.202 15.095-6.22s6.093-9.054 6.22-15.1v-42.688c.167-6.042 2.258-11.064 6.28-15.066 4.02-3.997 9.05-6.08 15.09-6.25-6.04-.167-11.072-2.25-15.1-6.246z" fill="#3c5afd"/></svg>