<svg xmlns="http://www.w3.org/2000/svg" width="444" height="512" xmlns:v="https://vecta.io/nano"><description>Apache NetBeans Logo</description><g fill-rule="evenodd"><path d="M222 0v99L86 178 0 128 222 0z" fill="#a1c535"/><path d="M444 128l-86 50-136-79V0l222 128z" fill="#add439"/><path d="M444 384l-86-50V178l86-50v256z" fill="#1b6ac6"/><path d="M222 512v-99l136-79 86 50-222 128z" fill="#2e90e8"/><path d="M0 384l86-50 136 79v99L0 384z" fill="#ea205e"/><path d="M0 128l86 50v156L0 384V128z" fill="#a5073e"/><path d="M86 178l136-79 136 79-136 78-136-78z" fill="#f1f6e2"/><path d="M222 256l136-78v156l-136 79V256z" fill="#cedbe6"/><path d="M86 178l136 78v157L86 334V178z" fill="#fff"/></g></svg>