<svg xmlns="http://www.w3.org/2000/svg" viewBox="0 0 500 500" xmlns:v="https://vecta.io/nano"><path d="M220.93 127.14l-69.16-34.9-75.9 37.88 71.03 35.67 74.03-38.64zm31.7 16l72.5 36.6-75.23 37.78-71.14-35.73 73.86-38.65zm96.84-50.38l74.5 37.35-66.62 33.46-72.66-36.65 64.8-34.16zm-32.07-16.1l-67.06-33.62L184 76.15 253.1 111l64.3-34.33zm-52.42 288.77v91.5l81.24-40.54-.1-91.55-81.15 40.58zm81.12-72.54l-.1-90.6-81.03 40.28v90.62l81.12-40.3zm97.53-16.97v91.87l-69.3 34.58-.05-91.45 69.34-35zm0-32.13v-90l-69.42 34.5.06 90.77 69.36-35.26z" fill="#4dabcf"/><path d="M236.3 242.6l-54.72-27.5V334l-73.12-155.18c-.8-1.65-4.1-3.46-4.93-3.9l-47.16-24.1V360.9l48.64 26v-109.8L171.9 405.7c.67 1.4 7.32 14.8 14.42 19.5 9.46 6.26 50 30.64 50 30.64z" fill="#4d77cf"/></svg>