<svg xmlns="http://www.w3.org/2000/svg" height="64" width="64" xmlns:v="https://vecta.io/nano"><path d="M19.455 54.15a2.38 2.38 0 0 1-.127-.26c-.256-.592-.335-1.245-.227-1.88H3.972l22.485-39.57 7.382 12.976 2.14-3.787-6.435-11.336c-.627-1.18-1.8-1.96-3.14-2.074-1.333.06-2.516.876-3.047 2.1L.577 50.37a4.03 4.03 0 0 0-.2 3.78c.715 1.127 2.007 1.75 3.334 1.608H22.79c-1.327.145-2.62-.48-3.334-1.607z" fill="#00c492"/><path d="M63.32 50.37L44.6 17.396c-.624-1.193-1.813-1.985-3.154-2.1-1.333.057-2.516.87-3.047 2.094l-2.42 4.24 2.154 3.787 3.334-5.9L59.985 52.01h-7.042c.1.537.04 1.09-.147 1.6a2.03 2.03 0 0 1-.147.327l-.06.12a4.03 4.03 0 0 1-3.394 1.7H60.21c1.344.036 2.618-.602 3.394-1.7.615-1.183.504-2.614-.287-3.688z" fill="#008776"/><path d="M52.59 54.058l.06-.12a2.03 2.03 0 0 0 .147-.327c.186-.512.237-1.063.147-1.6-.104-.58-.312-1.135-.613-1.64L35.98 21.63 19.65 50.37a5.05 5.05 0 0 0-.547 1.64c-.114.634-.042 1.287.207 1.88.037.09.08.176.127.26.715 1.127 2.008 1.75 3.334 1.607h26.405a4.04 4.04 0 0 0 3.414-1.701zM35.98 29.206L48.942 52.01h-25.92z" fill="#2d4a5d"/></svg>