<svg xmlns="http://www.w3.org/2000/svg" xmlns:xlink="http://www.w3.org/1999/xlink" viewBox="0 0 101 101" fill="#fff" fill-rule="evenodd" stroke="#000" stroke-linecap="round" stroke-linejoin="round"><use xlink:href="#A" x=".5" y=".5"/><symbol id="A" overflow="visible"><g fill-rule="nonzero" stroke="none"><path d="M46.405.145c22.15-1.532 36.837 9.282 45.234 22.46 4.21 6.607 8.342 16.64 8.36 26.95.02 11.202-3.617 20.903-8.36 28.02-4.876 7.316-11.183 13.358-19.08 17.326-13.2 6.632-31.65 6.814-43.734.428C15.368 88.218 5.02 78.067 1.17 60.464-.37 53.42-.548 44.317 1.6 36.508c.504-1.832 1.42-3.76 2.144-5.56 3.482-8.656 9.4-16.184 16.722-21.4 2.938-2.092 6.502-4.172 9.647-5.56 3.913-1.728 10.5-3.45 16.293-3.85z"/><path d="M88.42 50.8c0 20.887-16.97 37.818-37.904 37.818S12.612 71.688 12.612 50.8s16.97-37.82 37.904-37.82S88.42 29.914 88.42 50.8zM46.405.145c22.15-1.532 36.837 9.282 45.234 22.46 4.2 6.607 8.342 16.64 8.36 26.95.02 11.202-3.617 20.903-8.36 28.02C86.763 84.89 80.456 90.933 72.56 94.9c-13.2 6.632-31.65 6.814-43.734.428C15.368 88.218 5.02 78.067 1.17 60.464-.37 53.42-.548 44.317 1.6 36.508c.504-1.832 1.42-3.76 2.144-5.56 3.482-8.656 9.4-16.184 16.722-21.4 2.938-2.092 6.502-4.172 9.647-5.56 3.913-1.728 10.5-3.45 16.293-3.85zM38.9 3.78c-8.227 2.128-14.26 5.94-19.5 10.053-7.57 5.93-12.394 14.204-15.22 24.17-3.144 11.1-1.123 24.497 3.217 32.942 4.5 8.748 10.545 15.538 19.08 20.32 8.303 4.653 19.982 7.64 32.157 5.347 10.817-2.037 19.033-6.74 25.726-13.7 8.955-9.3 16.152-26.43 11.362-44.5-1.28-4.827-2.954-9.858-5.574-14.117-1.416-2.3-3.493-4.565-5.574-6.845C76.7 8.865 64.016 1.45 47.7 2.498c-3.107.2-5.837.52-8.8 1.284z" fill="#000"/></g><g fill="none" stroke="#fff" stroke-linecap="butt" stroke-linejoin="miter" stroke-width="1.788"><path d="M52.808 96.157l43.8-43.7M48.98 92.696l44-43.9m-47.82 40.43l44.183-44.082M41.32 85.775l44.374-44.273M37.492 82.315L82.057 37.85M33.663 78.854L78.42 34.2M29.834 75.393L74.78 30.548M26.004 71.932l45.138-45.036M22.175 68.472l45.328-45.227M18.346 65l45.52-45.417M14.517 61.55L60.23 15.942M10.688 58.1L56.6 12.3M6.86 54.628L52.953 8.64M3.03 51.167l46.285-46.18"/><path d="M3.015 51.6L47.7 96.186M6.638 47.943L51.4 92.606m-41.14-48.33l44.85 44.75M13.884 40.6L58.82 85.447M17.507 36.943L62.53 81.866m-41.4-48.59l45.1 45M24.752 29.6L69.95 74.707M28.375 25.944L73.66 71.127m-41.662-48.85l45.37 45.27M35.62 18.6l45.46 45.357M39.244 14.944L84.8 60.387m-41.923-49.11L88.5 56.808m-42-49.196L92.2 53.23M50.113 3.945L95.92 49.648"/></g><g fill-rule="nonzero"><path d="M81.992 17.684c-3.942-3.933-8.79-7.478-14.578-9.625-6-2.226-12.79-4.103-20.795-3.422C33.866 5.72 24.912 11.43 18.106 18.112c-4.767 4.68-8.352 10.415-10.72 17.112-3.475 9.833-3.264 21.44.643 31.443 3.333 8.533 8.788 15.416 16.507 20.748 7.257 5.013 17.672 8.9 29.37 7.914 14.248-1.2 24.673-8.494 31.514-16.898 1.75-2.15 3.49-4.58 4.502-7.486.99-2.094 1.476-3.518 1.93-4.278 1.9-4.248 2.907-8.73 3.216-13.69.95-15.253-4.932-27.167-13.077-35.293zm-4.2 46.47l-.08.172c-.707 2.018-1.924 3.705-3.148 5.2C69.78 75.36 62.5 80.425 52.527 81.26c-8.18.684-15.464-2.015-20.54-5.496-4.4-3.025-7.762-6.77-10.113-11.268-.143-.27-1.508-3.41-1.512-3.547-1.862-5.763-2.024-15.03-.112-20.59 1.276-3.71 3.4-7.727 6.217-10.91 3.887-4.393 7.778-7.208 13.935-9.198 2.81-.91 5.328-1.833 8.8-1.925 8.44-.224 17.037 3.557 21.652 7.7 4.24 3.807 9.075 11.223 10.3 18.18 1.25 7.16-.084 14.153-3.342 19.947z" fill="#000" stroke="none"/><path d="M63.12 71.025c-2.08 0-3.903-1.313-4.54-3.268l-2.315-7.038H44.684l-2.15 6.974a4.8 4.8 0 0 1-4.577 3.327c-.502 0-1-.08-1.48-.235-2.497-.748-3.915-3.43-3.15-5.975L43.1 33.914c.635-1.965 2.503-3.336 4.545-3.336h5.198c2.053 0 3.92 1.348 4.544 3.277L67.67 64.74c.822 2.525-.54 5.236-3.033 6.045a4.91 4.91 0 0 1-1.516.241h0z" stroke-linejoin="miter" stroke-width="5.363"/><path d="M24.73 20.73l-.012-.017c-1.22-1.667-.86-4 .934-5.306s4.102-.94 5.32.727l.012.017c1.22 1.667.86 4-.934 5.306s-4.102.94-5.32-.727zm4.62-3.365l-.012-.017c-.613-.838-1.753-1.126-2.642-.478-.88.642-.95 1.784-.337 2.622l.012.017c.613.838 1.753 1.126 2.634.484.9-.648.958-1.8.345-2.628zm7.132-7.56l1.832-.586 5.136 5.957-2.038.652-.893-1.062-2.646.847-.097 1.38-2 .64.703-7.827zm3.014 3.66l-1.4-1.7-.15 2.193 1.538-.492zm7.254-1.867l.016-4.035 2.027.008-.016 3.994c-.004 1.037.52 1.532 1.32 1.535s1.33-.467 1.333-1.473l.016-4.045 2.027.008-.016 3.984c-.01 2.32-1.34 3.332-3.388 3.323s-3.33-1.05-3.32-3.3zm14.047-.705l-2.067-.63.5-1.67 6.042 1.84-.5 1.67-2.067-.63-1.592 5.204-1.9-.58 1.592-5.204zm9.883 1.87l1.662 1.103-1.493 2.24 2.133 1.416 1.494-2.24 1.662 1.103-4 5.983-1.662-1.103L72 18.992l-2.133-1.416-1.516 2.274-1.662-1.103 4-5.983zm5.87 65.405l.013.016c1.282 1.62 1.014 3.964-.73 5.338S71.77 84.62 70.488 83l-.013-.016c-1.282-1.62-1.014-3.964.73-5.338s4.063-1.096 5.345.523zm-4.5 3.54l.013.016c.644.814 1.795 1.058 2.66.377.856-.675.88-1.82.236-2.633l-.013-.016c-.644-.814-1.795-1.058-2.65-.383-.864.68-.9 1.826-.244 2.64zm-6.777 7.846l-1.805.666-5.394-5.726 2.007-.74.94 1.022 2.606-.962.036-1.382 1.97-.727-.358 7.85zM62.1 86.03l1.464 1.638.052-2.198-1.515.56zm-7.147 2.158l.178 4.03-2.025.1-.177-4c-.046-1.036-.592-1.505-1.394-1.47s-1.305.53-1.26 1.535l.18 4.04-2.025.1-.176-3.98c-.103-2.318 1.18-3.392 3.224-3.482s3.377.9 3.476 3.135zm-14.07 1.318l2.086.562-.456 1.685-6.1-1.643.456-1.685 2.086.562 1.42-5.254 1.928.52-1.42 5.254zM31.02 88.04l-1.712-1.024 1.386-2.307-2.198-1.314-1.386 2.307-1.712-1.024 3.703-6.165 1.712 1.024-1.407 2.343 2.198 1.314 1.407-2.343 1.712 1.024-3.703 6.164z" stroke="none"/></g></symbol></svg>