<svg xmlns="http://www.w3.org/2000/svg" width="320.664" height="222.168" xmlns:v="https://vecta.io/nano"><defs><clipPath id="A"><path d="M0 283.46h444.793V0H0v283.46z"/></clipPath></defs><g clip-path="url(#A)" transform="matrix(1.25 0 0 -1.25 -118.83087 277.40825)"><g fill="#264670"><path d="M271.6 194.294l-11.77-20.452h-12.36l-14.588-25.314h12.382l-9.365-16.26h30.413c7.774 9.502 12.443 21.645 12.443 34.88 0 9.874-2.6 19.132-7.155 27.148m-60.234-62.03h.03l-.015.027 37.8 65.633h-31.97l-21.795-37.878-19.727 34.276a54.85 54.85 0 0 1-7.173-27.179 54.89 54.89 0 0 1 12.443-34.88h30.416zm-88.4-44.517c0-10.896 4.973-16.093 13.522-16.093s13.523 5.197 13.523 16.093c0 10.952-4.973 16.148-13.523 16.148S122.977 98.7 122.977 87.75m-3.912 0c0 13.243 6.594 19.613 17.434 19.613s17.434-6.37 17.434-19.613c0-13.13-6.593-19.557-17.434-19.557s-17.434 6.426-17.434 19.557m64.762 18.048c.167.447.727 1.23 1.788 1.23s1.9-.838 1.9-1.9c0-.335-.112-.67-.168-.838l-13.075-34.476c-.28-.783-1.062-1.286-1.788-1.286a1.97 1.97 0 0 0-1.788 1.286L157.62 104.3c-.056.168-.168.503-.168.838 0 1.062.84 1.9 1.9 1.9s1.62-.782 1.788-1.23l11.344-30.062 11.343 30.062z"/><path d="M196.845 86.52V70.427c0-1.005-.838-1.9-1.9-1.9s-1.9.894-1.9 1.9v34.7c0 1.006.84 1.9 1.9 1.9s1.9-.895 1.9-1.9V89.985H216.3v15.142c0 1.006.84 1.9 1.9 1.9s1.9-.895 1.9-1.9v-34.7c0-1.005-.838-1.9-1.9-1.9s-1.9.894-1.9 1.9V86.52h-19.445z"/></g><g fill="#8a8a89"><path d="M226.404 71.153c0 1.845 1.006 2.683 2.626 2.683s2.627-.838 2.627-2.683-1.006-2.626-2.627-2.626-2.626.782-2.626 2.626m20.563 23.972c4.973 0 7.7-2.626 8.604-3.855.28-.4.392-.67.392-1.062 0-.95-.726-1.62-1.62-1.62-.56 0-.95.223-1.342.67-.838.95-2.346 2.626-6.034 2.626-5.14 0-7.88-3.296-7.88-10.17 0-6.986 2.738-10.226 7.88-10.226 3.24 0 5.196 1.452 6.48 2.403.392.28.67.4 1.062.4a1.62 1.62 0 0 0 1.621-1.621c0-.503-.168-.893-.726-1.396-1.23-1.006-3.913-3.018-8.438-3.018-7.208 0-11.5 4.303-11.5 13.467s4.303 13.4 11.5 13.4m32.967-13.398c0 7.04-2.96 10.17-8.102 10.17s-8.102-3.13-8.102-10.17c0-7.152 2.96-10.226 8.102-10.226s8.102 3.074 8.102 10.226m3.633 0c0-9.164-4.47-13.467-11.735-13.467-7.2 0-11.734 4.303-11.734 13.467s4.525 13.4 11.734 13.4c7.264 0 11.735-4.246 11.735-13.4m44.03 3.52v-14.92c0-1.006-.782-1.788-1.788-1.788s-1.788.782-1.788 1.788v14.193c0 4.414-1.565 7.432-6.986 7.432-4.804 0-6.984-2.57-6.984-6.706v-14.92c0-1.006-.782-1.788-1.788-1.788s-1.788.782-1.788 1.788v14.193c0 4.414-1.397 7.432-6.873 7.432-5.196 0-6.873-3.13-6.873-7.823v-13.8c0-1.006-.782-1.788-1.788-1.788s-1.788.782-1.788 1.788v22.687c0 1.005.782 1.788 1.788 1.788s1.788-.783 1.788-1.788v-1.8c.95 2.068 3.632 3.912 7.264 3.912 4.583 0 7.543-1.676 8.884-3.912 1.398 2.18 3.857 3.912 8.158 3.912 8.606 0 10.562-5.14 10.562-9.9"/></g></g></svg>