<svg xmlns="http://www.w3.org/2000/svg" width="25.576" height="30.177" xmlns:v="https://vecta.io/nano"><path d="M7.266 29.154l.523-3.322-1.165-.027H1.06L4.927 1.292c.012-.074.05-.143.108-.192s.13-.076.206-.076h9.38c3.114 0 5.263.648 6.385 1.927.526.6.86 1.227 1.023 1.917.17.724.173 1.59.007 2.644l-.012.077v.676l.526.298c.443.235.795.504 1.065.812.45.513.74 1.165.864 1.938.127.795.085 1.74-.123 2.812-.24 1.232-.628 2.305-1.152 3.183-.482.81-1.096 1.48-1.825 2-.696.494-1.523.87-2.458 1.11-.906.236-1.94.355-3.072.355h-.73c-.522 0-1.03.188-1.427.525a2.21 2.21 0 0 0-.744 1.328l-.055.3-.924 5.855-.042.215c-.01.068-.03.102-.058.125s-.06.035-.096.035H7.266z" fill="#253b80"/><path d="M23.048 7.667h0l-.096.55c-1.237 6.35-5.47 8.545-10.874 8.545H9.326c-.66 0-1.218.48-1.32 1.132h0l-1.808 11.47c-.067.428.263.814.695.814h4.88c.578 0 1.07-.42 1.16-1l.048-.248.92-5.832.06-.32c.1-.572.582-.992 1.16-.992h.73c4.73 0 8.43-1.92 9.513-7.476.452-2.32.218-4.26-.978-5.622-.362-.41-.81-.752-1.336-1.03z" fill="#179bd7"/><path d="M21.754 7.15L21.17 7l-.62-.117c-.742-.12-1.555-.177-2.426-.177h-7.352c-.18 0-.353.04-.507.115a1.17 1.17 0 0 0-.652.877l-1.61 10.195c.103-.652.66-1.132 1.32-1.132h2.752c5.405 0 9.637-2.195 10.874-8.545.037-.188.068-.37.096-.55-.313-.166-.652-.308-1.017-.43-.1-.03-.183-.06-.277-.087z" fill="#222d65"/><path d="M9.614 7.7a1.17 1.17 0 0 1 1.159-.991h7.352c.87 0 1.684.057 2.426.177l.62.117.584.15.278.086c.365.12.704.264 1.017.43.368-2.347-.003-3.945-1.272-5.392C20.378.682 17.853 0 14.622 0h-9.38a1.34 1.34 0 0 0-1.325 1.133L.01 25.898c-.077.5.3.932.795.932h5.79L9.614 7.7z" fill="#253b80"/></svg>