<svg xmlns="http://www.w3.org/2000/svg" viewBox="0 0 70 70" xmlns:v="https://vecta.io/nano"><linearGradient id="A" gradientUnits="userSpaceOnUse" x1="24.999" y1="27.046" x2="66.657" y2="27.046"><stop offset="0" stop-color="#21d789"/><stop offset="1" stop-color="#07c3f2"/></linearGradient><path d="M49.1 11l20.4 17.1L62.2 43l-12.4-3.4H39.2z" fill="url(#A)"/><linearGradient id="B" gradientUnits="userSpaceOnUse" x1="-24.559" y1="59.081" x2="61.22" y2="-4.241"><stop offset=".011" stop-color="#fcf84a"/><stop offset=".112" stop-color="#a7eb62"/><stop offset=".206" stop-color="#5fe077"/><stop offset=".273" stop-color="#32da84"/><stop offset=".307" stop-color="#21d789"/><stop offset=".597" stop-color="#21d789"/><stop offset=".686" stop-color="#20d68c"/><stop offset=".763" stop-color="#1ed497"/><stop offset=".835" stop-color="#19d1a9"/><stop offset=".904" stop-color="#13ccc2"/><stop offset=".971" stop-color="#0bc6e1"/><stop offset="1" stop-color="#07c3f2"/></linearGradient><path d="M28.5 22.1l-4 20.9-.4 7.2-9.9 4.3L0 56l4.3-45.3L29.9 0l15.8 10.4z" fill="url(#B)"/><linearGradient id="C" gradientUnits="userSpaceOnUse" x1="9.33" y1="77.654" x2="23.637" y2="32.76"><stop offset="0" stop-color="#21d789"/><stop offset=".164" stop-color="#24d788"/><stop offset=".305" stop-color="#2fd886"/><stop offset=".437" stop-color="#41da82"/><stop offset=".564" stop-color="#5adc7d"/><stop offset=".688" stop-color="#7ae077"/><stop offset=".809" stop-color="#a1e36e"/><stop offset=".925" stop-color="#cfe865"/><stop offset="1" stop-color="#f1eb5e"/></linearGradient><path d="M28.5 22.1l1.9 40.4L24 70 0 56l19.7-29.4z" fill="url(#C)"/><linearGradient id="D" gradientUnits="userSpaceOnUse" x1="28.275" y1="38.623" x2="59.409" y2="-3.236"><stop offset="0" stop-color="#21d789"/><stop offset=".061" stop-color="#24d788"/><stop offset=".113" stop-color="#2fd886"/><stop offset=".162" stop-color="#41da82"/><stop offset=".209" stop-color="#5add7d"/><stop offset=".255" stop-color="#79e077"/><stop offset=".258" stop-color="#7ce076"/><stop offset=".499" stop-color="#8ce173"/><stop offset=".925" stop-color="#b2e56b"/></linearGradient><path d="M54.9 19.1H30.6L52.1 0z" fill="url(#D)"/><linearGradient id="E" gradientUnits="userSpaceOnUse" x1="75.889" y1="43.95" x2="13.158" y2="43.369"><stop offset=".387" stop-color="#fcf84a"/><stop offset=".536" stop-color="#ecf451"/><stop offset=".826" stop-color="#c2e964"/><stop offset=".925" stop-color="#b2e56b"/></linearGradient><path d="M70 62.6l-21.4 7.3-28.4-8 8.3-39.8 3.3-3 17.3-1.6-1.6 17.4 13.8-5.3z" fill="url(#E)"/><path d="M13.4 13.4h43.2v43.2H13.4z"/><path d="M17.5 48.5h16.2v2.7H17.5zm-.2-29.4h7.3c4.3 0 6.9 2.5 6.9 6.2v.1c0 4.1-3.2 6.3-7.2 6.3h-3V37h-3.9V19.1zm7.1 9c2 0 3.1-1.2 3.1-2.7v-.1c0-1.8-1.2-2.7-3.2-2.7h-3v5.5h3.1zm8.7 0h0c0-5.1 3.8-9.3 9.3-9.3 3.4 0 5.4 1.1 7.1 2.8L47 24.5c-1.4-1.3-2.8-2-4.6-2-3 0-5.2 2.5-5.2 5.6V28c0 3.1 2.1 5.6 5.2 5.6 2 0 3.3-.8 4.7-2.1l2.5 2.5c-1.8 2-3.9 3.2-7.3 3.2-5.3.1-9.2-4-9.2-9.1" fill="#fff"/></svg>