<svg xmlns="http://www.w3.org/2000/svg"><path d="M39.694 18.398a15.76 15.76 0 0 0-10.887-4.319l-1.024.032A15.92 15.92 0 0 0 28.8 45.908h15.912V30c.02-4.398-1.8-8.604-5.018-11.602zm-17.407 3.64h13.024c.517 0 .995.275 1.253.723s.26 1 0 1.447-.736.723-1.253.723H22.288c-.517 0-.995-.275-1.253-.723s-.26-1 0-1.447.736-.723 1.253-.723zm13.024 15.916H22.288a1.45 1.45 0 0 1 0-2.896h13.024a1.45 1.45 0 0 1 0 2.896zM41.096 30c0 .384-.152.75-.424 1.023s-.64.424-1.023.424H17.957c-.517 0-.995-.275-1.253-.723s-.26-1 0-1.447.736-.723 1.253-.723H39.65c.384 0 .75.152 1.023.424s.424.64.424 1.023z" fill="#f27557"/><path d="M41.68 16.29c-7.405-6.95-18.99-6.764-26.17.416s-7.365 18.765-.416 26.17A18.88 18.88 0 0 0 28.8 48.804h17.383a1.45 1.45 0 0 0 1.446-1.446V30a18.88 18.88 0 0 0-5.95-13.711zm3.033 29.62H28.8a15.92 15.92 0 0 1-1.016-31.797c.34 0 .687-.032 1.024-.032 8.786.01 15.904 7.134 15.904 15.92z" fill="#c34027"/><path d="M35.312 35.057H22.288a1.45 1.45 0 0 0 0 2.896h13.024a1.45 1.45 0 0 0 0-2.896zM22.288 24.93h13.024c.517 0 .995-.275 1.253-.723s.26-1 0-1.447a1.45 1.45 0 0 0-1.253-.723H22.288c-.517 0-.995.275-1.253.723s-.26 1 0 1.447a1.45 1.45 0 0 0 1.253.723zm-4.338 3.62c-.8 0-1.446.647-1.446 1.446s.647 1.446 1.446 1.446h21.693c.8 0 1.446-.647 1.446-1.446s-.647-1.446-1.446-1.446z" fill="#fff"/></svg>