<svg xmlns="http://www.w3.org/2000/svg" viewBox="0 0 71.94 71.94" xmlns:v="https://vecta.io/nano"><path d="M71.94 63.925c0 3.892-3.924 8.01-7.83 8.01H7.426C3.53 71.936 0 67.817 0 63.925V7.23C0 3.338 3.53 0 7.426 0H64.1c3.905 0 7.83 3.338 7.83 7.23v56.695z" fill="#992094"/><path d="M63.37 38.673l-1.843 8.66m-2.9-8.66l-1.397 6.47"/><path d="M63.05 38.045h-3.93c-.222 0-.443.296-.483.508L57.24 45.08l-1.392 6.778c-.05.22-.27.712-.5.712h-2.783c-2.756 0-2.44-2.2-1.88-4.8l.025-.23.058-.403.01-.094.13-.7.132-.728.14-.738.637-3.106.64-3.227c.046-.212-.1-.508-.316-.508H48.1c-.22 0-.436.296-.477.508l-.645 4.184-.95 4.4c-1.004 4.57-.96 8.897 4.475 8.897h8.693c.222 0 .437 0 .478-.222l1.84-8.573 1.843-8.73c.05-.205-.095-.462-.318-.462m-28.544-3.03l-1.597 6.37-1.553 5.3c-.098.4-.6.355-.978.355h-7.533c-5.702 0-7.094-4.653-5.702-12.053 1.394-7.56 4.245-12.076 9.866-12.558 7.7-.645 9.353 5.6 7.497 12.587m4.9 12.3s3.55-9.668 4.354-15.264c1.093-7.473-2.234-18.315-15.125-18.315-12.812 0-18.383 10.35-20.507 21.606-2.12 11.337.66 21.282 13.4 21.203l19.46-.08c.352 0 .725-.33.817-.72l1.635-7c.092-.398-.127-.72-.5-.72l-1.568-.015-1.57-.01c-.314-.007-.484-.222-.452-.526l.043-.162" fill="#fff"/></svg>