<svg xmlns="http://www.w3.org/2000/svg" xmlns:xlink="http://www.w3.org/1999/xlink" height="64" viewBox="0 0 32 32" width="64" xmlns:v="https://vecta.io/nano"><style><![CDATA[.B{fill-rule:evenodd}.C{clip-rule:evenodd}]]></style><clipPath id="A"><use xlink:href="#i" class="C"/></clipPath><clipPath id="B"><use xlink:href="#j" class="C"/></clipPath><clipPath id="C"><use xlink:href="#k" class="C"/></clipPath><clipPath id="D"><use xlink:href="#l" class="C"/></clipPath><clipPath id="E"><use xlink:href="#m" class="C"/></clipPath><clipPath id="F"><use xlink:href="#n" class="C"/></clipPath><clipPath id="G"><use xlink:href="#o" class="C"/></clipPath><clipPath id="H"><use xlink:href="#p" class="C"/></clipPath><clipPath id="I"><use xlink:href="#q" class="C"/></clipPath><clipPath id="J"><use xlink:href="#r" class="C"/></clipPath><clipPath id="K"><use xlink:href="#s" class="C"/></clipPath><clipPath id="L"><use xlink:href="#t" class="C"/></clipPath><clipPath id="M"><use xlink:href="#u" class="C"/></clipPath><clipPath id="N"><use xlink:href="#v" class="C"/></clipPath><clipPath id="O"><use xlink:href="#w" class="C"/></clipPath><clipPath id="P"><use xlink:href="#x" class="C"/></clipPath><linearGradient id="Q" gradientUnits="userSpaceOnUse" spreadMethod="pad" x1="381.75" x2="339.95" y1="-279.745" y2="-353.545"><stop offset="0" stop-color="#fb7655"/><stop offset=".41" stop-color="#e42b1e"/><stop offset=".99" stop-color="#900"/><stop offset="1" stop-color="#900"/></linearGradient><linearGradient id="R" gradientUnits="userSpaceOnUse"><stop offset="0" stop-color="#871101"/><stop offset=".99" stop-color="#911209"/><stop offset="1" stop-color="#911209"/></linearGradient><linearGradient id="S" spreadMethod="pad" x1="402.574" x2="348.705" xlink:href="#R" y1="-341.734" y2="-377.883"/><linearGradient id="T" spreadMethod="pad" x1="359.474" x2="305.605" xlink:href="#R" y1="-277.507" y2="-313.656"/><linearGradient id="U" gradientUnits="userSpaceOnUse" spreadMethod="pad" x1="246.376" x2="254.727" y1="-367.898" y2="-313.625"><stop offset="0" stop-color="#fff"/><stop offset=".23" stop-color="#e57252"/><stop offset=".46" stop-color="#de3b20"/><stop offset=".99" stop-color="#a60003"/><stop offset="1" stop-color="#a60003"/></linearGradient><linearGradient id="V" gradientUnits="userSpaceOnUse" spreadMethod="pad" x1="303.813" x2="306.89" y1="-418.579" y2="-363.189"><stop offset="0" stop-color="#fff"/><stop offset=".23" stop-color="#e4714e"/><stop offset=".56" stop-color="#be1a0d"/><stop offset=".99" stop-color="#a80d00"/><stop offset="1" stop-color="#a80d00"/></linearGradient><linearGradient id="W" gradientUnits="userSpaceOnUse" spreadMethod="pad" x1="354.784" x2="363.995" y1="-469.767" y2="-430.072"><stop offset="0" stop-color="#fff"/><stop offset=".18" stop-color="#e46342"/><stop offset=".4" stop-color="#c82410"/><stop offset=".99" stop-color="#a80d00"/><stop offset="1" stop-color="#a80d00"/></linearGradient><linearGradient id="X" gradientTransform="matrix(39.69395 -19.84702 19.84702 39.69394 326.65625 -483.74756)" gradientUnits="userSpaceOnUse" spreadMethod="pad" x1="0" x2="1" y1="0" y2="0"><stop offset="0" stop-color="#fff"/><stop offset=".54" stop-color="#c81f11"/><stop offset=".99" stop-color="#bf0905"/><stop offset="1" stop-color="#bf0905"/></linearGradient><linearGradient id="Y" gradientUnits="userSpaceOnUse" spreadMethod="pad" x1="211.584" x2="214.851" y1="-381.735" y2="-349.025"><stop offset="0" stop-color="#fff"/><stop offset=".31" stop-color="#de4024"/><stop offset=".99" stop-color="#bf190b"/><stop offset="1" stop-color="#bf190b"/></linearGradient><linearGradient id="Z" gradientUnits="userSpaceOnUse" spreadMethod="pad" x1="189.12" x2="342.694" y1="-340.181" y2="-498.098"><stop offset="0" stop-color="#bd0012"/><stop offset=".07" stop-color="#fff"/><stop offset=".27" stop-color="#c82f1c"/><stop offset=".33" stop-color="#820c01"/><stop offset=".46" stop-color="#a31601"/><stop offset=".72" stop-color="#b31301"/><stop offset=".99" stop-color="#e82609"/><stop offset="1" stop-color="#e82609"/></linearGradient><linearGradient id="a" gradientUnits="userSpaceOnUse" spreadMethod="pad" x1="306.757" x2="260.503" y1="-324.257" y2="-335.673"><stop offset="0" stop-color="#8c0c01"/><stop offset=".54" stop-color="#990c00"/><stop offset=".99" stop-color="#a80d0e"/><stop offset="1" stop-color="#a80d0e"/></linearGradient><linearGradient id="b" gradientUnits="userSpaceOnUse" spreadMethod="pad" x1="386.206" x2="345.112" y1="-379.776" y2="-416.608"><stop offset="0" stop-color="#7e110b"/><stop offset=".99" stop-color="#9e0c00"/><stop offset="1" stop-color="#9e0c00"/></linearGradient><linearGradient id="c" gradientUnits="userSpaceOnUse" spreadMethod="pad" x1="401.303" x2="380.833" y1="-447.354" y2="-469.237"><stop offset="0" stop-color="#79130d"/><stop offset=".99" stop-color="#9e120b"/><stop offset="1" stop-color="#9e120b"/></linearGradient><radialGradient id="d" cx="351.51" cy="-415.9" gradientUnits="userSpaceOnUse" r="50.36" spreadMethod="pad"><stop offset="0" stop-color="#a80d00"/><stop offset=".99" stop-color="#7e0e08"/><stop offset="1" stop-color="#7e0e08"/></radialGradient><radialGradient id="e" cx="281.77" cy="-349.54" gradientUnits="userSpaceOnUse" r="66.947" spreadMethod="pad"><stop offset="0" stop-color="#a30c00"/><stop offset=".99" stop-color="#800e08"/><stop offset="1" stop-color="#800e08"/></radialGradient><linearGradient id="f" gradientUnits="userSpaceOnUse" spreadMethod="pad" x1="234.351" x2="217.669" y1="-297.951" y2="-354.548"><stop offset="0" stop-color="#8b2114"/><stop offset=".43" stop-color="#9e100a"/><stop offset=".99" stop-color="#b3100c"/><stop offset="1" stop-color="#b3100c"/></linearGradient><linearGradient id="g" gradientUnits="userSpaceOnUse" spreadMethod="pad" x1="362.323" x2="399.723" y1="-485.492" y2="-468.983"><stop offset="0" stop-color="#b31000"/><stop offset=".44" stop-color="#910f08"/><stop offset=".99" stop-color="#791c12"/><stop offset="1" stop-color="#791c12"/></linearGradient><g transform="matrix(.162097 0 0 .162097 -33.667905 80.28591)" class="B"><g clip-path="url(#P)"><use xlink:href="#x" fill="url(#Q)"/></g><g clip-path="url(#O)"><use xlink:href="#w" fill="url(#S)"/></g><g clip-path="url(#N)"><use xlink:href="#v" fill="url(#T)"/></g><g clip-path="url(#M)"><use xlink:href="#u" fill="url(#U)"/></g><g clip-path="url(#L)"><use xlink:href="#t" fill="url(#V)"/></g><g clip-path="url(#K)"><use xlink:href="#s" fill="url(#W)"/></g><g clip-path="url(#J)"><use xlink:href="#r" fill="url(#X)"/></g><g clip-path="url(#I)"><use xlink:href="#q" fill="url(#Y)"/></g><path d="M209.62-394.64l11.5 32.62 49.97-11.2 57.05-53.02 16.1-51.14-25.35-17.9-43.1 16.13-40.88 38.1c-.94.48-17.4 31.6-25.3 46.43z" fill="#fff"/><g clip-path="url(#H)"><use xlink:href="#p" fill="url(#Z)"/></g><g clip-path="url(#G)"><use xlink:href="#o" fill="url(#a)"/></g><g clip-path="url(#F)"><use xlink:href="#n" fill="url(#b)"/></g><g clip-path="url(#E)"><use xlink:href="#m" fill="url(#c)"/></g><path d="M207.68-337.54c1.08 38.85 29.1 39.43 41.05 39.77l-27.58-64.4-13.47 24.64z" fill="#9e1209"/><g clip-path="url(#D)"><use xlink:href="#l" fill="url(#d)"/></g><g clip-path="url(#C)"><use xlink:href="#k" fill="url(#e)"/></g><g clip-path="url(#B)"><use xlink:href="#j" fill="url(#f)"/></g><g clip-path="url(#A)"><use xlink:href="#i" fill="url(#g)"/></g></g><defs ><path id="i" d="M343.58-477.68l60.7 8.52c-3.24-13.73-13.2-22.6-30.15-25.36l-30.56 16.84z"/><path id="j" d="M221.03-362.1l-4.33 51.56c8.17 11.16 19.4 12.13 31.2 11.26-8.53-21.23-25.57-63.68-26.87-62.82z"/><path id="k" d="M271.5-373.63l30.56 58.96c18.07-9.8 32.22-21.74 45.18-34.53l-75.74-24.43z"/><path id="l" d="M328.35-426.28l53.85 32.98c1.12.63 15.3-23.93 18.53-37.8l-72.38 4.83z"/><path id="m" d="M401.12-430.9c7.8-23.54 9.6-57.3-27.18-63.58l-30.18 16.67 57.36 46.9z"/><path id="n" d="M328.24-426.4l19.5 77.2c22.93-24.1 43.5-50.03 53.6-82.1l-73.08 4.9z"/><path id="o" d="M248.68-297.9l22.86-75.72 75.92 24.4c-27.45 25.74-57.98 47.5-98.78 51.33z"/><path id="p" d="M250-453.24c29.43-29.18 67.37-46.42 81.93-31.73 14.55 14.7-.88 50.4-30.3 79.56s-66.9 47.36-81.45 32.67c-14.56-14.68.4-51.33 29.83-80.5z"/><path id="q" d="M210.38-393.67l-2.7 56.47 14.13-25.77-11.43-30.7z"/><path id="r" d="M319.17-494.77l55 .25-33.73 18.64-21.28-18.9z"/><path id="s" d="M327.68-426.2l73.32-4.8-57.35-46.84-15.97 51.63z"/><path id="t" d="M266-375.28l81.87 26.17-21.2-83.04L266-375.28z"/><path id="u" d="M221.02-362.52l27.66 64.64 23.04-75.48-50.7 10.84z"/><path id="v" d="M248.55-297.9l146.4-9.85L302.7-315l-54.16 17.1z"/><path id="w" d="M347.9-349.36l46.88 41.6-12.6-86.9-34.3 45.28z"/><path id="x" d="M248.06-297.7l146.47-9.94 11.28-147.7-44.63 90.46-113.12 67.17z"/></defs></svg>