<svg xmlns="http://www.w3.org/2000/svg" viewBox="0 0 792 612" xmlns:v="https://vecta.io/nano"><path fill="#f89939" d="M333.32 347.348c33.87-33.867 39.498-83.146 12.572-110.07s-76.2-21.293-110.066 12.572-24.07 98.568-12.57 110.07c9.293 9.293 76.2 21.293 110.064-12.572z"/><path fill="#3499cd" d="M194.35 298.41c-19.648-19.648-48.242-22.92-63.867-7.295s-12.355 44.22 7.297 63.865c19.652 19.654 57.195 13.97 63.863 7.295 5.396-5.387 12.36-44.215-7.293-63.865z"/><g fill="#010101"><path d="M262.143 339.047c-3.47 3.195-6.516 5.553-9.133 7.068s-5.113 2.28-7.488 2.28c-2.732 0-4.936-1.06-6.607-3.178s-2.508-4.965-2.508-8.543c0-5.36 1.162-11.797 3.486-19.3 2.32-7.5 5.145-14.43 8.463-20.76l9.73-3.602c.305-.102.537-.154.69-.154.738 0 1.348.544 1.816 1.627.473 1.088.71 2.55.71 4.388 0 5.21-1.2 10.252-3.602 15.13s-6.154 10.086-11.26 15.627c-.205 2.656-.307 4.48-.307 5.477 0 2.223.408 3.982 1.225 5.285s1.902 1.953 3.256 1.953c1.38 0 2.848-.494 4.406-1.5s3.93-3.064 7.12-6.207v4.403zm-14.668-14.973c3.242-3.605 5.875-7.648 7.89-12.12s3.023-8.324 3.023-11.55c0-.94-.14-1.704-.418-2.278s-.64-.864-1.074-.864c-.94 0-2.316 2.352-4.117 7.057s-3.57 11.3-5.305 19.755z"/><path d="M290.795 339.047c-3.242 3.195-6.152 5.553-8.732 7.068s-5.424 2.28-8.54 2.28c-3.473 0-6.275-1.11-8.4-3.33-2.13-2.225-3.195-5.146-3.195-8.773 0-5.412 1.875-10.31 5.633-14.688 3.75-4.38 7.914-6.57 12.484-6.57 2.375 0 4.275.615 5.707 1.84s2.145 2.834 2.145 4.826c0 5.287-5.617 9.574-16.852 12.87 1.02 4.977 3.688 7.47 8.004 7.47 1.686 0 3.293-.453 4.824-1.357s3.844-2.922 6.934-6.035v4.402zm-20.07-7.084c6.535-1.84 9.805-5.234 9.805-10.188 0-2.45-.895-3.676-2.68-3.676-1.686 0-3.293 1.28-4.824 3.85s-2.3 5.9-2.3 10.014z"/><path d="M331.7 339.047c-4.086 3.88-7 6.412-8.77 7.588s-3.447 1.76-5.057 1.76c-4.035 0-5.936-3.56-5.707-10.686-2.553 3.65-4.9 6.344-7.068 8.084s-4.383 2.602-6.684 2.602c-2.244 0-4.152-1.05-5.725-3.158s-2.354-4.69-2.354-7.758c0-3.828 1.05-7.48 3.156-10.955s4.81-6.28 8.102-8.424 6.207-3.22 8.732-3.22c3.193 0 5.428 1.47 6.705 4.404l7.828-4.326h2.148l-3.38 11.22c-1.736 5.645-2.607 9.514-2.607 11.607 0 2.195.777 3.293 2.336 3.293.992 0 2.1-.53 3.29-1.6s2.883-2.676 5.053-4.846v4.403zm-28.037 2.11c2.553 0 4.96-2.176 7.223-6.53s3.39-8.373 3.39-12.05c0-1.428-.322-2.547-.957-3.35-.64-.807-1.496-1.207-2.566-1.207-2.555 0-4.977 2.17-7.258 6.512s-3.43 8.338-3.43 11.986c0 1.38.34 2.498 1.016 3.354s1.534 1.283 2.583 1.283z"/><path d="M360.314 339.047c-6.4 6.28-11.352 9.424-14.824 9.424-1.56 0-2.875-.658-3.945-1.97s-1.61-2.945-1.61-4.887c0-3.6 1.93-8.424 5.785-14.477-1.89.97-3.957 1.645-6.205 2.03-1.66 3.064-4.266 6.36-7.814 9.88h-.88v-3.443a50.23 50.23 0 0 0 5.4-6.666c-2.2-.97-3.295-2.414-3.295-4.326 0-1.97.668-4.068 2.012-6.305s3.184-3.348 5.535-3.348c1.992 0 2.986 1.018 2.986 3.062 0 1.61-.574 3.906-1.725 6.895 4.238-.46 7.94-3.7 11.11-9.73l3.484-.154-3.562 9.805c-1.48 4.137-2.438 6.955-2.87 8.447s-.652 2.816-.652 3.963c0 1.074.25 1.932.746 2.566.498.643 1.17.96 2.012.96.918 0 1.8-.314 2.643-.936.842-.63 2.732-2.36 5.67-5.193v4.404z"/><path d="M397.928 339.047c-5.898 6.234-10.957 9.348-15.168 9.348-1.71 0-3.1-.6-4.137-1.8s-1.572-2.807-1.572-4.824c0-2.732 1.125-6.908 3.373-12.523 1.2-3.014 1.8-4.932 1.8-5.746s-.322-1.227-.957-1.227c-.357 0-.832.18-1.418.535-.54.357-1.164.86-1.88 1.496-.637.586-1.354 1.3-2.145 2.14-.69.72-1.432 1.537-2.22 2.453l-2.148 2.492c-.943 1.148-1.53 2.36-1.76 3.637-.385 2.17-.64 4.164-.768 5.98-.078 1.35-.115 3.174-.115 5.477l-8.465 1.988c-.28-3.447-.422-6.014-.422-7.697 0-4.11.48-8.006 1.438-11.682s2.494-7.814 4.615-12.412l9.344-1.8c-1.965 5.287-3.254 9.447-3.867 12.484 4.188-4.672 7.508-7.906 9.97-9.71s4.645-2.697 6.557-2.697c1.3 0 2.385.5 3.25 1.47s1.3 2.215 1.3 3.69c0 2.45-1.098 6.484-3.29 12.104-1.508 3.854-2.262 6.355-2.262 7.5 0 1.537.627 2.305 1.88 2.305 1.867 0 4.89-2.465 9.064-7.393v4.4z"/></g><text transform="translate(273.941 302.206)" font-size="23.08" fill="#fff" font-family="Helvetica"> scikit </text></svg>