<svg xmlns="http://www.w3.org/2000/svg" fill="#fff" fill-rule="evenodd" height="64" stroke="#000" stroke-linecap="round" stroke-linejoin="round" width="64" xmlns:v="https://vecta.io/nano"><g stroke-width=".79"><path d="M17.778 40.3c0-3.728 2.82-6.73 6.32-6.73s6.32 3 6.32 6.73v16.565c0 3.728-2.82 6.73-6.32 6.73s-6.32-3.002-6.32-6.73z" fill="#e01e5a" stroke="#e01e5a"/><path d="M40.3 46.222c-3.728 0-6.73-2.82-6.73-6.32s3-6.32 6.73-6.32h16.565c3.728 0 6.73 2.82 6.73 6.32s-3 6.32-6.73 6.32z" fill="#ecb22d" stroke="#ecb22d"/><path d="M33.58 7.125c0-3.728 2.82-6.73 6.32-6.73s6.32 3 6.32 6.73V23.7c0 3.728-2.82 6.73-6.32 6.73s-6.32-3-6.32-6.73z" fill="#2fb67c" stroke="#2fb67c"/><path d="M7.125 30.42c-3.728 0-6.73-2.82-6.73-6.32s3-6.32 6.73-6.32H23.7c3.728 0 6.73 2.82 6.73 6.32s-3 6.32-6.73 6.32z" fill="#36c5f1" stroke="#36c5f1"/></g><g stroke-width=".79" stroke-linejoin="miter"><path d="M33.58 57.284a6.31 6.31 0 0 0 6.321 6.321 6.31 6.31 0 0 0 4.474-10.795 6.31 6.31 0 0 0-4.474-1.847h-6.32z" fill="#ecb22d" stroke="#ecb22d"/><path d="M57.284 30.42h-6.32V24.1a6.31 6.31 0 1 1 12.642 0 6.31 6.31 0 0 1-6.321 6.321z" fill="#2fb67c" stroke="#2fb67c"/><path d="M6.716 33.58h6.32v6.32a6.31 6.31 0 0 1-6.321 6.321 6.31 6.31 0 0 1-6.321-6.321 6.31 6.31 0 0 1 6.321-6.321z" fill="#e01e5a" stroke="#e01e5a"/><path d="M30.42 6.716v6.32H24.1a6.31 6.31 0 0 1-6.321-6.321A6.31 6.31 0 0 1 24.099.395a6.31 6.31 0 0 1 6.321 6.321z" fill="#36c5f1" stroke="#36c5f1"/></g></svg>