<svg xmlns="http://www.w3.org/2000/svg" width="63.087" height="63.087" xmlns:v="https://vecta.io/nano"><path d="M31.543 61.585c-16.59-.001-30.04-13.45-30.04-30.04s13.45-30.04 30.04-30.04 30.04 13.45 30.04 30.04c-.048 16.572-13.47 29.994-30.042 30.042z" fill="#fcdc00"/><path d="M31.543 3A28.539 28.539 0 1 1 3 31.543 28.527 28.527 0 0 1 31.543 3m0-3a31.543 31.543 0 1 0 31.544 31.543A31.539 31.539 0 0 0 31.543 0zm18.172 30.192l2.4-3.455-2.554-6.3-4.206-.75-1.8-1.953-.746-4.2-6.46-2.7-3.455 2.4H30.34l-3.455-2.4-6.46 2.7-.75 4.206-1.953 1.8-4.2.757-2.7 6.3 2.4 3.455v2.7l-2.4 3.458 2.7 6.46 4.206.75 1.8 1.8.75 4.206 6.3 2.7 3.455-2.4h2.7l3.455 2.4 6.46-2.554.75-4.206 1.8-1.8 4.206-.75 2.7-6.3-2.4-3.455zm-1.05 6.6l-1.35 3.304-3.455.6-3.3 3.154-.6 3.455-3.3 1.352-2.863-1.95H29.3l-2.854 1.953-3.3-1.352-.6-3.455-3.3-3.3-3.455-.6-1.352-3.3 1.953-2.854V29.3l-1.967-2.854 1.352-3.3 3.455-.6 3.154-3.154.6-3.455 3.3-1.352 2.854 1.953h4.506l2.854-1.953 3.3 1.352.6 3.455 3.154 3.154 3.455.6 1.352 3.3-1.936 2.854v4.506zm-9.912-13.07L36.8 25.986c1.863 1.572 2.956 3.872 3 6.3.006 2.193-.862 4.298-2.413 5.848a8.24 8.24 0 0 1-5.848 2.413h-.45l5.858-9.163-6.6-1.5 4.96-8.716-2.554-1.5-6.9 12.167 6.3 1.352-4.056 6.46c-2.847-1.344-4.66-4.212-4.656-7.36.022-2.188.88-4.284 2.4-5.858l-2.1-2.1a11.26 11.26 0 0 0-1.79 13.597c2.55 4.415 7.747 6.567 12.67 5.247S42.97 37.4 42.967 32.3a12.66 12.66 0 0 0-4.204-8.565z" fill="#173647"/></svg>