<svg xmlns="http://www.w3.org/2000/svg" viewBox="0 0 65 65">
	<g>
		<g>
			<path d="M44.22,6.91H19.64a4.5,4.5,0,0,0-4.3,4.66V53.43a4.49,4.49,0,0,0,4.3,4.65H49.79a4.49,4.49,0,0,0,4.31-4.65V17.58L44.22,6.92ZM19.64,53.43V11.57H41.18v9.3h8.61V53.43Z" transform="translate(0)" style="fill: #212932" />
			<path d="M6,32.53A9.24,9.24,0,0,1,7.93,34a7.1,7.1,0,0,1,1.48,2.11,11.82,11.82,0,0,1,.91,3,26.11,26.11,0,0,1,.3,4.26v7.18c0,2.1.05,3.86.13,5.26a8.33,8.33,0,0,0,.84,3.42,3.91,3.91,0,0,0,2.19,1.85,12.92,12.92,0,0,0,4.23.54V65h-.53a16.82,16.82,0,0,1-5.38-.74,7.79,7.79,0,0,1-3.4-2.14A8.09,8.09,0,0,1,7,58.59a20.4,20.4,0,0,1-.51-4.79v-13a7.83,7.83,0,0,0-.37-2.38,6,6,0,0,0-1.17-2.11,6.35,6.35,0,0,0-2-1.54A6.45,6.45,0,0,0,0,34.14V30.86a6.32,6.32,0,0,0,2.89-.61,6.35,6.35,0,0,0,2-1.54A6,6,0,0,0,6.08,26.6a7.83,7.83,0,0,0,.37-2.38v-13A20.45,20.45,0,0,1,7,6.37,8.1,8.1,0,0,1,8.7,2.88,7.74,7.74,0,0,1,12.1.74,16.82,16.82,0,0,1,17.48,0H18V3.35a12.92,12.92,0,0,0-4.23.54,3.91,3.91,0,0,0-2.19,1.85,8.33,8.33,0,0,0-.84,3.42c-.09,1.41-.13,3.16-.13,5.26V21.6a26.59,26.59,0,0,1-.3,4.29A11.78,11.78,0,0,1,9.41,29a7.1,7.1,0,0,1-1.48,2.11A9.19,9.19,0,0,1,6,32.53Zm57.51,0a9.5,9.5,0,0,0-2,1.45,7.1,7.1,0,0,0-1.48,2.11,12.22,12.22,0,0,0-.91,3,26.11,26.11,0,0,0-.3,4.26v7.18c0,2.1,0,3.86-.13,5.26a8.33,8.33,0,0,1-.84,3.42,3.87,3.87,0,0,1-2.19,1.85,12.88,12.88,0,0,1-4.23.54V65H52a16.76,16.76,0,0,0,5.37-.74,7.74,7.74,0,0,0,3.4-2.14,8.1,8.1,0,0,0,1.75-3.53A21,21,0,0,0,63,53.8v-13a7.83,7.83,0,0,1,.37-2.38,5.88,5.88,0,0,1,1.18-2.11,6.31,6.31,0,0,1,2-1.54,6.45,6.45,0,0,1,2.89-.61V30.86a6.21,6.21,0,0,1-4.9-2.15,5.88,5.88,0,0,1-1.18-2.11A7.73,7.73,0,0,1,63,24.22v-13a21,21,0,0,0-.5-4.83,8.11,8.11,0,0,0-1.75-3.49A7.74,7.74,0,0,0,57.37.74,16.76,16.76,0,0,0,52,0h-.54V3.35a12.84,12.84,0,0,1,4.23.54,3.87,3.87,0,0,1,2.19,1.85,8.33,8.33,0,0,1,.84,3.42c.09,1.41.13,3.16.13,5.26V21.6a26.59,26.59,0,0,0,.3,4.29A12.18,12.18,0,0,0,60.06,29a7.29,7.29,0,0,0,1.48,2.11,9.45,9.45,0,0,0,2,1.44Z" transform="translate(0)" style="fill: #212932" />
		</g>
		<g>
			<ellipse cx="39.8" cy="46.55" rx="16.97" ry="16.94" style="fill: #d03f40" />
			<path d="M36.92,35.55h6.55V40.6L42.2,50.76H38.15L36.92,40.6V35.55Zm.23,16.76h6.11v5.43H37.15Z" transform="translate(0)" style="fill: #fff" />
		</g>
</g>
</svg>
