<svg fill-rule="evenodd" height="64" width="64" xmlns="http://www.w3.org/2000/svg"><path d="m51.328 48.537-13.528-7.302v-10.523l13.53 6.443z"/><path d="m50.9 46.82-12.026-6.442v-8.378l12.026 5.8z" fill="#952781"/><path d="m51.972 37.584-14.172-6.872 12.885-5.584 13.1 6.228z"/><path d="m51.543 36.725-11.597-5.798 10.524-4.51 11.167 5.155z" fill="#952781"/><path d="m63.785 31.356-12.67 6.014.214 11.168 12.671-6.228z"/><path d="m62.71 32.43-10.31 5.37v9.02l10.31-5.154z" fill="#952781"/><path d="m32 37.584-13.53-7.302v-10.522l13.53 6.442z"/><path d="m31.57 36.08-12.026-6.658v-8.376l12.026 5.8z" fill="#6483c0"/><path d="m32.644 26.63-14.174-6.87 12.884-5.37 13.1 6.014z"/><path d="m32.215 25.772-11.598-5.8 10.524-4.5 11.168 5.154z" fill="#6483c0"/><path d="m44.456 20.404-12.67 6.013.214 11.167 12.672-6.228z"/><path d="m43.382 21.692-10.31 5.155v9.02l10.31-5.154z" fill="#6483c0"/><path d="m13.53 47.894-13.53-7.304v-10.522l13.315 6.432z"/><path d="m13.1 46.176-12.026-6.444v-8.376l12.027 5.8z" fill="#d87b30"/><path d="m13.96 36.94-13.96-6.872 12.885-5.584 13.1 6.228z"/><path d="m13.744 36.08-11.812-5.8 10.738-4.51 11.168 5.154z" fill="#d87b30"/><path d="m25.986 30.712-12.67 6.013.215 11.17 12.672-6.23z"/><path d="m24.698 31.785-10.31 5.37.215 9.02 10.31-5.155z" fill="#d87b30"/><path d="m33.074 49.6-13.53-7.516v-10.514l13.314 6.443z"/><path d="m32.644 47.894-12.027-6.444v-8.59l12.028 5.8z" fill="#e0d400"/><path d="m33.503 38.443-13.96-6.872 12.885-5.37 13.1 6.013z"/><path d="m33.074 37.584-11.598-5.584 10.738-4.5 11.168 5.154z" fill="#e0d400"/><path d="m45.53 32.215-12.67 6.013.215 11.382 12.456-6.442z"/><path d="m44.24 33.504-10.31 5.155.214 9.02 10.31-4.94z" fill="#e0d400"/></svg>