<svg xmlns="http://www.w3.org/2000/svg" width="256" height="256"><g fill="none"><path fill="#BF3078" d="M202.553 91c-1.372 0-3.018 0-4.39.274l-7.956 13.948c3.567-2.188 7.956-3.282 12.346-3.282 14.266 0 26.062 11.76 26.062 25.983 0 14.222-11.796 25.983-26.062 25.983-14.266 0-25.788-11.487-26.063-25.71l-8.23 13.95c5.487 13.401 18.93 22.7 34.018 22.7 20.302 0 37.037-16.684 37.037-36.923.274-20.24-16.46-36.923-36.762-36.923z"/><path fill="#802050" d="M90.621 129.564l6.31-10.94 14.266 24.342 16.46-28.171 16.46 28.17 28.258-47.862C173.747 92.64 176.49 91 179.508 91h7.956l-43.346 73.846-16.46-28.17-16.461 28.17-20.576-35.282z"/><path fill="#26134D" d="M102.418 91l-43.346 73.846L16 91h7.956c3.018 0 5.761 1.641 7.133 4.103l27.983 48.136 28.257-48.136C88.701 92.64 91.444 91 94.462 91h7.956z"/></g></svg>