<svg xmlns="http://www.w3.org/2000/svg" width="415.311" height="83.645"><path d="M401.303 74.92c0-3.502 2.55-6.143 5.805-6.143 3.227 0 5.77 2.64 5.77 6.143 0 3.56-2.543 6.182-5.77 6.182-3.256 0-5.805-2.623-5.805-6.182zm5.805 7.412c3.883 0 7.203-3.13 7.203-7.412 0-4.244-3.32-7.375-7.203-7.375-3.92 0-7.236 3.13-7.236 7.375 0 4.283 3.316 7.412 7.236 7.412zm-1.506-6.824h1.432l2.168 3.695h1.395l-2.336-3.754c1.205-.156 2.13-.823 2.13-2.35 0-1.682-.963-2.424-2.902-2.424h-3.13v8.527h1.244v-3.694zm0-1.098v-2.64h1.695c.867 0 1.8.194 1.8 1.25 0 1.313-.945 1.4-2 1.4H405.6zM287.737 13.828C278.3.518 264.67 0 246.33 0c-2.416 0-25.043.518-27.35.518v81.918h20.104l-.002-71.32 9.77-.13c8.898 0 24.387 0 24.387 28.94 0 29.35-12.676 31.152-26.678 31.262V82.42c9.666-.098 18.078-.768 24.48-3.473 13.842-5.814 23.727-19.768 23.727-39.924-.001-5.943-1-16.798-7.03-25.195zM130.98 6.767h-7.802v75.565h17.084V16.068c-.108-5.086-4.2-9.183-9.282-9.3zm64.947 0l.653 46.366L170.768 16.3c-4.55-6.238-7.893-9.5-13.7-9.5v-.022h-6.715l-.465 75.565H162.2l-1.027-48.87 35.48 50.182 10.925-2.266.652-74.612h-12.323zm-93.64-6.25L85.48 55.303 70.324.518H58.022L41.33 55.303 28.1 8.833C26.68 3.85 25.08.52 17.48.52V.518H0S4.845 2.88 8.798 14.58c2.262 6.7 21.107 67.855 21.107 67.855h14.168L60.1 34.63l13.84 47.807h14.058L118.2.518h-15.924zM393.44 63.87L415.3 6.766h-13.818l-12.895 39.848zm-9.002-4.396l-.03.094-14.752-52.8h-19.42l23.808 75.565h12.325l2.588-6.753zm-65.26 10.758V17.785h29.225V6.408h-46.3v75.918h47.524V70.232zm7.472-33.29h18.58V48.08h-18.58z"/></svg>