<svg xmlns="http://www.w3.org/2000/svg" width="72" height="29" xmlns:v="https://vecta.io/nano"><path fill-rule="evenodd" d="M41.172.88c-1.426.747-1.957 2.01-1.957 5.494 0 0 .722-.698 1.793-1.087.78-.282 1.448-.713 1.833-.995 1.205-.883 1.392-2.02 1.392-3.933 0 0-1.965-.053-3.06.52m-8.457.816c-1.163 1.025-1.503 2.66-1.503 2.66l-3.85 14.917-3.202-12.21c-.312-1.298-.874-2.902-1.764-3.987-1.133-1.382-3.436-1.47-3.68-1.47s-2.55.087-3.683 1.47c-.89 1.085-1.45 2.69-1.763 3.987l-3.202 12.21-3.85-14.917s-.34-1.634-1.502-2.66C2.828.033 0 .388 0 .388l7.373 27.877s2.432.176 3.65-.445c1.598-.814 2.36-1.443 3.327-5.236l3.498-14.022c.112-.35.253-1.184.867-1.184.626 0 .756.834.865 1.184.22.708 2.636 10.64 3.5 14.022.968 3.793 1.728 4.422 3.327 5.236 1.217.62 3.65.445 3.65.445L37.428.388S34.6.033 32.715 1.695M44.23 4.94s-.46.714-1.514 1.302c-.675.378-1.324.634-2.02.968-1.166.56-1.482 1.182-1.482 2.132v18.924s1.86.236 3.078-.385c1.566-.798 1.926-1.568 1.94-5.035L44.23 4.94zm18.378 9.455L71.963.48s-3.948-.672-5.903 1.107c-1.25 1.14-2.65 3.187-2.65 3.187l-3.442 4.962c-.167.258-.386.54-.735.54s-.567-.28-.734-.54l-3.442-4.962s-1.4-2.048-2.65-3.187C50.452-.192 46.504.48 46.504.48l9.354 13.914-9.33 13.87s4.112.52 6.067-1.26c1.25-1.138 2.462-3 2.462-3l3.442-4.96c.167-.26.385-.54.734-.54s.568.28.735.54l3.442 4.96s1.28 1.852 2.532 3c1.956 1.78 5.996 1.26 5.996 1.26l-9.33-13.87z"/></svg>