<svg xmlns="http://www.w3.org/2000/svg" xmlns:v="https://vecta.io/nano"><path fill-rule="evenodd" fill="#3d3d3b" d="M19.8 50.5c16.8-3.5 40.1 9.8 50.1 28.6 1.5-22.2 19.9-51.4 35-60.4-16.6 3.1-32.5 13-40.4 35.3-13.1-12.2-30.6-12-44.7-3.5z"/><path d="M46.8 61.5c-3.7-.9-7.4-2.3-11.1-3.9V70c3.7 1.6 7.4 3 11.1 3.8s7.4 1.2 11.1 1.4v-9.5c-1.1-1.1-2.2-2.1-3.4-3.1-2.6-.2-5.2-.5-7.7-1.1zm-11.2 9.9v12.4c3.7 1.5 7.4 2.9 11.1 3.8s7.4 1.2 11.1 1.5V76.7c-3.7-.2-7.5-.5-11.1-1.4-3.7-1-7.3-2.4-11.1-3.9zm0 13.7v12.4c3.7 1.5 7.4 2.9 11.1 3.7 3.7.9 7.4 1.3 11.1 1.5V90.3c-3.7-.3-7.5-.6-11.1-1.5-3.7-.8-7.3-2.2-11.1-3.7zm23.7-18v8.1l6.2-.4a77.31 77.31 0 0 0-6.2-7.7zm11.2 22.5c-3.7.5-7.4.7-11.1.7v12.4c3.7 0 7.4-.1 11.1-.5s7.3-1.2 11-2.1V87.2c-3.7 1-7.4 1.9-11 2.4zM94 52.5c-3.6 2.2-7.4 3.9-11.1 5.5v12.9c3.7-1.5 7.4-3 11.1-5.1 3.8-2.1 7.4-4.8 11.1-7.6V44.3c-3.7 3-7.3 5.9-11.1 8.2zm0 28.2c3.8-2 7.4-4.4 11.1-7v-14c-3.7 2.8-7.4 5.4-11.1 7.5-3.6 2-7.4 3.6-11.1 5.1v12.9c3.7-1.2 7.5-2.6 11.1-4.5zM75.8 60.3c-1.7 4.5-3 9-4 13.6 3.2-.6 6.4-1.5 9.6-2.5V58.6c-1.8.6-3.7 1.2-5.6 1.7z" fill="#15a43a"/><path fill="#3d3d3b" d="M71.6 75.4l-1 7.2c-1.2-2.2-2.6-4.4-4-6.5l-7.2.4v12.4c3.7-.1 7.4-.2 11.1-.7s7.3-1.4 11-2.4V72.9c-3.3 1-6.6 1.9-9.9 2.5z"/><path fill="#15a43a" d="M94 95.6c3.8-1.8 7.4-4 11.1-6.4V75.3c-3.7 2.6-7.4 5-11.1 6.9-3.6 1.9-7.4 3.3-11.1 4.6v12.9c3.7-1.2 7.5-2.4 11.1-4.1z"/></svg>