<svg xmlns="http://www.w3.org/2000/svg" viewBox="-3277 648.6 176.5 134" xmlns:v="https://vecta.io/nano"><linearGradient id="A" gradientUnits="userSpaceOnUse" x1="-3168.136" y1="774.428" x2="-3168.136" y2="648.578"><stop offset=".011" stop-color="#1b3967"/><stop offset=".467" stop-color="#13b5ea"/><stop offset=".995" stop-color="#002b5c"/></linearGradient><path fill="url(#A)" d="M-3140.7 662.7c.1 1.3-1.8 1-1.8 2.3 0 38.6-44.7 96.8-89.8 108.2v1.2c60-5.5 126.7-66.8 128.2-125.9l-36.6 14.2z"/><path fill="#e96d1f" d="M-3156.8 666.5c.1 1.3.1 2.6.1 4 0 38.6-30.7 90.5-75.8 101.9v1.6c59.1-3.8 105.8-63 105.8-109.2 0-2.4-.1-4.7-.4-7.1l-29.7 8.8z"/><path fill="#d9541e" d="M-3126.7 657.3l-7.8 2.6c0 1 .2 2.2.2 3.2 0 41.2-37.3 98.2-87.3 107.1-3.2 1.1-7.5 2.1-10.9 2.9v1.6c68.3-8.5 111.2-71.6 105.8-117.4h0z"/><linearGradient id="B" gradientUnits="userSpaceOnUse" x1="-3212.141" y1="775.425" x2="-3212.141" y2="648.575"><stop offset=".011" stop-color="#1b3967"/><stop offset=".467" stop-color="#13b5ea"/><stop offset=".995" stop-color="#002b5c"/></linearGradient><path fill="url(#B)" d="M-3240.4 662.7c-.1 1.3 1.8 1 1.8 2.3 0 38.6 46.6 97.4 91.7 108.7v1.6c-60-5.5-128.6-67.8-130.1-126.9l36.6 14.3z"/><path fill="#a0ce67" d="M-3222.3 667.5c-.1 1.3-.1 2.6-.1 4 0 38.6 30.7 90.5 75.8 101.9v1.6c-59-2.8-105.8-63-105.8-109.2 0-2.4.1-4.7.4-7.1l29.7 8.8z"/><path fill="#439639" d="M-3252.3 658.1l7.6 2.7-.1 3.2c0 41.2 37.3 98.2 87.3 107.1 3.2 1.1 7.5 2.1 10.9 2.9v1.6c-65.2-5.4-111-71.7-105.7-117.5h0z"/></svg>