<svg xmlns="http://www.w3.org/2000/svg" width="871.429" height="474.286" xmlns:v="https://vecta.io/nano"><defs><filter id="A" color-interpolation-filters="sRGB"><feGaussianBlur stdDeviation="5.468"/></filter><mask maskUnits="userSpaceOnUse" id="B"><path d="M272.793 420.69l-56.85.064 84.842 127.376-84.842 127.536h55.114l170.07-254.912h-54.18l-56.272 84.65z" fill="#96abc9" fill-opacity="1" stroke="none"/></mask></defs><path d="M212.534 59.768l84.823 127.4L212.4 314.57l55.142.048 84.97-127.44-85.035-127.472zm273.844 86.712l-28.248 42.437h112.03l28.248-42.437zm-41.89 62.834l-28.216 42.373h194.935l28.216-42.373zm236.627 62.932h-278.55l-28.28 42.437H652.8z" fill="#29374e"/><path d="M350.186 59.675l-56.85.064 84.842 127.376-84.842 127.536h55.114L518.52 59.74h-54.18l-56.272 84.65z" fill="#96abc9"/><path d="M189.146 398.495v295.5h273.906v-295.5zm82.625 22.375l57.906 84.72 56.25-84.656h54.188L270.052 675.84h-55.125l84.844-127.53-84.844-127.375z" mask="url(#B)" fill-opacity=".348" filter="url(#A)" transform="translate(77.393 -361.016)"/></svg>