<svg xmlns="http://www.w3.org/2000/svg" viewBox="0 0 200 200" xmlns:v="https://vecta.io/nano"><circle fill="#303846" cx="100" cy="100" r="74"/><g fill="none" stroke="#97dccf" stroke-width="5" stroke-miterlimit="10"><path d="M100.6 130.6c5.9-10.3 6.3-23.3 0-34.3S82.7 79.2 70.9 79.2c-5.9 10.3-6.3 23.3 0 34.3 6.3 10.9 17.8 17.1 29.7 17.1z"/><path d="M99.4 130.6c11.8 0 23.3-6.1 29.7-17.1 6.3-11 5.9-24 0-34.3-11.8 0-23.3 6.1-29.7 17.1-6.3 11-5.9 24 0 34.3z"/><path d="M100 129.4c10.2-5.9 17.1-17 17.1-29.7S110.2 75.9 100 70c-10.2 5.9-17.1 17-17.1 29.7s6.9 23.8 17.1 29.7z"/></g></svg>