<svg xmlns="http://www.w3.org/2000/svg" xmlns:v="https://vecta.io/nano"><defs><clipPath id="A"><path d="M210.1,89.5A89.82,89.82,0,1,1,119.6.37,89.82,89.82,0,0,1,210.1,89.5" fill="none"/></clipPath></defs><path d="M210.1,89.5A89.82,89.82,0,1,1,119.6.37,89.82,89.82,0,0,1,210.1,89.5" fill="#312965"/><g clip-path="url(#A)"><path d="M131.73 0l.28.05h-.28M130.2-.2h0m-.43-.06l.4.06h-.38m-.23 0h0l-.5-.07.5.07m53.36 25.4l-.3-.3-4-3.58-.57-.47a61 61 0 0 1 4.6 4l.47.44a1.41 1.41 0 0 0-.18-.14m22.7 34.36v.04m-.76-1.92l.7 1.74c0-.1-.1-.27-.13-.38v-.1l-.05-.13-.45-1.08M200 47.23h0a56.88 56.88 0 0 0-3-5.07q1.38 2.16 2.6 4.37l.4.7m-7.7-11.77h0l-.08-.12.08.1m-9.38-10.33l.56.54-.4-.42a1.41 1.41 0 0 0-.18-.14h0m10.9 116.4l-.34.47a57.79 57.79 0 0 0 3.46-5l-3.12 4.54m6.9-11h0a53.69 53.69 0 0 0 2.94-6.07c0 .07-.07.14-.1.2l-2.84 5.87m5.93-13.94a.25.25 0 0 0 0 .07 54.69 54.69 0 0 0 1.67-5.78l-1.66 5.77v-.07m4.3-27.18h0m0-.4h0m0-.07h0m-1-12.8a42.15 42.15 0 0 1 .54 4.27l-.54-4.27M109.6 26.5v-1.15l-.8-.1-.85.4.18 1h1l.43-.2m-2.88-1.4l.05-.06v-.4c-.15.08-.24.2-.4.27s-.08.05-.32.1a2.36 2.36 0 0 0-.77.35l-.37.2c.12.1.2.25.37.3a.92.92 0 0 0 .44 0 2.66 2.66 0 0 0 .7-.36c.08-.05.08-.05.32-.36m6.13-15.1l.78-.2-.67-.56-1.16-.06H111v.62l.07.5 1.28.07.5-.36m15.6-10.43h.15l-1.13-.13h-.07l1.37.16 1 .13.5.07.55.08.48.08.3.05h.18L130-.24h.14l-.6-.08-.54-.05h.1l-.58-.07m2.47.34l-.6-.08-.88-.12h-.12c.36 0 .74.08 1.1.15h.15l.85.13-.5.02 1.07.15c-.26 0-.52-.07-.8-.13h0c.27 0 .54.06.8.12l.6.1.53.1.35.06-1.47-.25h-.42l-.82-.13m3.65.87a6.49 6.49 0 0 0-.78-.12h.23L132.7.5l1.15.23h-.23l-.7-.13h-.16l-.32-.05.4.07h-.16l1.7.32c-.43 0-.84-.15-1.26-.2-.27-.05-.28-.05-.36 0a20.49 20.49 0 0 0 1.45.28h.25l-.2-.06c.18 0 .34.05.7.12h-.05l.7.14c.2 0 .38.07.57.1h0-.08c.23 0 .42.18.65.1-.23-.1-.5-.08-.75-.2a1.76 1.76 0 0 0 .31 0c-.13 0-.13 0-1.78-.4m1.63.55h-.16.16m5.95 1.25l-.3-.08a5 5 0 0 0-.61-.14h.06l-1.07-.26-2-.47-1.15-.2.27.08c-.14 0-.26 0-.34-.05l-.8-.18c-.7.12-1.3-.27-1.94-.33h0l.9.2.3.06 1.5.35a4.62 4.62 0 0 1-.87-.18l-.3-.07-.3-.06-.3-.07-.63-.12 1 .24-.57-.06-.8-.2.6.15c1.32.47 2.7.6 4.06 1l-1.44-.32c.23.07 1.88.48 2.1.5a5 5 0 0 0-.94-.27 5.2 5.2 0 0 1 1.12.25h.06c-.1-.05-.94-.3-1.24-.37l-.5-.12 1.15.28h.05l-.52-.18h.23l.77.2.26.07h-.2a.77.77 0 0 0 .25.09c0 .1 0 .1.53.22l.65.18h-.1.18c-.07 0-.07 0-.6-.22h0c.13 0 1.2.36 1.22.37h0a.29.29 0 0 0-.17 0 22.66 22.66 0 0 0 3.25.9h-.06l-2.7-.9-1.5-.44a8.52 8.52 0 0 0-1.9-.52h.07l3.82 1c-.25-.1-.5-.17-.77-.25a7.75 7.75 0 0 1 1.12.3h0l-.7-.22-.14-.06M183.1 26l.08-.1h-.07l-.2-.15-.2-.2s0 .1.42.43M161.68 10.2l-1.22-.63h.06l.14.07 1 .55m7.5 4.08l-5.15-3.1-.5-.28h.05l.64.36h.07l-.8-.44-.2-.1-.83-.44.36.2a3 3 0 0 0-.49-.21l-.33-.18-.6-.33-1.1-.5.8.42c-.1 0-.3-.13-.48-.22l-.45-.24-.32-.16v.08l1.13.57.27.13.23.12-1.2-.6-.7-.34h-.01l1.37.8a4 4 0 0 1-.72-.35h-.1a4.43 4.43 0 0 0 1.42.76l.65.34a2 2 0 0 0-.38-.1h-.06l1.33.74-1.82-.85a3.74 3.74 0 0 0 .49.32 15.27 15.27 0 0 1 1.74 1c-.16 0-.16 0-.88-.43l.88.6c.23.13.5.22.7.35l.27.15.2.15a14.49 14.49 0 0 1-1.57-.78l.83.53.1.08h-.13c.2.28.54.37.8.55l-.08.08a3.15 3.15 0 0 0 .41.31v.05a4 4 0 0 0 .47.33h0l.24.18h.1l-.4-.48-.22-.16v-.07l-.1-.1v-.1a1.48 1.48 0 0 1 .55.29c.14.36 4.8 3.9 4.85 3.94l-.2-.15a7.77 7.77 0 0 0 1 1.13l.18-.06c.14.12.14.12 1.78 1.92a.82.82 0 0 1-.28-.06.5.5 0 0 0-.18 0l.4.34.5.37v.12l-.05.07a15.62 15.62 0 0 0 1 1.39l-.1.06c.36.9 1.3 1.3 1.93 2v.05l.17.2.43.4h.2c1.13-.12.7 1.57 1.83 1.52.45.46.45.46.5.6a5.26 5.26 0 0 0 1.17-.2l-.45-.6.1-.05v-.1l-.43-.43c.1 0 .33.06 1.3 1a8 8 0 0 0 1.31-.49 7.66 7.66 0 0 0-1.2-1.43l-.23-.22c-.55-.5-1.26-.77-1.8-1.28l-1.85-1.6a49.58 49.58 0 0 0-6.58-5.56h.07l.76.5a4.15 4.15 0 0 0-.32-.27 5.7 5.7 0 0 1 .83.51l.82.6a15.23 15.23 0 0 1 1.76 1.36h-.12l4.23 3.66.24.2c.43.36 1.07.83 2.14 1.6h0l-.42-.46h.12a1.46 1.46 0 0 0-.35-.4l-.1-.1v-.14l-.2-.2v-.06l.47.4.22.2 1.52 1.5a1.72 1.72 0 0 1-.42-.31 2.91 2.91 0 0 0 .25.42h-.1a6.31 6.31 0 0 0 .78.81c.2-.15.17-.37 0-.58l-.47-.44c-7-6.12-7.15-6.24-11.2-9l-1.43-1c-.54-.36-.54-.36-1.7-1.08.26.15.87.55.88.55h0M180.78 27h0c-.34.1-.7.18-1.13.27h0l.15.2c.07.08.16.13.24.2l.15.16h.2l.14.1a3 3 0 0 0 .4.31v-.15h.14c.06 0 .1.1.18.08s0-.22 0-.22l-.07-.1c-.06-.08-.08-.1-.06-.12s.1 0 .05-.1a4.54 4.54 0 0 0-.44-.63m1.8-.63a9.88 9.88 0 0 1-1.32.48c.27.26.6.45.85.7l.1.1c.6.67.6.67.8.8a6 6 0 0 1 .63.48l.2.22.2.2a8.05 8.05 0 0 0 1 .87 5.24 5.24 0 0 1 .72.84l.1.1.42.44.34-.12c-.73-.87-.73-.87-.8-1h.06c.1 0 .14.1.23.13-.06-.15-.28-.22-.23-.43h0q-.28-.35-.6-.66l.15-.07-.5-.54h-.07V29c-.15 0-.2-.2-.33-.24a12.53 12.53 0 0 0-1.3-1.48 4.2 4.2 0 0 1-.73-.89m9.65 9a207.59 207.59 0 0 0-9.14-10.1.45.45 0 0 1 .1.64l-.08.1h.08c.4.3.56.82 1 1.06-.1-.2-.1-.2-.45-.6.3.14.3.14 2.18 2.12v.1a4.47 4.47 0 0 1-.65-.59c-.12-.1-.13-.1-.13-.08l-.3-.32c-.12-.1-.13-.1-.14-.08 1.15 1.3 2.2 2.7 3.45 3.9l.18.24a.71.71 0 0 0-.38-.09 14.28 14.28 0 0 0 1 1.18v.08c-.35-.3-.68-.6-1-.9a10.58 10.58 0 0 0 .64 1.31l-.13.16.1.17-.2.07a4.74 4.74 0 0 1-.7-.76c-.12-.1-.16-.1-.2-.08l.1.2a.53.53 0 0 1-.2.13c.06.24.06.24.5.78h-.12c-.26-.1-.26-.1-.72-.62v.07h-.12l-.33-.4a2.69 2.69 0 0 1-.27-.32c0-.16.06-.2.14-.2s.06 0 .56.3c0-.4-1.1-1.62-1.58-2.12-.14-.1-.17-.1-.2-.1-.06.22-.06.22.27.7v.07c-.22-.18-.22-.18-.7-.83l-.4-.46h-.2a11.55 11.55 0 0 0-1.58-1.71c0 .5.7.7.57 1.27a2.91 2.91 0 0 0 .3.31l.23.24c.7.83 1.3 1.72 2.08 2.5l.22.26c.13.18.26.35.38.53s.55.54.82.83.28.37.4.52h-.1l-.12.17h-.13a1.08 1.08 0 0 0-.4 0 1.17 1.17 0 0 0 .08.38l-.1.2a5.44 5.44 0 0 1 .43.82h-.24a.62.62 0 0 0 .17.51l.34.2.56.78c-.2.23-.2.23 0 1.14 0 .16 0 .16-.07.17h-.2a9.69 9.69 0 0 0 .85 1.48 1.13 1.13 0 0 0-.38.19 2.56 2.56 0 0 0 .39.85l-.4.06-.16-.1a.94.94 0 0 1-.41 0l-.16-.24a.65.65 0 0 0-.37-.18 4.16 4.16 0 0 0 .42.78 1.58 1.58 0 0 1 .56.93l.2.24c.06.1.13.2.18.32a1.4 1.4 0 0 1-1.26-.28 1.41 1.41 0 0 1-.35.21c-.13.3-.2.46.22.9h.13c.46.5.72.44.85.4h.15c.46.36.9.75 1.35 1.12a57.22 57.22 0 0 1 .73 1.34c1.8 2.1 1.8 2.1 2.4 4.45 0 .12-.08.3-.1.42-.2.13-.24.14-.27.14-.48-.25-1.05-.28-1.46-.66-.53 0-.92.08-1.33.13-.64-.05-.64-.05-.84-.22h-.1l-.08.18a1.44 1.44 0 0 1 .15.41 1.74 1.74 0 0 1-.7.19v.28c.73.85.77 2.05 1.57 2.87l.68 1.7a8.52 8.52 0 0 0 .62 2.48 4.15 4.15 0 0 1 .24.34c0 .1.06.18.1.28l.1.28c0 .38 0 .53.3 1.33a.94.94 0 0 0 .49 0 .92.92 0 0 1 .39-.14 2.07 2.07 0 0 0 .45.39.86.86 0 0 0 .34-.25c.28.15.53.32.8.47a6 6 0 0 0 .69 1V63h-.15l.1-.17c.9-.1.23-1.38 1.1-1.5.48-.6.4-1.52 1.18-2l-.36-.93a4.83 4.83 0 0 1-.92-2.4c0-.13-.06-.3-.1-.43a1 1 0 0 1 .29-.28c-.1-.54-.1-.54.28-1.15a1.2 1.2 0 0 0 .39-.13 6.45 6.45 0 0 0-.34-.82l-.12-.27c-.75-1.44-1.13-2.16-.2-1.87h.07a6.45 6.45 0 0 0 .54.37h.3l.1-.18a3.79 3.79 0 0 1-.34-1c.1-.1.12-.12.15-.13l.16-.14a3.56 3.56 0 0 0-.14-.8c1.32.3 1.28 1.7 2.1 2.4a1.64 1.64 0 0 1 .48.62 15.48 15.48 0 0 1 3.76 5.2c-.06.1-.06.1-.07.85a1.38 1.38 0 0 0-.65.16c.05.1.1.23.15.33.37.33.43.88.9 1.15a.78.78 0 0 0 .45 0l-.4-1.06a10.35 10.35 0 0 0-.7-3c0-.1-.08-.2-.13-.3l-.12.1a.81.81 0 0 1-.2-.32l-.17-.4.18-.1a1.55 1.55 0 0 1 .4.51c-.25-1.17-1.26-1.9-1.82-2.9-.48-.14-1.9-2.2-2-2.33h-.1a7.69 7.69 0 0 1-.46-.85h-.2a2 2 0 0 1-.46-.63l-.08-.28-.05-.2-.07-.13a5.78 5.78 0 0 1-.52-.86l.18-.08a32.12 32.12 0 0 1 3.05 3.52 26.81 26.81 0 0 1 1.73 2.61c1.26 2.58 1.26 2.58 1.47 2.72.22.42.37.8.52 1.15l-.07.06-.08-.2c0 .17 0 .4.6 1.34 0-.12-.06-.27-.1-.38v-.2c.3.62.54 1.25.82 1.87.08.1.1.08.12.06a2.16 2.16 0 0 0-.21-.81l-.16-.4a5.22 5.22 0 0 1-.22-.61l.12.15a8.24 8.24 0 0 0-.42-1.14 2.39 2.39 0 0 0-.32-.78 6.24 6.24 0 0 0 .24.66c-.3-.4-1.2-2.25-1.2-2.27s-.08-.17-.12-.26l-.08-.2h.06a4 4 0 0 0 .2.35l.05-.05a4.35 4.35 0 0 1-.45-1.18c.24.3.34.68.56 1 .07.13.15.32.22.46.26.74.64 1.43.93 2.16l.16.38a3.71 3.71 0 0 0 .17.4c.1.24.2.47.28.7l.05.13v.2l.06.13v.1a10.61 10.61 0 0 1 .22.6l.06.14.06.18c.1.27.2.53.3.8v.22l-.17-.48c0-.1-.1-.25-.13-.36a14.94 14.94 0 0 0-.22-.56c-.08-.2-.1-.3-.15-.4h0c-1.46-3.46-3.54-8-5.25-11.4-4.54-7.52-5.24-8.67-7.83-11.88M175 28.54v-.05l-.08.16c0 .1.08.2.06.32l-.06.07c0 .08.1.13.13.2s.06.27.12.4a3.25 3.25 0 0 0 .23.29l.2.1v-.13l-.06-.12c-.16-.3-.15-.32-.14-.34h.1c.08-.05.07-.06.07-.1s-.13-.13-.2-.2v-.12a3 3 0 0 0-.34-.5m11.5 9c-.1-.15-.23-.3-.4-.5-.4-.26-.65-.65-1-.9l-.05.07c.1.12.35.46.26.67-.08 0-.08 0-1.12-1.3l-.3.06c-.44-.66-.9-1.34-1.2-1.24a2.5 2.5 0 0 1-.23-.23 6 6 0 0 1-.8-.61c-.34-.23-.54-.6-.88-.84s-.75-.17-1.05-.42l-.27-.66.1-.07a3.11 3.11 0 0 0-.2-.25c-.2-.23-.2-.54-.4-.78s-.5-.6-.75-.9l-1 .15c-.8-1.38-.9-1.53-1.06-1.57h-.08l-.18.06c-.1.07-.18.07-.47.05.08.1.08.1.66.92.2.27.53.43.63.78-.3.16-.46-.2-.7-.15a1.35 1.35 0 0 0 1.1 1l.12.24.18.22a3.78 3.78 0 0 1 .51.68c-.23.2-.23.2.2.72a.85.85 0 0 0 .24-.08v-.08l.56.44h.23a2.11 2.11 0 0 1-.3-.46 4.84 4.84 0 0 1 1 1.14h-.06v.14a3.41 3.41 0 0 0 .43.46l.55-.1-.07-.2c.73.25.86 1.1 1.53 1.4.25.42.84.63.78 1.23-.25 0-.46-.2-.73-.14h-.17l.1.25c0 .08.1.18.12.26h-.22c.26.35.27.38.4.4.34-.34.48-.06.68.37h-.1a2.36 2.36 0 0 0 .11.44l-.13.06h-.07c.1.17.42.73.66.7 0-.1.06-.2.1-.28l1 .16s.62.58-.13.64c-.1.14 0 .28 0 .42h-.07l-.18.15c.5.76.5.76.33 1.2l.2.14a1 1 0 0 0 .27-.23l-.06-.4c.07 0 .07 0 .36.15h.34c-.33-.54-.33-.56-.36-.68a.37.37 0 0 0 .33-.05.66.66 0 0 0 .45 0 .66.66 0 0 0-.09-.39v-.07c.27.06.42.3.66.36h.08c.1-.07.25-.05.35-.1s-.15-.28-.1-.45h.14v-.14a7 7 0 0 0-.71-.82l-.08-.12c-.12-.18-.12-.18-.12-.28l.14-.06-.3-.5h.2M178.6 35h0m1.8 0l-1-1.1c-.22-.2-.3-.16-.33-.13a2.13 2.13 0 0 1-.25-.16h-.1c-.08 0-.07.14-.15.18s.08.26.07.4c-.22-.13-.43-.3-.64-.42l-.25.1c.28.38.53.8.82 1.16h-.07v.1l-.15.05-.1.2a2.5 2.5 0 0 1-.24-.16l-.1.07 1.12 1.66a.93.93 0 0 0 .43 0l.5.74-.3.1a3.08 3.08 0 0 0 .16.47 5.43 5.43 0 0 1 .32.51l-.05.1c.2.6.78.9.87.74s.17-.27.47-.06c.1 0 .1 0-.07-.88l1.07-.14a2.54 2.54 0 0 1-.23-.34 2 2 0 0 0-.21-.24c-.24-.23-.23-.28-.22-.3h0a8.34 8.34 0 0 0-1.09-1.69l-.34-.47h.1a.43.43 0 0 0-.06-.42m29.2 39.26l-1.5-6.86a17.39 17.39 0 0 0-1.08-2.03c-.2 1.43.66 2.67.75 4l-.24-.1a5.06 5.06 0 0 0-.52-1 4.92 4.92 0 0 1-.5.22l-4.67-8.74c-.3.66-1 1-1.42 1.58-.6-.82-.6-.82-1.17-.9a4.77 4.77 0 0 0-.47 1.36 3.25 3.25 0 0 0-1.12.36c.13 1.14.13 1.14 0 1.53h-.52l-.33.37h-.12l-.5-.08h-.12a1.12 1.12 0 0 1-1.35-.4l-.37-.15a11 11 0 0 0 .4 2.6 4 4 0 0 1-1 .14l.62 2.4a1.26 1.26 0 0 0-1.08.6c.2 1.28.32 2.57.53 3.85a30.63 30.63 0 0 1 .21 1l-1 .12a8.46 8.46 0 0 1-.55 2.61c-2.44 1.54-.28 4.55-2.16 6.27l-.17.1-.5.14c0 .24 0 .24-.84 4.58l.06 1.08c.54.07 1.1 0 1.65.1a10.87 10.87 0 0 0 .22.5c-.32 1.08-.32 1.08-.3 5v1c-.16.66-.16.66-.8 1.3 0 .7.22 1.38.3 2.08v.6c0 1.36.2 1.66 1.23 2.93h.5a9.24 9.24 0 0 1 .42 1.54l.53.06c-.3 2.52-.3 2.52 1.73 3.67 0 .5-.12 1-.17 1.54.75.64 1.1 1.68 2.18 2 .3-.44.5-.94.76-1.4.3 0 .7-.1 1-.16h.18a2.35 2.35 0 0 1 1 0l.2.5c1.4-.23 1.46-2.3 3.15-2.12 0 0 .08 0 .26-.23a2.75 2.75 0 0 1 .69-.79l.46.23c-.1 2.07-.1 2.07.18 2.46l1.5-.38c-.13.6-.26 1.2-.5 2.14-3.7 14.36-3.7 14.36-4.4 15.72l-.25.54c-1.46 3.25-2.42 5.4-9.88 16.68a86.56 86.56 0 0 1-1.87 2.33 63.8 63.8 0 0 1-6.79 7.59l-.4.35-1.18 1.07-1.17 1.05.2-.14c2.74-2.5 6.26-6 8.83-8.7 3.2-3.6 3.2-3.6 8.6-11.34 2.6-4 2.6-4 6.72-12.56 1.92-4.43 1.92-4.43 4.62-13.58A99.11 99.11 0 0 0 210.91 89c0-5 0-5-1.33-14.76m-43 55.4c.2-2.9-.2-3.1-.67-3.34a13.26 13.26 0 0 1-1.45 0c-1.4-.38-1.7-2.8-3.53-2.13l-1.8.07c-1.15-.6-2-1-2.2.1-.32.2-.65.42-1.5-.1.1-.3.1-.3.83-.8-2-1.27-2-1.27-3-1.4a1.25 1.25 0 0 1-.6-.14 1.79 1.79 0 0 0-1.59-.19l-.16 1.32h-1.2a3.93 3.93 0 0 1 .2-.88 5.3 5.3 0 0 0 .53-.53l.4-.28-.1-.37s-.65-.18-1.6-.5h-.64l-.33.22c-.08.74-.13 1.23-1.3 1.1a4.8 4.8 0 0 1 .16-.84c1.93-2.1 1.93-2.1 1.46-3h-.8c0-.52.1-1 .13-1.56a13.68 13.68 0 0 0-.7-1.77s-3.1-1.42-3.9-1.87-1.52.16-2.28.14h-.58c-2.84-.46-3-1.08-3.6-2.74-.22 0-.22 0-1.77-.82a.53.53 0 0 0 .03-.31c-1.1-.14-1-.78-1-1.4a2.7 2.7 0 0 0-.62.08c-1.27.37-1.27.37-1.6.34a6.06 6.06 0 0 1-.11-1.13 1.94 1.94 0 0 0 .7-.32c-.3-.4-.36-.5-1.4-.65l-.7.54a.92.92 0 0 1-.24 0 1.53 1.53 0 0 0-1.23-.18c-.64 1.35-.64 1.35-1.13 1.46-.66-.42-1.1-1.12-2-1.25a9.68 9.68 0 0 1-1.93-.13l-.8-.15a1.11 1.11 0 0 0-.31-.9c-.93 0-1.6-1.07-2.66-.66a1.12 1.12 0 0 1-.44 1.08 1.72 1.72 0 0 0-1.39.57c-.38.9.4 1.77 0 2.67-1.54-.82-.22-2.42-.93-3.48.13-.57 1.37-1.5 1.38-1.52l-.15-.3h-.7c-.94.2-1.1.27-1 1.3-.6 0-1.18 0-2 .1a4.31 4.31 0 0 1-3.07 1.07 9.19 9.19 0 0 1-.13 1.89 1.4 1.4 0 0 1-1.18.38 3.21 3.21 0 0 0-.55 1.42c-1.18.8-1.44 1.46-1.48 1.78a2.59 2.59 0 0 0 .71.29c0 1.2 1.4 2.7-.1 3.63-.22 1.8-.22 1.8-.6 2.2l-.85.06c.07.3.15.7.2 1-.27.14-.63.33-.88.5v.58c-.85.18-1.3.28-1.28 1.68a2.16 2.16 0 0 0-1.2.23 14.36 14.36 0 0 0 .12 2.36l.37.17a1.67 1.67 0 0 1 1.2-.1 2.4 2.4 0 0 1-.11.83 7.5 7.5 0 0 0-1.21.41c0 .62 0 .62-.85 1.18-.12.66-.12.66.48 1.4a2.45 2.45 0 0 1 0 .27c.15 2.66 3.86 2.78 4.14 5.35a3.59 3.59 0 0 0 .06.62c4.66 6.66 4.66 6.66 5.26 6.72 0 0 2.16.4 4.54 3.1h.8v2.42a2.77 2.77 0 0 0-.06.81l-.06.1a1.61 1.61 0 0 0 0 .37l.1.4a1.58 1.58 0 0 1-.14.43 1.69 1.69 0 0 0-.08.74l-.07.06a1.41 1.41 0 0 0 .1.44v.5c0 .08 0 .15-.2.5a1.72 1.72 0 0 0 .18.74v.22a.7.7 0 0 1-.09.34c-.15.76-.8 1.35-.8 2.15a23.19 23.19 0 0 1-1 3 1 1 0 0 0 0 .2c.54 2.86.65 3.46-.7 4.6a3 3 0 0 0 0 .46v.5c-.25.6-.82 1-1.1 1.54.67 1.1.5 1.46 0 2.52l.16.35a1.1 1.1 0 0 1 .14.59l-.4.1c-.26.76-.26.76-.18 1.05l.35.17h.54l.1-1.3h.67a1.34 1.34 0 0 1-.11.57l-.32.23a5.77 5.77 0 0 1 0 .8c-.06.07-.06.07-.25 1.42a2.37 2.37 0 0 1-.48-.4s0-.1-.06-.4c0 0 0 .05-.24.07 0 .14 0 .27.33.6a2 2 0 0 1 .26.7c-.28-.14-.53-.33-.8-.45 0 .13 0 .26-.3.5v.38a1.75 1.75 0 0 1 .74.24c0 .1-.05.26-.06.37l.37.06a2.53 2.53 0 0 1 .12.36c-.76.07-.76.07-1.1.3a1.3 1.3 0 0 0 .11.33l.27.28v.4a1.41 1.41 0 0 0 .41.61l-.24.1.2.1c.08 0 .16 0 .2.32l.4.1v.08l-.07.1c.26.45.76.65 1.1 1h.4s0 .05.22.22.54.08.77.13a1.31 1.31 0 0 1 .32.07h1a2.21 2.21 0 0 1 .45-.3 4.8 4.8 0 0 0-.76-.11c0-.06 0-.12-.32-.2 0-.22-.1-.52-.15-.74v-.1a6.33 6.33 0 0 0-.12-.74v-.2a3.77 3.77 0 0 1 .12-.58 3.91 3.91 0 0 0 .68-.06v-.37a16.14 16.14 0 0 1 1.86-1.33c0-.08 0-.16-.25-.26l-.4-.06c-.6-.57-.6-.57-.66-.86a.62.62 0 0 1 .1-.24 3.49 3.49 0 0 1 .74-.39h1a3 3 0 0 1 .35-.93 2.79 2.79 0 0 0 .61-1c.72 0 .72 0 1-.33 0 0 0-.1-.1-.28h-.16a1.38 1.38 0 0 1-.72.16v-.77l.1-.46a2.3 2.3 0 0 1 .67.1l.33.22a1.69 1.69 0 0 0 1.15-.32c0-.05 0-.1.1-.35l.3-.2a2.1 2.1 0 0 0 0-.75c0-.12.07-.24.1-.37a10.63 10.63 0 0 0 1.12-.06h.43a5.16 5.16 0 0 0 .78-.17 5.07 5.07 0 0 1 1.24.09s1.55-1.06 2.2-1.65l.32-.33.18-.53a1.25 1.25 0 0 1-.39 0c0-.1.07-.23.17-.58a2.8 2.8 0 0 0-.89-.73c0-.1 0-.26-.06-.37h.83c3.08.48 3.08.48 4.35-.64l3.53-3.13a4.66 4.66 0 0 0-.43.66c.3 0 4.47-3 4.38-4.46-.05-.8-.1-1.55 3.65-3.68l1.14-.05a8.87 8.87 0 0 0 1.34-.86 13.7 13.7 0 0 0 2.91-.34 1.73 1.73 0 0 1 .43-.64c.4-.12.4-.12 3.45-3.7.18 0 .18 0 1.35-2.2a2 2 0 0 1 .25-.45 5.41 5.41 0 0 0 1-1.69 4 4 0 0 0 .15-.6c0-.1 0-.26.05-.37a4.15 4.15 0 0 0 .18-.78 3.76 3.76 0 0 1 .82-1.6l3.3-2.8 2.3-2.7a3.59 3.59 0 0 0 .8-1.48M127.3 94.8h.08c-.18-.17-.5-.06-.64-.3s0-.6 0-.9a7.41 7.41 0 0 1-1.88.31h-.63c-.33-.06-.6-.28-1-.3H123c-.28.08-.37.4-.65.47h-1.1c-.43 0-.6-.46-1-.53s-.8-.58-1.34-.6l-2.24-.1a6.2 6.2 0 0 0-1.21.16v1.87a5.12 5.12 0 0 0 1.24 1.14h.67c.8 0 1.23-.8 2-.82.37 0 .7.17 1.06.17s.7-.17 1.06-.16a9.3 9.3 0 0 0 2.39-.27.69.69 0 0 1 .64 0 10.59 10.59 0 0 0 1.57.22h.64c.22 0 .36-.2.55-.3m-16.77.8l.08-.1c-.1-.2.06-.45-.16-.62s-.37-.06-.55-.12-.35-.24-.55-.32h-2c.12.2.2.4.33.57l.17.17c.13.1.16.1.5 0s.85.32.85.32a.79.79 0 0 0 .11.39.57.57 0 0 0 .06.25c.2 0 .4.1.62 0s.13-.06.54-.55m-1.9-3.66h4.78a5.33 5.33 0 0 0-2.5-1.94h-.68a5.6 5.6 0 0 1-2 0c-.45-.17-.63-.63-1-.9a18.46 18.46 0 0 0-1.83-.93c-.72-.37-.72-.37-.83-.62s-.15-.35-.56-.37h-1.48c-.08 0-.08 0-.62.28-.28.15-.5-.1-.76-.1h-1.4c-1.17-.06-1.17-.06-1.32.06-1.34 1 .77 2.83 2.37 2 .38-.2.63-.57 1.06-.7a4.93 4.93 0 0 1 1.13.06s1.3.4 1.45 1c.06.25.1.27.3.35a7.09 7.09 0 0 0 1.53.41c.4-.06.53 0 .73.36a2.26 2.26 0 0 0 1.65 1m53.7-72l-.8-.74a2.81 2.81 0 0 0-.5-.35c-.48-.2-.48-.2-.55-.15h-.08a6.49 6.49 0 0 1-.67-.72c-.18-.17-.4-.3-.58-.46l-.52.05c-.2.05-.13.2-.1.26s.13.32 0 .38l.07.16c-.3 0-.58-.14-.9-.1s-.43.23-.43.36 0 .16-.12.2h-.48l-.73-.73a5.74 5.74 0 0 0-.55-.34l-.15.1c.1.12.24.24.36.35-.5-.15-.5-.15-.55-.14s-.6.08-.62.27c0 .36.7 1 1 .87v-.18c.58-.13 1.15.42 1.62.86a2 2 0 0 0-1.31.1l.58.57.18-.12h.54l.15.1.7.76.48.37h.27a1.6 1.6 0 0 1 .7-.16h.28c.47-.13.67.3 1 .44a1.26 1.26 0 0 0 1 0l-.07-.43c-.22-.38-.22-.38-.25-.5s0-.14 0-.2h.2c.05-.23-.28-.45 0-.67.07-.07.07-.07.9-.15m-22 27.1l.07-.14c-.08-.15-.18-.36-.25-.5-.63 0-.63 0-.83-.1a5.17 5.17 0 0 1-1.11-.69.8.8 0 0 0-.39-.29c-.35-.1-.7 0-1.07-.1a4 4 0 0 1-.57-.23c.12-.85.12-.85.2-1s.25-.1.38-.17a.64.64 0 0 0 0-.86.8.8 0 0 1-.19-.24 1.82 1.82 0 0 1-.4 0 1.21 1.21 0 0 0-.58.29c-.1.18.06.3.1.45a4.28 4.28 0 0 1 0 .62.4.4 0 0 1 0 .22 12.72 12.72 0 0 1-1.51 2.14 2.7 2.7 0 0 0-.55.79 1.37 1.37 0 0 0-.09.75c0 .22.18.4.22.6l3.87-.1c.32 0 .48.05.95.5a4.39 4.39 0 0 0 1.52 1c.07-.1.08-.1.28-.2s.38-.17 0-1.33a1.26 1.26 0 0 1 .06-1.37m-10.94-1.38h0c-.17-.06-.32-.18-.5-.23a1 1 0 0 0-.28 0 .82.82 0 0 1-.45 0 1.49 1.49 0 0 1-.71-.46c-.2-.22-.3-.26-.42-.26a2.53 2.53 0 0 1-.38 0l-.5.25a4 4 0 0 1 .55.25c.17.13.23.32.38.46l.14.1c.16.12.33.2.5.33s.26.24.4.34a.91.91 0 0 0 .34.15c.16 0 .43.1.93-.86M126.4.47c-.34-.07-.7-.07-1-.12h-.28a4.15 4.15 0 0 1 1 .34 4.34 4.34 0 0 0-.52-.07 3 3 0 0 1 .56.2h.05c.35.14.72.26 1.07.4-.54-.12-1-.37-1.56-.5l-.6-.12a7.62 7.62 0 0 0-1.28-.31h-.25a9.47 9.47 0 0 1 1.12.3h-.17l.15.08c-.23-.06-.47-.13-.7-.2V.4a1.11 1.11 0 0 0-.48 0 3.35 3.35 0 0 0-.34 0l.15.1v.07a3.89 3.89 0 0 1-.87-.32 1.32 1.32 0 0 0 .41-.06l-.17-.05a2.78 2.78 0 0 0 .39 0l-.35-.1-.1-.02-.53-.1-1.1-.13h-.74l-.35-.08h.5l-.73-.1h-.92l.3.1h-.1a3.24 3.24 0 0 1 .73.22h-.3a2.75 2.75 0 0 0-.54-.09l.14.08h-.25l.06.05.17.05.04.02h.3l.4.15h-.52l.2.07h.08l.28.08h.32l.2.05.25.1h.25l.22.1h-.18l-.15.06h-.23l-.35-.08h-.25l-.17-.06h-.23a1 1 0 0 0-.35 0l.35.13h.07l.2.08h.15l.22.1h.06l.23.1h.08-.52l-.23-.08h-.05l-.18-.07h-.53l.54.27.2.16-.23-.05-.15-.1-.1-.1h-.12l-.1-.05h-.06l-.16-.08h-.3V.8h-.08.1l.15.07.14.06h-.56l-.17-.06-.14-.05h-.13v.06l.1.12h.05l.24.3a.88.88 0 0 1-.24 0h0-.3v.1l-.16.17v.1h-.2v.05h-.06v.38h.64l.07.16v.05l.1.23v.18h-.14l-.22.06h-.46a.59.59 0 0 0-.29 0V3a.66.66 0 0 0-.29.06 2.94 2.94 0 0 1-.51.05h0v.2h-.22c-.12.2-.12.2.15.52.28 0 .3 0 .44.2h.44l.18.1h.07a.59.59 0 0 0 .32.11h.15l.13-.07h.65a1.11 1.11 0 0 1 0 .33h0L118 5h-.56l-.18.06h-.06l-.38-.06h-.07v.15h-.3l-.08.13.13.14h.06a6.58 6.58 0 0 1 .78.29h-.08v.06l.15.06.06.06v.06h.13l.2.1h.06l.08.06h.34v-.06a.92.92 0 0 1-.13-.24h.16a1.33 1.33 0 0 1 .34 0h.18v-.12h.28a1.39 1.39 0 0 0 .35 0V5.6h.1v-.06c.13-.1.2-.06.37 0h.38l.28.1.07.06h.56a1.53 1.53 0 0 1 .27.11l.23.06h.1l.24.18.2.06h.18l.2.16.25.44.13.1.07.06.1.07h.44l.2.2v.07a1.38 1.38 0 0 1 .25.17l.1.07.1.1.08.07c.05 0 .05 0 .34.3.1.08.2.2.3.3h.1l.3.2a.86.86 0 0 0 .06.16c0 .12 0 .12.36.4a3.09 3.09 0 0 1 .21.41.47.47 0 0 0 .07.32h.32c0 .1.1.2 0 .3l-.13.1c.08.2.26.36.3.58h-.26a5.27 5.27 0 0 0 .17.32.63.63 0 0 0 .5.24.93.93 0 0 1 .31 0h.17a2.09 2.09 0 0 0 .67-.1l-.07-.17c.7-.46 1 .7 1.67.67h.1a2.27 2.27 0 0 1 .92.56v.16h-.83c-.67.06-1.27-.53-2-.18a7.24 7.24 0 0 0 .73.62l-.1.14h-.17s-.45.24 0 .63.94.24 1.35.5l.22-.06a1.07 1.07 0 0 1 .16-.32 2.4 2.4 0 0 1 .54 0 1.74 1.74 0 0 0-.42-.57h-.53l-.12-.13h-.35v-.17h.4a2.32 2.32 0 0 0 .85.24h.45a.62.62 0 0 1 .48.28l.05.08-.08.14.1.15-.07.17a.42.42 0 0 0 .08.14 2.46 2.46 0 0 1 .6.44l.27.5h-.65a1.17 1.17 0 0 0-.12.31h-.4l-.15-.07-.16.07a1.8 1.8 0 0 1 .25.82l-.38-.07c-.07.22-.07.22-.38.32l-.07.15.08.16a1 1 0 0 0 .08.18c.4.43 1.2.38 1.42 1a.67.67 0 0 0-.33.21s.66 1.5 1.52 1.14l.06-.18h.17a1.07 1.07 0 0 1 .29 0c.18.12.18.12.23.43a.68.68 0 0 0-.19 0l-.13.1c.76 1.46.76 1.46 1 1.46.16-.16.16-.4.3-.6h.37A7.18 7.18 0 0 1 136 22c-.08.17-.25.24-.36.37-.64.8 5.05 5 5.74 5a.66.66 0 0 0 .31-.07 1.28 1.28 0 0 1 .33-.11h.1c1.24.25 3.12 2.46 3.7.84l-.1-.17-.17-.33c-.28-.6.1-1.3-.3-1.87s-.9-.85-1.14-1.42l-.05-.16a.83.83 0 0 1 .35-.14 1.23 1.23 0 0 0 .3-.07.8.8 0 0 0 .34-.11c-.33-.54-.33-.54-.16-.82h.17l.1-.15c-.2-.34-.4-.66-.58-1 .13-.7-.76-.72-.93-1.23.5-.1.5-.1.65-.28-.08-.23-.24-.4-.34-.63l1-.05a4.72 4.72 0 0 1-.49-.69h.54a4.59 4.59 0 0 0 .57.77 1.38 1.38 0 0 1 .55 0c.14-.27 0-.6.2-.86h.16a.45.45 0 0 0 .46-.21l-.13-.14a.56.56 0 0 1 .07-.59 3.59 3.59 0 0 1-.12-.35l.1-.1-.2-.5.15-.15-.16-.2v-.17l.12-.13a3.22 3.22 0 0 0-.52-.6h.3l.13.06h.05l.16.1c1.2.33 1.2.33 1.6.2.14-.28 0-.54 0-.8a.9.9 0 0 1 .34-.1.57.57 0 0 1 .27-.17l.05-.16.12-.1c0-.38-.4-.6-.35-1a3.35 3.35 0 0 0 .63-.11.87.87 0 0 0-.36-.62h-.2l.05.16v.2h-.15c-.34-.08-.58-.35-.93-.4h-.1a2 2 0 0 1-1.46-.48c-.12-.1-.25-.2-.23-.36h0a.78.78 0 0 0 .48-.12 1 1 0 0 0-.15-.35c.65.15 1 .72 1.62 1l.17-.1-.24-.3c.15-.1.33-.1.47-.2a22.11 22.11 0 0 0-3.91-2V9.9c.6.3.6.3.75.3a1.19 1.19 0 0 0 .26 0l-.76-.55-.23-.15c-.5-.4-.76-.6-1.13-.43l.08.15a.82.82 0 0 1-.37 0 .68.68 0 0 1-.17-.31 2.92 2.92 0 0 0-.66-.24l-.1-.1h.37l.56.36a.93.93 0 0 0 .38-.08v-.17a.77.77 0 0 1 .2 0 .77.77 0 0 0 .37 0 2.63 2.63 0 0 0-1.37-.73l-.07.14c-.48-.12-.52-.18-.64-.36.3.06.32 0 .5-.06l-.17-.2h.17s.08 0 .16-.13c-.76-.4-1.6-.6-2.34-1v-.08h.18l-.76-.4c-.85-.35-1.78-.5-2.62-.9l-.17-.12-.15-.1.14-.08h.27l.56.2h.1a8.1 8.1 0 0 0 1.41.67v-.06l-2-.98a2.46 2.46 0 0 1-.32-.19l-.17-.06-.53-.2-.17.07h-.2a6.44 6.44 0 0 1-.7-.34h.17l.07-.08s-.84-.35-1.2-.2a1.08 1.08 0 0 1 .31.19 10.14 10.14 0 0 1-1-.42c0-.07 0-.07-1.45-.64h.15a2 2 0 0 1-.7-.32v-.05c-.86-.32-1.66-.77-2.55-1l-.3-.08h-.32a5.17 5.17 0 0 1-.58-.17l.35.06-.05-.06-.9-.27V.67c-.3-.08-.5-.13-.93-.22m-9-.1l-.2-.15-.08.06h-.15l-.15-.13-.18-.14h-.2l-.12.08-.06-.08h-.17l-.1-.1-.23-.07a.56.56 0 0 1 0 .16h0l-.1-.12h-.1v.14c0 .03-.12-.12-.2-.17h-.17s-.1.06-.13.27h-.07l-.14-.1h-.12l-.08.1h-.12l-.4.1-.22.16h.2c0 .07 0 .07.2.15l-.06.18a.24.24 0 0 1-.15 0L114 .55h-.2c0-.07 0-.13.06-.2h-.16v-.1h-.17a2.54 2.54 0 0 1-.36.29H113l-.06-.08h-.07l-.4.18h-.2l-.26.15h-.17l-.22.14h.08l-.27.2.1.07c-.1.1-.1.1-.1.2.17 0 .28.14.45.15l.33-.2.18-.13h.27l-.3.16-.3.2-.17.23c.67 0 .67 0 1-.24h.56l.28-.18.2-.16.1-.12c.1 0 .12 0 .37-.12h.04l-.5.33h.5l-.12.15a2.81 2.81 0 0 0-.29 0h-.24l-.18.08a4.39 4.39 0 0 0-.52.13h-.28l-.12.2h.17l.06.13v.2l.4.1h-.47c-.3-.53-.3-.53-.63-.56l-.38-.06-.2.22v.44l.2.35.2.17.45.05c-.1.13-.33.1-.43.25l-.13.28-.26-.4-.26-.08-.4.05-.3.07-.4.16-.18.26-.13.2.25.08h.82l-.47.23-.05.28c.4.08.43.1 1.15-.37l-.27.32-.48.3h-.4c-.14-.08-.4-.14-.48-.28a.43.43 0 0 0-.19-.21 1.87 1.87 0 0 0-.54 0c-.23.68-.23.68-.78.8l-.4.3v.43l.3.2a5.05 5.05 0 0 1 .61-.23c.28 0 .46.22.73.2s.3-.22.5-.24c.1.13.1.13.77.08h.38c0 .07 0 .07-.15.3v.05a.81.81 0 0 0 .53 0h.3c.87-.37.87-.37 1-.63V5l-.42.2V5l.4-.08.2-.38V4.2h.88c.2-.22-.1-.4-.1-.6h.57c.06 0 0-.15-.13-.36-.2 0-.33-.17-.53-.16l-.27.16-.23.14v-.3l.3-.13c0-.06 0-.06.3-.25h.24l.1.17c.42.08.42.08.84-.22L115 2.4h.32l.12.2h.27l.3-.13-.15-.3-.2-.1h.54l.1-.18.22-.1c.16-.2.45-.3.53-.57h.2v-.1l-.2-.16a.64.64 0 0 1-.27.18c-.13-.1-.13-.1-.43-.06V.85l.18-.07h.47c.1-.07.2-.07.28-.17h.2a1.25 1.25 0 0 0-.12-.19m-6.18 2.56c.1-.1.16-.22.24-.33-.34-.2-.34-.2-.36-.22l.1-.2.14-.17v-.13c-.2.12-.2.13-.26.13s.14-.18.16-.3-.2-.07-.18-.2 0-.08.1-.16a3.46 3.46 0 0 0 .19-.36V1h-.08a1 1 0 0 0-.44.15h.24c-.2.2-.3.16-.36.15h-.2c-.22.06-.24.07-.23.18s0 .05-.23.18h-.37l-.32.24-.28.1-.34.25h.17l-.36.27v.2h.27l.32-.1h.33l-.1.22a2 2 0 0 1-.39.11h-.28l-.35.14.07.2-.17.33.4.16.47-.07.28.13.28-.2h.18s.1 0 .2-.23l.24-.26.16.14c.1-.06.15-.15.24-.2s.06 0 .15 0 .1.08.2.06a1.41 1.41 0 0 0 .3-.2M108 5a2.34 2.34 0 0 0 .48-.18 2 2 0 0 0 0-.4l-.55.1-.5.37.56.12m3.9 2.46h0l.05-.5-.6-.22-.66-.18-.63.2-.9.2-.55.06-.64-.17h-.6l-.2-.46.24-.44.12-.4h-.56l-.44.07a2.77 2.77 0 0 0-.44 1.16l-.58.5v.38l.26.4.78-.05.5-.24c.35.53.35.53 1.06.45h.94l.48-.13.28-.22.2.26c1.44-.1 1.44-.1 1.47-.37 0-.13 0-.22.37-.33m-9.92.68h.37l.1-.3-.46.3m2.57-.3l.44-.47-.17-.26.07-.35-.37.06-.7.23-.35.3v.42h.4l.23.2.44-.15M105.65 6l.5-.3.18-.25v-.32h-.4L105.8 5l-.46.06-.4.37.14.3.16.27h.42m1.56-1.5l.23-.26h-.82l-.45.23-.2.25h.5l.34-.07.4-.07M107.1 4l.28-.2v-.3l-.38-.07v-.3l-.36.16-.18.26-.4.45.25.08h.38l.42-.1zm.5-1.57l.33-.1.35-.28v-.1h-.17l-.4.24h.2l-.3.23M105.1 4.3l.36-.22.3-.3v-.2l.3-.3-.06-.15v-.16h-.26l.1-.18v-.2h-.25l-.66.12-.14.27h.2v.1l-.38.3h-.3l-.3.27h.23l-.1.18.36-.12h.14l.36.07-.15.38.23.1m-1.18.13l.4-.1V4.1h-.3l-.32.28h.27zm.07 1.7a.67.67 0 0 0 .18-.3s0-.25-.14-.25a1.09 1.09 0 0 0-.45.19V5.4h-.35c-.05.3-.2 1.1-.58.84l.13-.56h-.32l-.36.34-.33.4v-.34l.47-.57-.23-.27-.6.47c-.07.1-.2.2-.2.3a1.14 1.14 0 0 1-.06.53l.3.23.4-.1.3-.06-.1.28-.37.57.34-.16h.45l.35-.06.33-.34.45-.5a3.91 3.91 0 0 0 .44-.26m-3.85.92c.15-.14 0-.23-.06-.24l-.1.05a.4.4 0 0 1-.3.11l-.3.35a1.31 1.31 0 0 0 .35 0 2.46 2.46 0 0 0 .4-.24M102.1 5l.4-.12.36-.45.05-.24a1.58 1.58 0 0 0-.8.81m11.25 13l.4-.62-.3-.66a8.23 8.23 0 0 0-1.27.07 3.48 3.48 0 0 0-.66.72l.32.6.72.1.8-.2m-8.67-8.52c.18-.16.45-.35.64-.5-.2-.23-.28-.25-.35-.26h-.5l-.38-.2c-.8 0-.8 0-.9.16-.28.45-.32.5-.8.63l-.6.88a9.72 9.72 0 0 1-.44.95L102 11l.6-.32.38-.5.52.16.56-.32.6-.55m-4.66 2.2l.7-.6.08-.48-.08-.44-.2-.3c1-.38 1-.38.9-1v-.28h-.47l-.37.38h-.2l-.23-.18-.53.12-.25.38v.43c-1 .88-1 .75-1 .22h-.37l-.4.4.16.34.13.26.4.16a2 2 0 0 1-.17.54v.13c0 .14.42.38.45.38a4.09 4.09 0 0 0 .76-.44h.75M97 9.7l.6-.5v-.25l-.6-.2-.53.3c0 .3 0 .37.06.4s0 .06-.1.54L97 9.7m-1.1-.54l.5-.34h-.35l-.43.22.3.1zm6.73-5.6c.34-.2.36-.23.36-.25a.24.24 0 0 1 0-.15h-.33l-.42.08-.75.27h1.17m-1.12.5l.5-.22h-.62l-.42.08-.6.2-.6.47.1.06.37-.1h.45l.4-.2.2-.24h.2m-1.67 0h.2l.55-.32V3.6h-.2l-.4.24-.2.18zM99.13 7l.9-.64.1-.24h-.24l-.38.27-.1-.16.13-.4.38-.28.36-.34H100l-.4.2-.34.08-.3.22c-.1.27-.1.27-.74.67l.24.1a.63.63 0 0 1-.62.25h-.44l.06-.25.38-.5-.06-.18h-.27v-.2l-.1-.07-.64.15-.83.34-.66.28-.74.3L94 7h.43l.23.15.45-.05.56-.1.4.15h.38a1.42 1.42 0 0 1-.7.17h-.43l-.55.18-.34.28.06.18h.6l1-.27.84-.36.5-.05h1.15l.6-.33m-1.1-1.8l.32.08.42-.23h-.4v-.06l-.3.22M94.32 6.5l1.15-.58-.6.12-.77.35.23.1zm3.9-1.78l.7-.34-.13-.15-.67.25h-.6c-.78.28-1.52.63-2.3.93h-.32l-.65.17-.5.35v.23l.66-.28-.17.24.5-.16.43-.22h.3l.65-.33.6-.2-.46.37.38-.1.58-.15 1-.5m-2.9 9.54l.4-.36-.26-.42-.76-.6v-.68l.64-.65-.1-.43.7-.85.17-.55-.28-.33h-.5l-.62.6-.33.44-.3.6-.42.25h-.2v-.27l.37-.44.23-.37.2-.58-.35-.06-.32.4-.2.33h-.46l-.33.3-.47.06.43-.33.55-.4h-.28l-.2-.2h-.43l-.5.38-.2-.2.37-.25.5-.5-.07-.1h-.44l-.73.32-.52.17-.6.13-.75.3-.56.5-.9.34-.34.3h.32l-.13.3.6-.16h.6l-.05.35-.73.16-.65.13-.56.3.22.38h2.03c.2 0 .16.2.23.3a1.79 1.79 0 0 1-.45.37l-1-.1h-1l-1.1.36-.43.84.74.08h.64l-.4.8.15.36h1.77l.9-.36.83-.16 1.48-.63v.3l.52-.07.52.62.63.07.67-.07.62-.54-.17-.47h.42l.66-.1m-4.4 1.62l.45-.55-1.16.26-1.33.52.56.2.83-.33.65-.1zm.26-6.64L92 9l.52-.44.1-.56-.27-.1-.8.24-.15-.25-.08-.3-.46-.1h-.88l-.5.32-.83.6-1.5.9-2.42 1.2.34.42-.8 1 1.1-.5h.54l.8-.35a14.27 14.27 0 0 1 3-1.53l1.5-.43m44.58 32.36l.4-.52-.67-.47.28-.5-.16-1-1.33-.15-.37-.6h-1.4l-1 .64-.66.5-.67-.23.14-.73 1.22-.46 1.47-.4.56-.6h-1l-1.05-.45-1.33-.33-.9-.7-1-.68-.45-.63.5-.13.1-.46-1-1.07-1.16-1.17-1.64-2-.56-.92-.83 1.2c.05.35.08.7.12 1.05l-1 .4-.62.74h-1l-.28-.67-.7-.5-1 .23.22-1.16-.1-1.52-.1-.8-1.15-.05-.93-.57-.83-.83-1.42-.88-.53.42-1.2-.05-.5-.3h-1.36l-.6.57.43.83-.3 1.1.1.76.4 1h-.75v1l-.54.55.63.46 1 .72.22 1.3c0 .5 0 1-.08 1.5l-.82 1.06-1.1.82-1.5.18.73 1.32c0 .56-.07 1.13-.12 1.7l.37 1-.3.8-.75 1-1.53.17-.74-1.44-.92-1.23c0-.35.07-.7.1-1l-.14-1.45.32-1.2-1.78-.24-1.33-.07-.62-.42-1.58-.43-.48-.7-1.23-.77-1.24-.82-2 .42-.24-.75-.26-1.7-.73-.47-.36-.67.88-2 1.34-1.47 1.26-1.3 1.2-.44 1-.65-.1-.7-1.13-.32-1.2-.52 1.52.27 1.2.37.66-.14.37-.73 1 .4.7-.14.22-.58.48-.24.43-.78-.73-.1-.94-.1-.2-.43-.92-.5.72.06 1.07.34.7.3.88-.28.73-.7-.4-.56h.77l.34.5-.54.56-.63 1-.34 1.32-.9.3.08.6.9.06a1 1 0 0 0 0 .57 3.24 3.24 0 0 0 1.12-.11l.48-.7 1.13.06.6.1.57.3h.92l.2-.75-.87-.2-.27-.93-1-.1-.68-.73-.7-.2c0-.18.08-.36.13-.53l.67.15.4-.38v-.42h.84l.43-.6.9-.58.35-.5-.32-.53-.18-.9.72-.13.32-.64-.38-.64-.62-.34-.73-.5h1l.2-.33.7.1.5.37h.8l.75-.17-.5-.6.43-.12.54.7.72.08.24.66.54.13.28.5.6.26.3.64.7.26.6.66.14.8-.9.87-.78.88.4.86-1.4.2-.73-.18q-.4 0-.78 0l-1 .7c0 .26 0 .52-.08.78l1.17.2 1-.06V22l.44-.25.6.15 1.14.33 1.13 1.1.25.6.72.76h1l1.13 1h1.6l1.1.45v-.62l-1.82-1.26-.74-.55-.4-.6 1.13.54 2 .94 1 .55c0-.3-.08-.62-.12-.92l.4-.8-1-.5-.37-1.23-1.2-.37-1.57-1.5.42-.42.4-.38 2 1.38.8.9.83.13v-1.06l.9-.4v-.42h.64l.16-.46-.23-.7h-1.24c0-.13 0-.25-.07-.37l-.88-.57-.53-.1-.84-.33h-.6l-.25-.5-.27-.43h-1.42l-.1-.73h.7l.3-.33-.95-.25.08-.3.43-.1-.58-.48-.7-.2.2-.45-.64-.3h-.77l-.13-.35h-.62l-.27-.07.5-.35-.7-.23-.85.24-.55-.6v-.34h-.5v-.4l-.77-.3h-1l-.2.33-.54.07-.48-.1-.25.4h-.5l.1-.52.4-.47-.3-.64-.06-.56h-.85l-.53.4h-.6l-.5.28-.32.57.16.63-.4.4.27.8-.48.08-.36-.7.15-.9.18-.58.65-.6.67-.5h-.77l-.87.1-1.1.68-1 1-.65 1.3.7.17.53.05v.5l-.58-.13-.74.2.3.64h.8l.46-.16.4.4.92.37-.7.2-.2.66.34.42-1.1 1.15-.62.84-.78.66-.45-.27-.07-1 .62-.6-.62-.95-1 .7-.5-1.32-.3-.18.4-.64.2-.73-.4-.1.28-.58-.33-.67-.8-.06-.37.38h-.37l-.76.6-.12.52-.34.4.3.7.43.46-.55.63-.68-.2-.16.74h.7l1-.5c-.13.25-.25.5-.37.77l-1.73.76-.46 1.16-.55-.65.64-.8H97l.37-.74h.48l.44-1.07-.77-.65-.7.74-.82.32.57.85-.8.45-.55.62h-2.1l-.7-.5-.64-.16-.46-.68-1 .45-1.38.5-.3.76-1 1.16.34-1.4-.55-.56-1.2.26-2-.36.32-.4 1.06-.3-.38-.78h-.7l-1-.8.15-.56-.7-.2h-.5l-.7.44-.55.1.8-1-1.3.88-.33-.16 1-1.18-.24-.23-1.12.73-.93.45-.64.08-1.1.3-1.3.48 1.54-.77.85-.2.7-.2.68-.38-.1-.1-1.1.3-1.4.46h-.82l-1.72.65-.5-.2.55-.8L74 13l.3-.43-.18-.2-.83.16.3-.43-.45-.1v-.4l-.4-.07h-.2A92.62 92.62 0 0 0 55.18 24.6l.73-.2-.14.46-1.23.5-.84.68-.38.4-.6.68 1.74-.84.84-.16a4.76 4.76 0 0 1 1.21-1.24l.5.12-.27.85v.7L57 27l.76-.2.12.42.42.05-.2.72.17.73c0 .33 0 .8.06 1.13a4.84 4.84 0 0 1 .54-.17l.08.54-.27.8.5.4-.67.7.38.58-.6.67.3.33.43.17-.5.8-.16.9-.53 1-.36 1 .63.18-.47 1.2.15 1.16-.24.8.48.68.6.5.54.36-.13.6.5.88.36.75-.3 1.56-.57 1.23-.18-.82-.15-1.07.16-.65-.43-.68-.4-.3.4-1h-.56l-.23-.54-.3-.28-.32-.26-.56.08v.85l.3.54.22.74.65 1.23-.14 1.25-.2 1.6-.57 1.25-.77 1.7-.74 2-.6.44-.47 1.3.07 1.4-.62 1.3-.18 1 .12.92-.44 1.34.23 1.16.53 1v2l.5.84-.07 1 .4 1.2 1 .06.56.84 1 .72.6 1.08V72l.18 1.2.22 2.1.6.94.76 1.1.15.77-.8.63.38.86.83.87 1.1 1 .6 1-.18.83.2.7.9.5.82 1 .6.8v.92l.53-.28.17-1-.3-1.17-.8-.5-.05-1-.88-.88-.27-1.3-.25-1.23-.7-1-.12-1.2-.74-.42-.3-1.52-.72-1.3.12-1.64h.72l.94.57.48.92-.13 1.4.88 1.93 1 1.55 1 1.1.68 1.1.1 1.22 1.1.8.77 1.2.57 1.25 1.3 1.74.48 1.5.72.72-.75.5-.22.92L71 92.65l1.27 1.22 1.58.6 1.65 1.16 2 1 2.2 1.23 1.8.6 1.14-.05.35-.62 1.3-.12 1.46.8 1.62 1.35.9 1.1H90l.75.32.84 1.16 1.65.56v-.77l.9.48c2.72 3.68 2.72 3.68 2.5 4.44l.54.62.66-.3.93.45c1.83 1.67 1.83 1.67 2.68 1.6l2.3 1.13 1.23.53V110l.6-.75 2.13.16.25.74.7-.07.37-1-.78-.9H106l-1.45-.08-2.13-.16-1-.68-1.4-1.45.05-1.15v-1.52l.42-1.92V99.9l-.7-1-1.37-.72-2 .14-1.53-.3-1.58.6-1-.7 1-.77v-1.47l.37-.86.52-1.4v-1.57l.9-.6.16-1.17-.67-.46-2.23.13-1.4.2-.68 1.07-.6 1.62-.66 1.5-1.18.14-1.68.44-1.73.2-.8-1.1-1.43-.78-.5-1.27-1-1.65-.5-2.8-.13-2 .77-1.53.47-1.76-.6-1.84 1.37-1.7h1.06l1.1-.88 1.14-1 1.47.26 1 .4.88-.36.66 1h1.3l1-.06-.12-.8.4-1.22h1.6l1.1-.13 2 .23.76 1.06h.67l.47-.6.6-.15.94.9.86 1.13v1.3l.5.75.2.84.67.6.35.9.82.46.07 1 .76.23.47-.7.38-1.07-.43-1.28-.42-2-1-1.74c0-.75 0-1.5.15-2.6l.48-1.2 1-1.64 1.26-.5 1.52-1.25 1.4-.95 1.36-.5.23-.94 1-.6-.86-1.58-.65-.72.3-.85-.57-.8 1-.5.85 1.14.52-1.15.6-1 .64-.65.65-2.1h1.93l1.2-.7 1.43-.15-.37-.83-.1-1.72.93-1.3h1.12l.34-.75h1.46l1.28-.75.78-1c2.3-.08 2.3-.08 3.4.26l-.44.44h-1.83l-1 .75a5.52 5.52 0 0 0 .15 1.07l.8.33.8-.7.6-.42 1.16-.35 1.2-.62 1.23-.3.85-1.16.86-.8v-.93l-1.26.35-.74 1.4-1.5.1-1.3-.58-1.37-1-.82-1.7 1.07-.86L126 46l-1.66-.1-1.75.54-1.94 1.12-1.88 1.85-1.54 1.07.6-1 .92-1.07.6-.52-1.55-.38h1.93l.44-.92 1-.84 1.24-.08.46-1 1-.4h1.63l2.94-.1 1.53.22 1.16-.1 1-.85.85-1.15 1.82-.23.9-.4" fill="#5b5480"/></g><path d="M160.7 73.75A486.49 486.49 0 0 1 114.32 119c-8.18 7-16.66 13.75-25.32 20.3S71.44 152 62.27 157.77c-4.62 2.87-9.3 5.63-14.1 8.23s-9.67 5.07-14.74 7.2a74.62 74.62 0 0 1-16 5 22.9 22.9 0 0 1-9 0A10.71 10.71 0 0 1 4 175.77a9.17 9.17 0 0 1-2.6-4.52 18.1 18.1 0 0 1 .54-9A45.2 45.2 0 0 1 5 154.4a109 109 0 0 1 8.44-14.06 225.5 225.5 0 0 1 20.62-25c-6.48 8.63-12.84 17.33-18.38 26.5a110.23 110.23 0 0 0-7.43 14.08 47.58 47.58 0 0 0-2.5 7.32 14.23 14.23 0 0 0-.24 6.94 4.81 4.81 0 0 0 1.44 2.34 6.17 6.17 0 0 0 2.64 1.18 18.8 18.8 0 0 0 7.09-.22 69.83 69.83 0 0 0 14.74-5 221.88 221.88 0 0 0 28-15.3c9.1-5.63 17.9-11.72 26.6-18s17.2-12.83 25.65-19.47c16.76-13.4 33.08-27.43 49.04-41.95z" fill="#f26e46"/><g fill="#f4896a"><path d="M192.87 64.42c-3.42 3-11.4-.63-17.86-8s-8.9-15.83-5.47-18.8L208.18 4l23.33 26.83z"/><path d="M231.5 30.82c-3.42 3-10.07-1.78-16.52-9.2S204.77 7 208.18 4c7.64-6.64 30.53-3 30.53-3s.44 23.18-7.2 29.82zM208.6 73.1c5.18-4.5 6.93-28.4 6.93-28.4L187.56 69l11.08 12.74z"/></g><path d="M195.446 62.17L206.52 74.9l-7.887 6.856-11.074-12.74z" fill="#ec5735"/><path d="M163.13 20.78c5.17-4.5 29.08-2.9 29.08-2.9l-28 24.32-11.05-12.74z" fill="#f4896a"/><g fill="#ec5735"><path d="M164.23 42.19l-11.074-12.74 7.887-6.856 11.074 12.74z"/><path d="M193.08 63.17a7.07 7.07 0 0 1-2-.05l-1.1-.23a15.42 15.42 0 0 1-2.34-.84 31.05 31.05 0 0 1-10.07-7.91 31 31 0 0 1-6.43-11.07 14.67 14.67 0 0 1-.51-2.43 11 11 0 0 1-.07-1.12 7.28 7.28 0 0 1 .22-2 5.71 5.71 0 0 1 .31-.85 4.09 4.09 0 0 1 1-1.35l-7.3 6.35c-3.42 3-1 11.4 5.48 18.8s14.43 11 17.85 8l7.3-6.36A4.1 4.1 0 0 1 194 63a6 6 0 0 1-.92.17zM206.5 51.5a7.07 7.07 0 0 1-2 0 9.24 9.24 0 0 1-1.09-.23 13.52 13.52 0 0 1-2.34-.84A30.89 30.89 0 0 1 191 42.47a30.81 30.81 0 0 1-6.44-11.06 15 15 0 0 1-.51-2.44 10.86 10.86 0 0 1-.07-1.12 7.33 7.33 0 0 1 .22-2 5.21 5.21 0 0 1 .31-.84 4 4 0 0 1 1-1.36L178.23 30c-3.42 3-1 11.4 5.48 18.8s14.43 11 17.85 8l7.3-6.35a4.08 4.08 0 0 1-1.49.81 4.73 4.73 0 0 1-.88.24zm13.43-11.66a8 8 0 0 1-2-.05l-1.1-.23a14.84 14.84 0 0 1-2.34-.85 30.76 30.76 0 0 1-10.06-7.91A30.88 30.88 0 0 1 198 19.74a14.78 14.78 0 0 1-.51-2.44 10.67 10.67 0 0 1-.07-1.11 6.9 6.9 0 0 1 .23-2 5.69 5.69 0 0 1 .3-.85A4.13 4.13 0 0 1 199 12l-7.3 6.36c-3.4 3-1 11.38 5.48 18.8s14.43 11 17.85 8l7.3-6.35a4.11 4.11 0 0 1-1.48.81 5.1 5.1 0 0 1-.92.23z"/></g></svg>